<svg id="Слой_1" data-name="Слой 1" xmlns="http://www.w3.org/2000/svg" viewBox="0 0 714 714"><defs><style>.cls-1{fill:#e9426e;}.cls-2{fill:#efd8d9;}.cls-3{fill:#bc2c59;}.cls-4{fill:#ee7aaa;}.cls-5{fill:#efedd5;}</style></defs><path class="cls-1" d="M206.69,463.15c1.55.05,3.09.14,4.63.29l.93.1c1.66.17-.49-.05-.68-.1.89.21,1.84.29,2.74.46a65.92,65.92,0,0,1,9,2.34c.61.2,4.21,1.11,4.35,1.63,0,0-2.19-1-.56-.22l.84.38c.85.39,1.68.8,2.51,1.23a68.78,68.78,0,0,1,7.94,4.78c.66.46,1.3,1.06,2,1.46,0,0-1.5-1.2-.7-.54l1,.78c1.27,1,2.5,2.14,3.69,3.28s2.2,2.17,3.24,3.32c.48.53,1,1.08,1.42,1.63l.6.71c.1.12,1.36,1.73.41.49s0,0,.23.32l.76,1.07c.44.62.87,1.24,1.28,1.88q1.41,2.15,2.66,4.4,1.09,1.95,2.07,4c.37.76.73,1.53,1.08,2.3.18.38.35.77.52,1.16.51,1.13,0,0-.2-.51,2.28,6.17,4.51,12.31,6.44,18.61,1.86,6.08,3.67,12.19,5.87,18.15A106.31,106.31,0,0,0,279.85,556a145,145,0,0,0,12.88,17.21c18.14,21.22,41.95,37.57,67.76,48,13.94,5.63,28.53,8.83,43.4,10.69,7.12.89,14.28,1.39,21.45,1.63a193.58,193.58,0,0,0,21.41-.15c14.41-1.12,29.73-5,40.24-15.61a47.29,47.29,0,0,0,13.44-32.84,38.92,38.92,0,0,0-18.11-33.16c-2.75-1.77-5.69-3.21-8.6-4.71-1.36-.7-2.72-1.4-4-2.16-.76-.43-1.51-.88-2.24-1.35a11.71,11.71,0,0,0-2.15-1.47c1.19.36,1.11.91.36.25-.33-.29-.68-.57-1-.86-.56-.49-1.11-1-1.66-1.52a40.8,40.8,0,0,1-3.24-3.46c-1.45-1.75.85,1.28,0,0-.38-.58-.78-1.14-1.15-1.73s-.58-1-.85-1.51c-.47-.89-.92-2.89-.14-.1-.28-1-.71-2-.95-3a16,16,0,0,1-.33-1.68c.08,0,.22,2.29.2,1.47,0-.34-.06-.69-.07-1-.05-1,.05-2,.1-3.07,0-.8-.21,1.51-.2,1.5a5.91,5.91,0,0,0,.14-.8q.17-.79.39-1.59t.51-1.56a6.36,6.36,0,0,1,.29-.77c.11,0-.94,2-.54,1.31.54-1,1-2,1.6-3,.27-.43.54-.85.83-1.26.47-.69,1.87-2.06-.17.16.81-.89,1.54-1.84,2.38-2.7s1.54-1.51,2.35-2.22c.47-.42,1-.81,1.44-1.22.25-.21,1-.76-.21.16s-.12.1.19-.13a55,55,0,0,1,6.41-4c1-.55,2.06-1.06,3.11-1.55.3-.14.61-.26.9-.41,1.06-.5-2,.79-.89.37.62-.23,1.23-.49,1.86-.72a58.05,58.05,0,0,1,7.31-2.21c1.1-.25,2.21-.47,3.32-.66a6,6,0,0,1,.95-.14s-2.62.3-1.11.15l1.87-.18a76.85,76.85,0,0,1,8.85.05q11.82.51,23.61,1.6,5.81.53,11.58,1.22c1.93.22,3.85.46,5.78.71.31.05,2,.21.66.09s.08,0,.28,0l3.46.49c8,1.16,15.93,2.57,24,3.18,14.53,1.1,29.71-1.25,41.1-10.94,8.53-7.25,12.63-18.39,13.17-29.34,1.22-25-15.52-48.81-38.26-58.07A44.19,44.19,0,0,0,564,410.23c-4.93.35-9.71,4.11-9.47,9.48.22,4.83,4.18,9.84,9.47,9.47a37.15,37.15,0,0,1,4.22-.07c.77,0,1.62.22,2.38.19.05,0-2.08-.34-1-.14.49.09,1,.16,1.47.26a34.65,34.65,0,0,1,4,1c.77.23,1.52.5,2.27.78l.83.33c1.1.41-1.87-.9-.33-.12a55.53,55.53,0,0,1,7.84,4.61c.32.23.64.51,1,.73,0,0-1.49-1.22-.71-.54.54.47,1.1.91,1.64,1.38q1.85,1.62,3.54,3.41c1,1,1.91,2.13,2.83,3.23,1.15,1.37-.34-.47-.35-.47l.73,1c.48.66.94,1.32,1.38,2a51.14,51.14,0,0,1,3.42,6.08c.24.5.44,1,.68,1.5.51,1-.8-2.05-.4-1,.08.22.17.44.26.65.45,1.17.87,2.35,1.24,3.55a50,50,0,0,1,1.63,6.81c0,.23.06.46.11.69.22,1.15-.25-2.31-.15-1.14,0,.53.12,1.07.17,1.6.1,1.22.16,2.44.17,3.66,0,1.06,0,2.11-.11,3.17,0,.52-.11,1-.14,1.56-.07,1.16.38-2.33.16-1.19-.06.36-.11.73-.17,1.1a38.61,38.61,0,0,1-1.77,6.33c-.51,1.41,1.1-2.29.18-.46-.23.46-.44.92-.68,1.37a29.15,29.15,0,0,1-1.82,3c-.13.18-.27.36-.39.54-.59.94,1.43-1.69.68-.87-.35.38-.67.8-1,1.18a28,28,0,0,1-2.6,2.51c-.18.15-.37.29-.54.45-.82.76,1.78-1.23.81-.63-.46.29-.9.64-1.36.94a30.63,30.63,0,0,1-3.2,1.82c-.53.26-1.1.47-1.62.75,2.53-1.36.56-.26-.2,0a44.75,44.75,0,0,1-5.18,1.45c-.82.17-1.63.31-2.45.46-1.77.32.15,0,.4,0a9.78,9.78,0,0,1-1.42.15c-1.78.17-3.57.26-5.36.28a95.93,95.93,0,0,1-10.85-.56l-2.54-.28-1.45-.18c-1.17-.15-.5.35.34,0a7.92,7.92,0,0,1-2.54-.36l-2.88-.43c-8.16-1.23-16.31-2.4-24.51-3.32q-11.57-1.29-23.19-2c-6.38-.4-12.94-1.08-19.31-.44a66.73,66.73,0,0,0-31,11c-8.68,6-17.06,14.59-19,25.35a30,30,0,0,0,1.36,16.71,42.91,42.91,0,0,0,11.76,16.28c5.54,4.83,11.79,7.78,18.16,11.28,1.33.73,2.65,1.5,3.91,2.34l1.07.74c.81.54.3.77-.37-.29a11.26,11.26,0,0,0,1.67,1.47c.86.83,1.55,1.83,2.41,2.64-1.9-1.81-.54-.69,0,.11.36.55.7,1.12,1,1.7s.52,1,.79,1.53c1,1.91-.6-1.7-.09-.24.43,1.24.85,2.46,1.16,3.74.13.55.23,1.11.35,1.68.4,2-.17-2,0-.34.11,1.32.2,2.63.2,3.95,0,1.16-.11,2.31-.2,3.47-.13,1.64.41-2.32,0-.29-.14.74-.27,1.47-.43,2.21-.26,1.14-.58,2.27-.94,3.38-.18.56-.37,1.11-.58,1.66l-.37.93c-.36,1,1.08-2.28.26-.65a51.32,51.32,0,0,1-3.78,6.45c-.89,1.28,1.53-1.77.1-.16-.38.43-.74.88-1.14,1.3a31.7,31.7,0,0,1-2.83,2.73c-.19.15-.39.3-.57.46-.84.78,1.74-1.16.75-.58-.59.34-1.13.8-1.7,1.17a45.62,45.62,0,0,1-4.62,2.61c-.33.17-2.61,1.16-1.27.62s.14-.06-.09,0l-1.24.47c-1.56.57-3.15,1.06-4.75,1.49s-3.25.81-4.89,1.12c-.77.14-1.54.28-2.32.4a8.15,8.15,0,0,0-1,.15c2.19-.62.87-.12.18,0-3.34.38-6.71.57-10.07.62-7.14.11-14.3,0-21.43-.46q-5.28-.3-10.53-.84a51.53,51.53,0,0,0-5.22-.61s1.88.26.79.1l-1.38-.2q-1.38-.19-2.76-.42A165.27,165.27,0,0,1,379,607.65q-5.11-1.51-10.13-3.4c-1.57-.59-3.14-1.23-4.7-1.86-1.27-.52,1.5.66.25.1l-1-.44-2.8-1.27a170.22,170.22,0,0,1-17.1-9.18q-4.18-2.57-8.22-5.36c-1.25-.87-2.5-1.76-3.73-2.66l-1.85-1.37a12.94,12.94,0,0,0-1-.79c.48.3,1.3,1,.36.27a171.62,171.62,0,0,1-14.72-13q-3.46-3.46-6.71-7.14c-1.07-1.22-2.13-2.45-3.16-3.71-.49-.58-1-1.17-1.44-1.76l-.8-1c-.75-.95,0-.09.29.38-1.63-2.74-3.85-5.21-5.6-7.89a77.29,77.29,0,0,1-4.71-8.37c-.64-1.33-1.16-2.74-1.84-4,1.23,2.37,0-.08-.26-.67-.31-.79-.61-1.58-.91-2.37-1.12-3-2.13-6-3.09-9-1.94-6.07-3.68-12.19-5.7-18.23-4.43-13.27-10.28-26-19.87-36.35a77.3,77.3,0,0,0-34.28-21.17,76.22,76.22,0,0,0-19.56-3.11c-4.95-.16-9.69,4.47-9.47,9.47A9.67,9.67,0,0,0,206.69,463.15Z"/><path class="cls-1" d="M382.42,204.5l215.74,31.89c13,1.92,18.88,9.76,17,22.69q-18.89,127.76-37.78,255.51c-1.84,12.48-9.8,18.37-22.39,16.52-17.25-2.53-34.48-5.14-51.74-7.59-2.45-.35-3.6-1.06-4-3.72-2.94-20.13-6.12-40.22-9.08-60.34-.32-2.17-1.17-2.86-3.26-3.17q-138.67-20.43-277.33-41c-2.39-.35-3.23.46-4.17,2.45-8.56,18.18-17.28,36.3-25.85,54.48-1.1,2.34-2.28,3.17-5,2.74-17.34-2.71-34.72-5.19-52.08-7.78-12.07-1.8-18.12-9.92-16.36-21.89Q125,317.36,143.87,189.43c1.91-13,9.72-18.75,22.8-16.82Zm-30.93,209L539.4,441.26c3.51.52,7,1.12,10.56,1.53,6.94.81,12-3,13-9.85q12-81.21,23.9-162.45a14.23,14.23,0,0,0-1.72-7.95c-1.84-3.61-5.59-4.67-9.52-5.26q-196.35-29-392.7-58c-.71-.11-1.41-.22-2.12-.31-7.38-.86-12.39,2.89-13.46,10.16q-12,80.69-23.85,161.39a15.35,15.35,0,0,0-.12,4.17c.78,5.56,4.5,8.7,11.38,9.72ZM558.67,520.57A7.88,7.88,0,1,0,561.18,505a7.88,7.88,0,1,0-2.51,15.56ZM115.59,447.13a7.84,7.84,0,1,0,8.89-6.68A7.93,7.93,0,0,0,115.59,447.13ZM605.92,256.71a8,8,0,0,0-15.76-2.37,8,8,0,0,0,15.76,2.37ZM153.64,189.76a7.83,7.83,0,1,0,15.5,2.27,7.84,7.84,0,0,0-15.5-2.27Z"/><path class="cls-2" d="M580,275a14.41,14.41,0,0,0-1.69-7.94c-1.81-3.61-5.5-4.67-9.38-5.24Q375.28,233.26,181.62,204.6c-.7-.1-1.39-.21-2.09-.3-7.28-.84-12.23,2.91-13.31,10.18q-11.94,80.7-23.84,161.4a15.29,15.29,0,0,0-.13,4.16c.76,5.56,4.43,8.7,11.21,9.7l194,28.68,185.34,27.4c3.47.51,6.93,1.11,10.41,1.51,6.85.8,11.88-3,12.89-9.87Q568.17,356.25,580,275Z"/><path class="cls-3" d="M221.14,451.74c7.7,1.07,13.21,6.95,12.34,13.19-.83,6-7.68,10.14-15.14,9.23s-13.43-7-12.64-13.11S213.47,450.67,221.14,451.74Z"/><path class="cls-3" d="M477.07,501.07c-.92,5.94-7.88,10.09-15.25,9.08-7.55-1-13.29-7.13-12.4-13.21s7.84-10.28,15.52-9.17S478,494.9,477.07,501.07Z"/><path class="cls-1" d="M516.9,529.75c-3.88-20.87-7.83-41.73-11.58-62.62-.48-2.67-2.22-2.81-4.38-3.13q-153.1-22.61-306.18-45.32c-3.22-.48-4.46.42-5.65,2.78-6.84,13.58-13.83,27.1-20.8,40.63-2.72,5.27-5.52,10.51-8.41,16l356.85,52.75A4.44,4.44,0,0,0,516.9,529.75ZM273,448.33h0Zm-54.15,25.91c-6.86-.82-12.15-6.85-11.36-12.92s7.23-10.46,14.2-9.5,11.95,6.77,11.08,13C232,470.79,225.65,475.05,218.87,474.24Zm50.52-3.68.34.05-.33,0ZM414.21,492l-.25-.05a17.15,17.15,0,0,0,5.66-.18A14.53,14.53,0,0,1,414.21,492Zm3-22.32h.2a14.37,14.37,0,0,1,5.24,1.82A16.64,16.64,0,0,0,417.17,469.66Zm45.14,40.57c-6.89-.93-12.06-7-11.16-13s7.3-10.37,14.3-9.35,11.88,6.94,10.93,13.12C475.46,506.91,469,511.13,462.31,510.23Z"/><path class="cls-4" d="M378.4,209.44l212.8,31.45c12.84,1.9,18.61,9.73,16.7,22.66Q589,391.29,570.12,519.05c-1.84,12.48-9.71,18.39-22.12,16.57-17-2.5-34-5.07-51-7.49-2.42-.35-3.55-1-3.93-3.71-2.86-20.12-5.95-40.19-8.84-60.3-.31-2.18-1.14-2.86-3.2-3.17Q344.19,440.8,207.43,420.5c-2.36-.35-3.18.47-4.11,2.45-8.48,18.2-17.12,36.33-25.62,54.52-1.09,2.34-2.25,3.18-5,2.75-17.11-2.67-34.25-5.12-51.37-7.67-11.91-1.78-17.87-9.88-16.1-21.85q18.9-127.93,37.82-255.86c1.91-13,9.62-18.76,22.53-16.85Q272,193.7,378.4,209.44Zm-30.92,209,185.34,27.4c3.47.51,6.93,1.11,10.41,1.51,6.85.8,11.88-3,12.89-9.87Q568.17,356.25,580,275a14.41,14.41,0,0,0-1.69-7.94c-1.81-3.61-5.5-4.67-9.38-5.24Q375.28,233.26,181.62,204.6c-.7-.1-1.39-.21-2.09-.3-7.28-.84-12.23,2.91-13.31,10.18q-11.94,80.7-23.84,161.4a15.29,15.29,0,0,0-.13,4.16c.76,5.56,4.43,8.7,11.21,9.7Zm204.2,106.65a7.88,7.88,0,1,0,2.5-15.56,7.88,7.88,0,0,0-2.5,15.56Zm-437-72.54a7.74,7.74,0,1,0,8.79-6.69A7.89,7.89,0,0,0,114.65,452.53ZM598.81,261.2a7.86,7.86,0,0,0-15.53-2.35,7.85,7.85,0,0,0,15.53,2.35Zm-446.1-66A7.73,7.73,0,1,0,168,197.39a7.73,7.73,0,0,0-15.29-2.23Z"/><path class="cls-3" d="M551.68,525.07a7.88,7.88,0,1,1,9.11-6.69A7.93,7.93,0,0,1,551.68,525.07Z"/><path class="cls-3" d="M114.65,452.53a7.74,7.74,0,1,1,6.53,8.91A7.91,7.91,0,0,1,114.65,452.53Z"/><path class="cls-3" d="M598.81,261.2a7.85,7.85,0,0,1-15.53-2.35,7.86,7.86,0,0,1,15.53,2.35Z"/><path class="cls-3" d="M152.71,195.16A7.73,7.73,0,0,1,168,197.39a7.73,7.73,0,1,1-15.29-2.23Z"/><path class="cls-4" d="M153.92,294.34c.24-1.67.46-3.12.7-4.75l414.31,61.24c-.24,1.62-.46,3.07-.7,4.75Z"/><path class="cls-4" d="M567.24,361.9l-.67,4.53L152.36,305.2c.21-1.39.42-2.82.67-4.53Z"/><path class="cls-4" d="M150.63,316.55c.25-1.66.46-3.11.7-4.74l414.31,61.24c-.24,1.62-.45,3.07-.7,4.75Z"/><path class="cls-4" d="M564,384.12l-.67,4.52L149.08,327.42c.2-1.39.41-2.82.67-4.53Z"/><path class="cls-4" d="M211.89,376c.24-1.66.46-3.12.7-4.75l277.72,41.06c-.24,1.62-.45,3.07-.7,4.75Z"/><path class="cls-4" d="M488.64,423.36l-.67,4.52-277.65-41c.2-1.39.41-2.81.66-4.52Z"/><path class="cls-4" d="M308.87,295.83c-3.18,21.46-6.31,42.69-9.49,64.18l110.3,16.3c3.18-21.55,6.33-42.86,9.48-64.18Z"/><path class="cls-1" d="M433.13,347a24.33,24.33,0,1,1,20.36,27.62A24.4,24.4,0,0,1,433.13,347Z"/><path class="cls-1" d="M285.5,325.3a24.33,24.33,0,1,1-48.07-7.51,24.33,24.33,0,1,1,48.07,7.51Z"/><path class="cls-1" d="M299.34,360.34c3.2-21.64,6.32-42.79,9.54-64.53,6.41.94,12.73,1.81,19,2.91.7.12,1.47,1.5,1.69,2.46q7.46,31.72-8.85,60a3.88,3.88,0,0,1-3,1.78C311.7,362.27,305.72,361.28,299.34,360.34Z"/><path class="cls-1" d="M419.27,312.13c-3.21,21.74-6.34,42.89-9.54,64.54-6.41-.95-12.73-1.81-19-2.91-.7-.13-1.49-1.48-1.71-2.42q-7.42-31.74,8.89-60c.53-.91,1.85-2,2.67-1.88C406.68,310.18,412.78,311.17,419.27,312.13Z"/><path class="cls-3" d="M352.41,382.39,225,363.56c-7.89-1.17-10.43-4.59-9.26-12.5q5.25-35.58,10.52-71.16c1.14-7.71,4.64-10.34,12.25-9.21L493.67,308.4c7.89,1.17,10.42,4.59,9.25,12.53q-5.28,35.76-10.58,71.51c-1.07,7.24-4.68,9.94-11.83,8.88Zm-53-22.38,110.3,16.3c3.18-21.55,6.33-42.86,9.48-64.18l-110.29-16.3C305.69,317.29,302.56,338.52,299.38,360Zm133.75-13a24.33,24.33,0,1,0,48.15,7,24.33,24.33,0,1,0-48.15-7ZM285.5,325.3a24.33,24.33,0,1,0-27.95,20.33A24.38,24.38,0,0,0,285.5,325.3Z"/><path class="cls-2" d="M397.83,309.26c-11.7,8.67-22.5,18.45-33.33,28.17-3.07,2.75-6.15,5.5-9.25,8.22-1,.9.48,2.38,1.49,1.49,10.83-9.5,21.34-19.38,32.49-28.51,3.16-2.59,6.38-5.12,9.67-7.55C400,310.28,398.92,308.45,397.83,309.26Z"/><path class="cls-2" d="M404.18,312.44c-15.58,12.88-30.79,26.2-46,39.53l-13,11.35c-1,.89.47,2.38,1.49,1.49,15.23-13.3,30.36-26.71,45.76-39.81q6.55-5.58,13.2-11.08C406.71,313.06,405.21,311.58,404.18,312.44Z"/><path class="cls-2" d="M262.83,301.86c8.64-.07,15.87,7.11,18,15.12s-1.85,16.71-8.42,21.49c-3.73,2.72-8.27,4-12.77,2.64a1.05,1.05,0,0,0-.56,2c9.22,2.79,18.07-4,22.05-11.92a20.72,20.72,0,0,0,2.12-13,23.61,23.61,0,0,0-6.48-12.29,19.58,19.58,0,0,0-14-6.13A1.05,1.05,0,0,0,262.83,301.86Z"/><path class="cls-2" d="M458.63,330.81c8.64-.08,15.87,7.1,18,15.11s-1.85,16.71-8.42,21.5c-3.72,2.71-8.27,4-12.77,2.63a1.05,1.05,0,0,0-.56,2c9.22,2.8,18.07-4,22.06-11.92a20.77,20.77,0,0,0,2.12-13,23.72,23.72,0,0,0-6.48-12.29,19.68,19.68,0,0,0-14-6.13A1.06,1.06,0,0,0,458.63,330.81Z"/><path class="cls-3" d="M297.75,268.62c-1.3,0-2.65-.05-4-.12-1.05-.06-2.06-.08-3-.09a1.23,1.23,0,0,1-.85-.35,1.11,1.11,0,0,1-.37-.83,1.5,1.5,0,0,1,.22-.81.71.71,0,0,1,.58-.43l2.35.06c-.06-2.61-.1-3.91-.16-6.52-.09-2.91-.17-5.8-.22-8.69,0-2.73-.08-5.44-.07-8.14-.71.05-1.2.1-1.45.14a4.26,4.26,0,0,1-.64,0,1.2,1.2,0,0,1-.9-.33,1.23,1.23,0,0,1-.38-.91,1,1,0,0,1,.3-.76c.48-.51,3.21-.84,8.19-.87a1.35,1.35,0,0,1,1,.35,1.17,1.17,0,0,1,0,1.71,1.28,1.28,0,0,1-.9.38l-2.61.09q0,4,0,8.08.1,7.69.41,15.42a20.58,20.58,0,0,1,2.48.15,1.15,1.15,0,0,1,.77.41,1.11,1.11,0,0,1,.3.76,1.35,1.35,0,0,1-.29.88A.89.89,0,0,1,297.75,268.62Z"/><path class="cls-3" d="M311.22,268.75a1.1,1.1,0,0,1-.86-.4,1.22,1.22,0,0,1-.07-1.59,1.07,1.07,0,0,1,.68-.41l.39-.06a136.23,136.23,0,0,1-.5-15.42,84,84,0,0,1,.7-9.3,1.22,1.22,0,0,1,.43-.78,1.32,1.32,0,0,1,.87-.28,1.48,1.48,0,0,1,.94.37,1,1,0,0,1,.33.8c-.05,1.31-.16,2.75-.32,4.2-.19,1.69-.34,3.38-.39,5a134.58,134.58,0,0,0,.4,15.17c1.53,0,3.11,0,4.72,0s3.08.17,4.31.32a1.24,1.24,0,0,1,.8.42,1.12,1.12,0,0,1,.29.83,1.42,1.42,0,0,1-.38.88,1,1,0,0,1-.86.31l-1.66-.12c-.81-.09-1.79-.16-3-.21-1.32-.05-2.6-.07-3.85,0a20.18,20.18,0,0,0-2.72.2Z"/><path class="cls-3" d="M332.41,267.8a8.24,8.24,0,0,1-4.11-1.4,10.58,10.58,0,0,1-2.94-3.09,14,14,0,0,1-1.72-4,14.46,14.46,0,0,1-.45-4.29,14.25,14.25,0,0,1,.9-4.22,13.32,13.32,0,0,1,2.22-3.83,10.27,10.27,0,0,1,3.44-2.69,8.68,8.68,0,0,1,4.49-.79,8.78,8.78,0,0,1,4.35,1.46,10.06,10.06,0,0,1,3,3.17,13.13,13.13,0,0,1,1.62,4.12,14,14,0,0,1,.26,4.31,14.51,14.51,0,0,1-1.08,4.17,13.78,13.78,0,0,1-2.31,3.74,10.48,10.48,0,0,1-3.36,2.61A8.2,8.2,0,0,1,332.41,267.8Zm.18-2.37a5.87,5.87,0,0,0,3.35-.66,8.07,8.07,0,0,0,2.56-2.18,11.65,11.65,0,0,0,1.72-3.06,11.58,11.58,0,0,0,.61-6.62,10.9,10.9,0,0,0-1.18-3.31,7.91,7.91,0,0,0-2.24-2.6,6.66,6.66,0,0,0-6.81-.52,8.24,8.24,0,0,0-2.61,2.24,11.28,11.28,0,0,0-1.66,3.1,12.21,12.21,0,0,0-.68,3.3,12.56,12.56,0,0,0,.29,3.34,12,12,0,0,0,1.25,3.28,8,8,0,0,0,2.21,2.54A5.87,5.87,0,0,0,332.59,265.43Z"/><path class="cls-3" d="M351,268.2a1.22,1.22,0,0,1-.69-.32,1.41,1.41,0,0,1-.43-.78c-.39-2.12-.81-4.25-1.24-6.38q-1.44-6.87-2.72-13.78a1.16,1.16,0,0,1,0-.32,1.06,1.06,0,0,1,.48-.81,1.26,1.26,0,0,1,.94-.25,1.24,1.24,0,0,1,.74.32,1.2,1.2,0,0,1,.39.7q1.32,7.26,2.76,14.51c.19.94.28,1.42.46,2.36l9.47-16.72a1.34,1.34,0,0,1,1.32-.64,1.29,1.29,0,0,1,.86.49,1.16,1.16,0,0,1,.26.91,1.22,1.22,0,0,1-.14.39q-5.57,9.88-11.25,19.71a1.23,1.23,0,0,1-.54.5A1.16,1.16,0,0,1,351,268.2Z"/><path class="cls-3" d="M369.11,271.73a5.9,5.9,0,0,1-3-1.34,8,8,0,0,1-2-2.54,13.21,13.21,0,0,1-1.09-3.23,19.89,19.89,0,0,1-.2-6.6,16.7,16.7,0,0,1,1.06-4,11.47,11.47,0,0,1,2-3.25,7.53,7.53,0,0,1,2.88-2.07,7,7,0,0,1,3.76-.34,5.52,5.52,0,0,1,2.65,1.13,6,6,0,0,1,1.64,2.1,9.79,9.79,0,0,1,.81,2.66,13.6,13.6,0,0,1,.18,2.84,18.29,18.29,0,0,1-.26,2.6,5.08,5.08,0,0,1-.27.93c-.28.77-.77,1.12-1.45,1-2.61-.38-6.18-.87-10.67-1.31a17.09,17.09,0,0,0,.15,2.55,12.61,12.61,0,0,0,.66,2.81,7.24,7.24,0,0,0,1.37,2.38,3.73,3.73,0,0,0,2.29,1.24,7.08,7.08,0,0,0,3.58-.58,1.24,1.24,0,0,1,.65-.06,1.24,1.24,0,0,1,1,1.41,1.25,1.25,0,0,1-.78.93A10,10,0,0,1,369.11,271.73Zm-3.74-13.79q4.74.48,9.69,1.18a15,15,0,0,0,.19-2.22,12.88,12.88,0,0,0-.21-2.61,5.82,5.82,0,0,0-.94-2.28,2.84,2.84,0,0,0-2-1.19,4.25,4.25,0,0,0-2.73.38,6.18,6.18,0,0,0-2,1.74,10.42,10.42,0,0,0-1.33,2.46A12.49,12.49,0,0,0,365.37,257.94Z"/><path class="cls-3" d="M392,278.56a1.31,1.31,0,0,1-.79-.5,1.18,1.18,0,0,1-.19-.93c1.25-6.38,1.87-9.58,3.11-16-1.52-4.18-2.3-6.26-3.92-10.43a1.21,1.21,0,0,1-.09-.69,1.16,1.16,0,0,1,.57-.76,1.32,1.32,0,0,1,1-.18,1.54,1.54,0,0,1,.58.27,1.1,1.1,0,0,1,.39.51c1.4,3.65,2.07,5.48,3.39,9.13,2.78-2.69,4.19-4,7-6.67a1.4,1.4,0,0,1,1.24-.31,1.24,1.24,0,0,1,.79.57,1.13,1.13,0,0,1,.18.92,1.08,1.08,0,0,1-.35.57c-3.39,3.09-5.06,4.65-8.35,7.8-1.26,6.33-1.89,9.5-3.17,15.83a1,1,0,0,1-.52.69A1.13,1.13,0,0,1,392,278.56Z"/><path class="cls-3" d="M409.08,280.7a8.12,8.12,0,0,1-3.79-2.13A10.42,10.42,0,0,1,403,275a14,14,0,0,1-1-4.28,14.85,14.85,0,0,1,.34-4.3,14,14,0,0,1,1.66-4,13.26,13.26,0,0,1,2.88-3.36,10.12,10.12,0,0,1,3.87-2,8.62,8.62,0,0,1,4.56.05,8.79,8.79,0,0,1,4,2.22A10.36,10.36,0,0,1,421.7,263a13.34,13.34,0,0,1,.84,4.35,14,14,0,0,1-.53,4.28,14.37,14.37,0,0,1-1.82,3.9,14.19,14.19,0,0,1-3,3.26,10.61,10.61,0,0,1-3.79,2A8.28,8.28,0,0,1,409.08,280.7Zm.6-2.29a5.93,5.93,0,0,0,3.42,0,8,8,0,0,0,2.92-1.68,11.67,11.67,0,0,0,2.25-2.69,12.49,12.49,0,0,0,1.37-3.06,12.26,12.26,0,0,0,.44-3.34,11.21,11.21,0,0,0-.56-3.47,8.21,8.21,0,0,0-1.73-3,6.67,6.67,0,0,0-6.61-1.75,8.09,8.09,0,0,0-3,1.73,10.83,10.83,0,0,0-2.2,2.74,11.72,11.72,0,0,0-1.27,3.12,12,12,0,0,0-.32,3.34,11.49,11.49,0,0,0,.62,3.45,8.13,8.13,0,0,0,1.71,2.9A6,6,0,0,0,409.68,278.41Z"/><path class="cls-3" d="M433.39,286a1.23,1.23,0,0,1-.81-1.55c.36-1.11.8-2.55,1.3-4.32a8.85,8.85,0,0,1-3.19,2.25,4.52,4.52,0,0,1-3,.17,4.38,4.38,0,0,1-2.6-2.24,9.8,9.8,0,0,1-.92-4.66,25.55,25.55,0,0,1,1.22-7,45.34,45.34,0,0,1,1.78-4.91,1.16,1.16,0,0,1,.61-.64,1.19,1.19,0,0,1,.89,0,1.43,1.43,0,0,1,.81.59,1,1,0,0,1,.12.89c-.31,1-.65,1.92-1,2.76s-.59,1.48-.79,2.16a23.84,23.84,0,0,0-1.09,5.54,10.22,10.22,0,0,0,.35,3.67,2.23,2.23,0,0,0,1.28,1.59,2.38,2.38,0,0,0,1.75-.28,8.13,8.13,0,0,0,2.67-2.23,16.71,16.71,0,0,0,2.06-3.31,30.7,30.7,0,0,0,1.49-3.72c.27-.85.47-1.59.61-2.22s.26-1.11.42-1.64a1,1,0,0,1,.61-.67,1.45,1.45,0,0,1,1,0,1.21,1.21,0,0,1,.71.56,1.17,1.17,0,0,1,.14.88,159.89,159.89,0,0,1-4.92,17.67,1.16,1.16,0,0,1-.61.71A1.21,1.21,0,0,1,433.39,286Z"/><path class="cls-1" d="M265.81,247.28c.64-.86,1.2-1.72,1.87-2.49a6.63,6.63,0,0,1,7.18-2.15,6.86,6.86,0,0,1,4,6.23,12,12,0,0,1-2.17,7c-1.55,2.36-3.26,4.61-4.81,7-1.45,2.19-1.37,2.17-3.72,1-2.67-1.36-5.43-2.54-8.07-3.95a10.62,10.62,0,0,1-5.32-5.69c-.88-2.43-.74-4.78,1.09-6.73s4.19-2.21,6.65-1.51A31.07,31.07,0,0,1,265.81,247.28ZM261.4,258a20.63,20.63,0,0,1-3.36-3,19,19,0,0,1-1.69-3.84C255.7,253.53,258.42,258,261.4,258Z"/><path class="cls-1" d="M458.53,274.86c1-.22,2-.5,3.05-.63a6.61,6.61,0,0,1,6.81,3.12,6.85,6.85,0,0,1-1.1,7.33A11.94,11.94,0,0,1,461,288.5c-2.72.76-5.49,1.32-8.22,2.06-2.53.69-2.46.73-3.43-1.72-1.11-2.78-2.4-5.49-3.45-8.29a10.59,10.59,0,0,1-.23-7.79c.94-2.4,2.6-4.08,5.26-4.33s4.6,1.11,6,3.26A32.29,32.29,0,0,1,458.53,274.86ZM448.13,280a20.62,20.62,0,0,1-.54-4.47,18.45,18.45,0,0,1,1.27-4C446.81,272.87,445.88,278.05,448.13,280Z"/><path class="cls-5" d="M130,214.89c-2.83-15.53-5.65-31.06-8.5-46.75L75,159.68v-.37l9.77-1.79,35.32-6.41c.85-.15,1.45-.35,1.66-1.54,2.36-13.44,4.83-26.87,7.28-40.29a38.53,38.53,0,0,1,1.26-5.28l3.6,19.71c1.55,8.57,3.13,17.14,4.62,25.73.25,1.48,1.22,1.58,2.31,1.77l23,4.19c7.29,1.33,14.59,2.63,21.9,4.2l-11.62,2.12q-16.78,3-33.58,6.07c-1.16.2-1.79.59-2,1.85q-4,22.63-8.15,45.26Z"/><path class="cls-5" d="M590.46,623.37c-2.83-15.53-5.65-31.06-8.5-46.75l-46.51-8.46c0-.12,0-.24,0-.37l9.78-1.79,35.32-6.41c.85-.15,1.45-.35,1.66-1.54,2.36-13.44,4.83-26.86,7.28-40.29a38.88,38.88,0,0,1,1.26-5.28l3.6,19.71c1.55,8.57,3.13,17.14,4.62,25.73.25,1.48,1.22,1.58,2.31,1.78l23,4.19c7.29,1.32,14.59,2.62,21.9,4.19l-11.62,2.12q-16.78,3-33.58,6.07c-1.16.2-1.8.59-2,1.85q-4,22.64-8.15,45.26Z"/><path class="cls-5" d="M104.77,301.22c-1.85-10.18-3.71-20.35-5.58-30.64L68.71,265v-.24l6.4-1.17,23.15-4.2c.57-.1.95-.23,1.09-1,1.55-8.81,3.17-17.61,4.78-26.41a25.16,25.16,0,0,1,.82-3.46q1.18,6.47,2.36,12.92c1,5.62,2,11.23,3,16.86.16,1,.8,1,1.51,1.17l15.06,2.74c4.78.87,9.56,1.73,14.35,2.75l-7.61,1.39q-11,2-22,4c-.75.13-1.17.38-1.32,1.21q-2.64,14.85-5.34,29.67Z"/><path class="cls-5" d="M628,522.31c-1.55-8.51-3.09-17-4.66-25.6l-25.46-4.64a1.34,1.34,0,0,1,0-.2l5.35-1,19.34-3.51c.47-.09.8-.19.91-.84,1.3-7.37,2.65-14.72,4-22.07a21.27,21.27,0,0,1,.69-2.89q1,5.4,2,10.79c.85,4.7,1.72,9.39,2.53,14.09.14.81.67.87,1.27,1l12.58,2.29c4,.73,8,1.44,12,2.3l-6.36,1.16c-6.13,1.11-12.26,2.23-18.39,3.32a1.13,1.13,0,0,0-1.11,1q-2.2,12.39-4.46,24.78Z"/></svg>