<svg id="Слой_1" data-name="Слой 1" xmlns="http://www.w3.org/2000/svg" viewBox="0 0 714 714"><defs><style>.cls-1{fill:#fff;}</style></defs><path class="cls-1" d="M206,451.33c1.55.05,3.09.14,4.63.29l.92.1c1.67.17-.48-.05-.68-.1.9.21,1.84.29,2.75.46a65.92,65.92,0,0,1,9,2.34c.61.2,4.21,1.11,4.35,1.63,0,0-2.2-1-.56-.22l.84.38c.84.39,1.68.8,2.5,1.23a68.07,68.07,0,0,1,7.95,4.78c.65.46,1.3,1.06,2,1.46,0,0-1.5-1.2-.7-.54l1,.78c1.28,1,2.51,2.14,3.7,3.28s2.2,2.17,3.24,3.32c.48.53,1,1.08,1.42,1.63l.6.71c.09.12,1.36,1.73.41.49s0,0,.23.32l.76,1.07c.44.62.86,1.24,1.28,1.88.94,1.43,1.82,2.9,2.66,4.4.73,1.3,1.41,2.62,2.07,4,.37.76.73,1.53,1.08,2.3.18.38.35.77.52,1.16.51,1.13,0,0-.2-.51,2.28,6.17,4.51,12.31,6.44,18.61,1.86,6.08,3.67,12.19,5.87,18.15a105.66,105.66,0,0,0,9.16,19.49A143.88,143.88,0,0,0,292,561.39c18.14,21.22,41.95,37.57,67.76,48,13.93,5.63,28.53,8.83,43.4,10.69,7.12.89,14.28,1.39,21.45,1.63a193.38,193.38,0,0,0,21.4-.15c14.42-1.12,29.74-5,40.25-15.61a47.28,47.28,0,0,0,13.43-32.84A38.89,38.89,0,0,0,481.6,540c-2.75-1.77-5.7-3.21-8.6-4.71-1.36-.7-2.72-1.4-4.05-2.16-.75-.43-1.5-.88-2.23-1.35a11.71,11.71,0,0,0-2.15-1.47c1.19.36,1.11.91.36.25l-1-.86c-.56-.49-1.12-1-1.66-1.52a40.8,40.8,0,0,1-3.24-3.46c-1.45-1.75.84,1.28,0,0-.38-.58-.78-1.14-1.15-1.73s-.59-1-.85-1.51c-.47-.89-.93-2.89-.14-.1-.28-1-.71-1.95-1-3a16,16,0,0,1-.33-1.68c.08,0,.22,2.29.2,1.47,0-.34-.06-.69-.07-1-.05-1,.05-2,.1-3.07,0-.8-.22,1.51-.21,1.5a4.58,4.58,0,0,0,.15-.8q.17-.8.39-1.59c.15-.52.32-1,.5-1.56,0-.1.27-.77.3-.77s-.94,2-.54,1.31c.54-1,1-2,1.6-3,.27-.43.54-.85.83-1.26.47-.69,1.87-2.06-.17.16.81-.89,1.54-1.84,2.38-2.7s1.54-1.51,2.35-2.22c.47-.42,1-.81,1.44-1.22.25-.21,1-.76-.21.16s-.12.1.19-.13a54.14,54.14,0,0,1,6.41-4c1-.55,2.05-1.06,3.11-1.55.3-.14.6-.26.9-.41,1.06-.5-2,.79-.89.37.62-.23,1.23-.49,1.85-.72a58.7,58.7,0,0,1,7.32-2.21c1.1-.25,2.21-.47,3.32-.66a5.88,5.88,0,0,1,.95-.14s-2.63.3-1.11.15l1.87-.18a76.68,76.68,0,0,1,8.84.05q11.83.51,23.62,1.6,5.81.53,11.58,1.22c1.93.22,3.85.46,5.78.71.31.05,2,.21.66.09s.08,0,.28,0l3.46.49c8,1.16,15.93,2.57,24,3.18,14.54,1.1,29.72-1.25,41.11-10.94,8.53-7.25,12.63-18.39,13.16-29.34,1.23-25-15.51-48.81-38.25-58.07a44.19,44.19,0,0,0-19.49-3.17c-4.93.35-9.71,4.11-9.47,9.48.21,4.83,4.18,9.84,9.47,9.47a37.15,37.15,0,0,1,4.22-.07c.77,0,1.62.22,2.38.19,0,0-2.09-.34-1-.14.49.09,1,.16,1.47.26a35.7,35.7,0,0,1,4,1c.76.23,1.52.5,2.27.78l.83.33c1.1.41-1.87-.9-.33-.12a55.53,55.53,0,0,1,7.84,4.61c.32.23.64.51,1,.73,0,0-1.49-1.22-.71-.54.53.47,1.1.91,1.64,1.38q1.84,1.62,3.54,3.41c1,1,1.91,2.13,2.83,3.23,1.15,1.37-.35-.47-.35-.47l.73,1c.47.66.94,1.32,1.38,2a51.14,51.14,0,0,1,3.42,6.08c.23.5.44,1,.68,1.5.5,1-.8-2-.41-1,.08.22.18.44.27.65.45,1.17.87,2.35,1.24,3.55a51.49,51.49,0,0,1,1.63,6.81c0,.23.06.46.1.69.23,1.15-.25-2.31-.15-1.14,0,.53.13,1.07.17,1.6.11,1.22.17,2.44.17,3.66,0,1.06,0,2.11-.1,3.17,0,.52-.11,1-.14,1.56-.07,1.16.38-2.33.16-1.19-.07.36-.11.73-.18,1.1a37.65,37.65,0,0,1-1.77,6.33c-.5,1.41,1.11-2.29.19-.46-.23.46-.44.92-.68,1.37a31,31,0,0,1-1.82,3c-.13.18-.27.36-.39.54-.6.94,1.43-1.69.68-.87-.35.38-.67.8-1,1.18a29.21,29.21,0,0,1-2.59,2.51c-.18.15-.37.29-.54.44-.82.77,1.77-1.22.81-.62-.46.29-.9.64-1.36.94a30.63,30.63,0,0,1-3.2,1.82c-.53.26-1.11.47-1.63.75,2.54-1.36.57-.26-.2,0a44,44,0,0,1-5.17,1.45c-.82.17-1.64.31-2.45.46-1.77.32.15,0,.4,0a9.92,9.92,0,0,1-1.42.15c-1.78.17-3.57.26-5.36.28a95.93,95.93,0,0,1-10.85-.56l-2.54-.28-1.45-.18c-1.17-.15-.5.35.34,0a7.92,7.92,0,0,1-2.54-.36l-2.89-.43c-8.15-1.23-16.31-2.4-24.5-3.32q-11.57-1.29-23.19-2c-6.38-.4-12.94-1.08-19.31-.44a66.73,66.73,0,0,0-31,11c-8.68,6-17.06,14.59-19,25.35a30,30,0,0,0,1.36,16.71,42.81,42.81,0,0,0,11.76,16.28c5.54,4.83,11.79,7.78,18.16,11.28,1.33.73,2.64,1.5,3.91,2.34l1.07.74c.81.54.3.77-.37-.29a10.78,10.78,0,0,0,1.67,1.47c.86.83,1.55,1.83,2.41,2.64-1.91-1.81-.54-.69,0,.11.37.55.71,1.12,1,1.69s.52,1,.79,1.54c1,1.91-.6-1.7-.09-.24a37.55,37.55,0,0,1,1.15,3.74c.14.55.24,1.11.35,1.68.41,2-.16-2,0-.34.12,1.32.21,2.63.2,4,0,1.16-.1,2.31-.19,3.47-.13,1.64.41-2.32,0-.29-.14.74-.27,1.47-.44,2.21-.26,1.14-.57,2.27-.93,3.38-.18.56-.38,1.11-.58,1.66l-.37.93c-.36,1,1.07-2.28.26-.65a51.32,51.32,0,0,1-3.78,6.45c-.89,1.28,1.53-1.77.1-.16-.38.43-.75.88-1.14,1.3a30.52,30.52,0,0,1-2.84,2.73c-.18.15-.38.3-.56.46-.84.78,1.74-1.16.75-.58-.59.34-1.13.8-1.7,1.17a45.62,45.62,0,0,1-4.62,2.61c-.33.16-2.61,1.16-1.27.62s.13-.06-.1,0l-1.23.47c-1.56.57-3.15,1.06-4.76,1.49s-3.24.81-4.88,1.12c-.77.14-1.54.28-2.32.4a8.62,8.62,0,0,0-1,.15c2.19-.62.88-.12.19,0-3.35.38-6.71.57-10.07.62-7.14.11-14.3,0-21.44-.46q-5.26-.3-10.52-.84a51.53,51.53,0,0,0-5.22-.61s1.88.26.79.1l-1.38-.2c-.93-.13-1.84-.27-2.76-.42a166.68,166.68,0,0,1-20.48-4.65q-5.12-1.51-10.13-3.4c-1.58-.59-3.14-1.23-4.7-1.86-1.27-.52,1.49.66.24.1l-1-.44-2.8-1.27a170.22,170.22,0,0,1-17.1-9.18q-4.19-2.56-8.22-5.36c-1.26-.87-2.5-1.76-3.74-2.66L329,570.39a12.94,12.94,0,0,0-1-.79c.48.3,1.3,1,.36.27a170.12,170.12,0,0,1-14.72-13q-3.47-3.47-6.71-7.14c-1.08-1.22-2.13-2.45-3.17-3.71-.48-.58-1-1.17-1.43-1.76l-.8-1c-.76-1,0-.09.29.38-1.63-2.74-3.86-5.21-5.6-7.89a77.29,77.29,0,0,1-4.71-8.37c-.64-1.33-1.16-2.74-1.85-4.05,1.24,2.37,0-.08-.25-.67-.31-.79-.62-1.58-.91-2.37-1.12-3-2.13-6-3.09-9-1.94-6.07-3.69-12.19-5.7-18.23-4.43-13.27-10.29-26-19.87-36.35a77.35,77.35,0,0,0-34.28-21.17A76.22,76.22,0,0,0,206,432.38c-5-.16-9.7,4.47-9.47,9.47A9.66,9.66,0,0,0,206,451.33Z"/><path d="M435.39,622.28c-3.66,0-7.28-.1-10.78-.22-7.71-.26-14.74-.79-21.48-1.63-16.55-2.07-30.77-5.57-43.49-10.71-26.76-10.81-50.24-27.45-67.9-48.1a145.35,145.35,0,0,1-12.91-17.25,105.91,105.91,0,0,1-9.19-19.55c-1.93-5.24-3.58-10.66-5.18-15.9l-.7-2.28c-2-6.38-4.19-12.52-6.31-18.27l-.12-.26c-.1-.23-.2-.46-.31-.69-.35-.76-.71-1.53-1.08-2.29-.66-1.36-1.35-2.68-2.06-3.94-.84-1.51-1.73-3-2.64-4.38-.42-.63-.84-1.26-1.28-1.87-.25-.36-.5-.71-.76-1.06l-.12-.17-.26-.32-.24-.31-.6-.71q-.69-.81-1.41-1.62c-1-1.12-2.1-2.23-3.22-3.3s-2.42-2.22-3.68-3.26l-.36-.3a11.55,11.55,0,0,1-1.15-.83c-.25-.19-.49-.38-.73-.55a68.25,68.25,0,0,0-7.91-4.76c-.81-.42-1.65-.83-2.49-1.22l-.84-.38c-.62-.29-.79-.37-.82-.51-.79-.27-1.78-.55-2.23-.68s-.57-.16-.7-.21a66.5,66.5,0,0,0-8.92-2.33c-.37-.07-.75-.12-1.13-.18s-.9-.13-1.36-.22l-.46,0c-1.45-.14-3-.24-4.61-.29a10,10,0,0,1-9.81-9.81A9.32,9.32,0,0,1,199,435a9.59,9.59,0,0,1,7-3,76.46,76.46,0,0,1,19.65,3.12,78.18,78.18,0,0,1,34.44,21.27c8.3,9,14.64,20.58,19.94,36.48,1.19,3.55,2.3,7.19,3.37,10.71.76,2.47,1.53,5,2.33,7.52,1.12,3.5,2.1,6.36,3.09,9,.29.79.59,1.58.91,2.36.09.25.4.89.59,1.27.07.13.12.25.16.34h0a.48.48,0,0,1,.06.21c.17.37.33.74.49,1.1.25.6.51,1.19.79,1.76a76.76,76.76,0,0,0,4.68,8.34c.77,1.18,1.65,2.34,2.51,3.47a49.52,49.52,0,0,1,3.06,4.37l.52.66c.48.59.95,1.18,1.43,1.76,1,1.24,2.09,2.49,3.16,3.7,2.13,2.41,4.38,4.8,6.69,7.12a167.53,167.53,0,0,0,14.39,12.75,4.16,4.16,0,0,1,.72.55l.26.21,1.84,1.37c1.22.89,2.47,1.78,3.73,2.65,2.67,1.86,5.43,3.65,8.2,5.35a171.13,171.13,0,0,0,17.07,9.16c.92.43,1.85.85,2.79,1.27l.42.18.59.26h0c1.5.61,3,1.2,4.43,1.75,3.29,1.24,6.69,2.38,10.1,3.39a164.69,164.69,0,0,0,20.43,4.64l2.76.43.63.09a22.83,22.83,0,0,1,3.28.35c.62.09,1.27.19,1.88.26,3.38.35,6.92.63,10.51.84,7.08.41,14.29.57,21.41.46a98.41,98.41,0,0,0,9.93-.61c1.17-.33,1.27-.34,1.4-.2.61-.1,1.21-.2,1.81-.32,1.67-.31,3.3-.68,4.86-1.1s3.23-1,4.73-1.49l.8-.3.19-.08.85-.39.73-.33a45.09,45.09,0,0,0,4.57-2.6c.24-.15.47-.32.7-.48s.54-.4.83-.58a30,30,0,0,0,2.76-2.66c.25-.26.48-.53.71-.8s.29-.33.43-.49h0A50.76,50.76,0,0,0,478.2,584l.12-.3c.2-.54.4-1.09.58-1.64.36-1.11.67-2.23.92-3.35.15-.67.28-1.35.4-2v-.1c.08-1,.17-2.13.17-3.2s0-2.22-.16-3.49v0l-.09-.43c-.08-.42-.16-.83-.26-1.24a36,36,0,0,0-1.05-3.46c-.1-.18-.19-.36-.28-.54s-.32-.63-.49-.94c-.32-.58-.66-1.14-1-1.68a5.15,5.15,0,0,0-.32-.41c-.56-.54-.7-.7-.71-.82l-.14-.17c-.38-.44-.76-.89-1.18-1.29a6.7,6.7,0,0,0-.59-.48,7.76,7.76,0,0,1-1-.92l-.15-.1-.55-.38c-1.12-.74-2.35-1.48-3.88-2.32l-3.31-1.79c-5.3-2.84-10.3-5.52-14.91-9.54a43.06,43.06,0,0,1-11.86-16.41,30.15,30.15,0,0,1-1.37-16.9c2.13-11.73,11.6-20.39,19.16-25.58a66.92,66.92,0,0,1,31.12-11.07,96.64,96.64,0,0,1,16.05.21l3.32.23c7.72.48,15.53,1.15,23.21,2,8.91,1,17.78,2.29,24.52,3.31l2.88.44a5.22,5.22,0,0,1,.65.14l.82.18a1.83,1.83,0,0,1,.72,0l1.45.18,2.54.28a92.83,92.83,0,0,0,10.8.56c1.86,0,3.65-.11,5.34-.28l.4,0h.18l.4-.07.4-.07c.68-.13,1.36-.25,2-.4a42.55,42.55,0,0,0,5.14-1.44,14,14,0,0,0,1.39-.64l.31-.16.05.08h0a33.43,33.43,0,0,0,3.17-1.8l.61-.43.48-.34a27.82,27.82,0,0,0,2.52-2.45c.17-.18.32-.36.48-.55l.26-.31a30.07,30.07,0,0,0,1.76-2.89c.14-.27.28-.54.41-.82l.19-.39a37.19,37.19,0,0,0,1.63-5.93l0-.17c0-.18,0-.37,0-.56s.05-.47.07-.7c.07-1,.11-2.08.1-3.14s-.06-2.41-.17-3.62c0-.27,0-.53-.08-.79l0-.28v-.06a51.52,51.52,0,0,0-1.61-6.77c-.37-1.17-.78-2.34-1.23-3.48-.08-.17-.15-.35-.23-.52s-.2-.45-.31-.68a52.3,52.3,0,0,0-3.39-6c-.44-.66-.9-1.32-1.37-2h0l0,0v0l0,0-.19-.29-.16-.19c-1-1.22-1.89-2.23-2.82-3.21-1.12-1.18-2.3-2.32-3.51-3.38-.27-.24-.55-.47-.83-.7l-.69-.58h0l-.36-.28a57,57,0,0,0-7.79-4.58l-.07,0-.4-.15c-.74-.28-1.5-.55-2.24-.78a36.83,36.83,0,0,0-4-1l-.6-.11a10,10,0,0,1-1.22-.1c-.32,0-.64-.08-.94-.09a37,37,0,0,0-4.17.07,8.35,8.35,0,0,1-6.24-2.22,11,11,0,0,1-3.61-7.59c-.26-5.71,4.78-9.49,9.8-9.84a44.78,44.78,0,0,1,19.64,3.19c23.49,9.57,39.67,34.14,38.47,58.41-.59,12.14-5.44,22.92-13.29,29.6-10.13,8.62-24,12.33-41.35,11-6.2-.47-12.44-1.43-18.47-2.35l-5.52-.83-3.3-.47-.16,0-.55-.06-.16,0h0l-.12,0h-.06c-1.92-.25-3.85-.49-5.77-.72-3.83-.45-7.72-.86-11.57-1.22-7.82-.72-15.76-1.26-23.6-1.59l-.66,0a67,67,0,0,0-8.14,0l-1.27.12-.3,0-.11,0c-1.08.18-2.19.4-3.3.65a58.12,58.12,0,0,0-7.27,2.2c-.32.11-.63.24-.94.36l-.36.15-.16.07-.39.17c-1,.48-2.08,1-3.09,1.54a54.48,54.48,0,0,0-6.37,4l-.08.06-.37.31-.94.79c-.81.72-1.6,1.46-2.33,2.21-.43.44-.84.92-1.24,1.39a8.57,8.57,0,0,1-.86,1l-.07.1c-.29.41-.56.82-.82,1.25-.37.6-.7,1.24-1,1.86-.13.26-.26.52-.4.78-.15.42-.29.85-.4,1.27s-.26.95-.36,1.43v.17a21.18,21.18,0,0,0-.05,2.25c0,.14,0,.29,0,.43v.09c.06.3.13.57.15.66.11.46.26.91.41,1.36.09.08.16.29.33.87a5.39,5.39,0,0,0,.32.77c.26.49.54,1,.84,1.48s.48.75.73,1.12l.41.6v0a39,39,0,0,0,3.21,3.42c.53.51,1.09,1,1.64,1.5l.48.41.23.19a1.94,1.94,0,0,1,.9.56l.46.37a8.09,8.09,0,0,0,.7.53c.67.43,1.39.86,2.22,1.33,1.37.79,2.8,1.53,4,2.16l1.22.63a82.9,82.9,0,0,1,7.41,4.1,39.17,39.17,0,0,1,18.27,33.45,47.87,47.87,0,0,1-13.54,33.09c-9,9-22.62,14.33-40.47,15.71C442.51,622.18,438.93,622.28,435.39,622.28ZM258.43,489c2,5.5,4.14,11.35,6,17.43l.7,2.28c1.6,5.23,3.25,10.64,5.17,15.85A104.62,104.62,0,0,0,279.43,544a143.78,143.78,0,0,0,12.84,17.16c17.59,20.57,41,37.14,67.63,47.91,12.66,5.11,26.83,8.6,43.31,10.66,6.73.84,13.73,1.37,21.42,1.63a195.81,195.81,0,0,0,21.37-.15c17.68-1.37,31.14-6.58,40-15.51a47.05,47.05,0,0,0,13.33-32.59,38.48,38.48,0,0,0-17.94-32.86,81.33,81.33,0,0,0-7.35-4.07l-1.22-.63c-1.24-.63-2.68-1.38-4.06-2.17-.83-.47-1.57-.91-2.25-1.35-.24-.15-.49-.36-.76-.57l-.35-.29a1.23,1.23,0,0,1-.72-.4l-.2-.16,0,0h0l-.3-.26c-.17-.13-.33-.27-.49-.41-.56-.49-1.12-1-1.67-1.52-1.05-1-2-2-2.9-3.06-.18-.05-.37-.3-.7-.74a1,1,0,0,1-.25-.55c-.21-.31-.42-.63-.62-.95-.3-.5-.6-1-.87-1.53l-.09-.18-.07,0c-.12-.44-.27-.87-.42-1.29s-.35-1-.48-1.49c-.18-.07-.2-.31-.25-.81,0-.1,0-.24,0-.39-.17-.81-.15-1,0-1.07s0-.4,0-.59h0c-.27-.28.15-2.09.16-2.1l.14-.23h0c0-.14.07-.28.11-.41l.18-.61c-.07-.15,0-.36.17-.65l.21-.44c.24-.69.3-.86.5-.89.26-.5.54-1,.84-1.5s.48-.76.74-1.13l0,0c.09-.09.17-.19.25-.28a5.77,5.77,0,0,1,.74-.85l0,0c.44-.52.89-1.05,1.38-1.55.74-.76,1.54-1.52,2.37-2.25l.49-.42a.89.89,0,0,1,.17-.18h0l.12-.08c.11-.1.27-.22.48-.38l.34-.27a1.37,1.37,0,0,1,.49-.32,54,54,0,0,1,5.81-3.57c.89-.48,1.81-.94,2.73-1.37a2,2,0,0,1,.73-.4,4.84,4.84,0,0,1,1-.35l.54-.21a58.34,58.34,0,0,1,7.36-2.22c.85-.2,1.7-.37,2.54-.52a4.59,4.59,0,0,1,1.64-.29h.18v0l.72-.06a68.42,68.42,0,0,1,8.23,0l.66,0c7.86.33,15.81.87,23.63,1.6,3.86.35,7.75.76,11.59,1.22q2.89.33,5.78.72l.7.07.37.05h0l.16,0,3.13.44,5.53.84c6,.92,12.24,1.87,18.41,2.34,17.11,1.29,30.86-2.36,40.85-10.85,7.7-6.56,12.46-17.16,13-29.1,1.18-24-14.81-48.27-38-57.73a44.17,44.17,0,0,0-19.33-3.14c-4.69.33-9.39,3.83-9.15,9.11a10.32,10.32,0,0,0,3.38,7.1,7.76,7.76,0,0,0,5.72,2,36.12,36.12,0,0,1,4.25-.07l.72.06v-.1l.35,0a4.24,4.24,0,0,1,1.48.26l.31.06a41.38,41.38,0,0,1,4.08,1c.7.22,1.42.47,2.12.73a1.82,1.82,0,0,1,.76.24c.4.17.64.28.71.43a56.07,56.07,0,0,1,6.86,4.07l0,0,.31.23c.68.5,1,.72,1,.9l.81.68c1.23,1.08,2.43,2.23,3.56,3.43.8.84,1.55,1.7,2.39,2.69a1.31,1.31,0,0,1,.27.22,5.56,5.56,0,0,1,.69.95l0,.11c.43.6.85,1.21,1.24,1.82a52.31,52.31,0,0,1,3.45,6.12l0,.13c.14.09.25.35.46.85a2.63,2.63,0,0,1,.32,1c.35.93.67,1.87,1,2.81a53.07,53.07,0,0,1,1.47,5.94,2.13,2.13,0,0,1,.23.91,2.81,2.81,0,0,1,.06,1.2c.11,1.24.17,2.48.17,3.68,0,1,0,2.06-.09,3.07.1.14.07.41,0,.88-.1.84-.14,1.19-.29,1.31a37.44,37.44,0,0,1-1.22,4.54c.11.16,0,.43-.21.91s-.38.87-.56.94l-.2.39c-.41.77-.85,1.51-1.32,2.23.05.2-.14.44-.52.93s-.58.75-.78.76c-.62.68-1.28,1.34-2,2,0,.21-.27.41-.76.78s-.68.52-.87.48l-.12.07a31,31,0,0,1-3.24,1.85l-.71.32c-.31.14-.61.27-.9.42l0-.06-.22.09a45.28,45.28,0,0,1-5.22,1.46c-.68.15-1.36.27-2,.39v0a3.49,3.49,0,0,1-1.36.15h-.12c-1.7.17-3.52.26-5.39.28a94.31,94.31,0,0,1-10.89-.56l-2.54-.28-1-.13a1.46,1.46,0,0,1-1.22-.06c-.25,0-.53-.11-.83-.18s-.45-.11-.59-.13l-2.89-.43c-6.73-1-15.59-2.32-24.49-3.32-7.67-.86-15.47-1.53-23.18-2l-3.32-.23a95.23,95.23,0,0,0-15.93-.21A66.15,66.15,0,0,0,456.61,485c-7.45,5.11-16.78,13.63-18.87,25.13a29.51,29.51,0,0,0,1.33,16.51,42.43,42.43,0,0,0,11.67,16.14c4.55,4,9.52,6.63,14.78,9.45,1.1.59,2.21,1.18,3.32,1.79,1.54.85,2.8,1.6,3.93,2.36l.56.38.24.17h0l.25.18a1.29,1.29,0,0,1,.56.58l.13.1c.24.19.47.36.66.54a17,17,0,0,1,1.22,1.34l.55.63.19.21c.14.15.28.3.43.44l0,0-.05,0,.09.12c.36.55.71,1.13,1,1.71.14.25.27.51.4.76.2,0,.33.35.56.88s.28.67.16.84c.3.91.56,1.75.78,2.64l.15.71c.16.1.2.37.27.85s.13.86,0,1c.07,1,.11,1.88.11,2.8s-.06,1.57-.11,2.34c.11.14.08.4,0,.81-.08.59-.12.9-.26,1-.08.43-.17.86-.26,1.29-.26,1.14-.58,2.29-.95,3.42-.13.42-.28.83-.43,1.25.05.16-.05.41-.22.79-.28.66-.41,1-.59,1-.85,1.62-1.72,3.11-2.64,4.51.05.19-.13.4-.38.73s-.52.66-.71.69l-.61.69c-.74.8-1.52,1.57-2.32,2.28,0,.23-.3.44-.81.82s-.59.44-.79.39l-.5.34a46.64,46.64,0,0,1-4.65,2.64l-.54.24a.63.63,0,0,1-.21.15h0l-.16.06-.39.16a4.67,4.67,0,0,1-.44.17l-.09,0-.81.31c-1.52.55-3.13,1.06-4.78,1.5s-3.23.8-4.92,1.12c-.77.15-1.55.28-2.32.4l-.36.05h-.11l-.36.06h0l-.1,0h0a99.6,99.6,0,0,1-10,.61c-7.16.11-14.38,0-21.47-.46-3.61-.21-7.15-.49-10.54-.84-.63-.07-1.28-.17-1.92-.27s-1.25-.19-1.88-.26a.44.44,0,0,1-.31.06h0l-.14,0-.36-.05-.6-.08h0l-.62-.09-2.76-.43a166.14,166.14,0,0,1-20.52-4.65c-3.43-1-6.84-2.17-10.15-3.41-1.34-.5-2.67-1-4-1.59a4.4,4.4,0,0,1-.69-.26,2.29,2.29,0,0,1-.42-.22l-.33-.14-2.81-1.27a173.68,173.68,0,0,1-17.14-9.2c-2.78-1.7-5.55-3.51-8.23-5.37-1.26-.88-2.52-1.77-3.74-2.67l-1.85-1.37-.22-.17c-.11-.07-.24-.18-.47-.35l-.27-.22,0,0h0a168.38,168.38,0,0,1-14.42-12.8c-2.33-2.32-4.59-4.72-6.72-7.14-1.08-1.22-2.15-2.48-3.18-3.72L302,544.46l-.54-.68h0l-.25-.32c-.35-.44-.44-.55-.4-.71-.74-1.13-1.58-2.24-2.39-3.32s-1.75-2.31-2.54-3.51a76.38,76.38,0,0,1-4.72-8.41c-.29-.59-.55-1.19-.81-1.79-.32-.75-.66-1.52-1-2.25l0,0c-.13-.27-.25-.53-.31-.68-.31-.79-.61-1.58-.91-2.37-1-2.65-2-5.52-3.1-9-.8-2.5-1.58-5-2.33-7.52-1.07-3.52-2.18-7.16-3.36-10.7-5.28-15.8-11.57-27.31-19.8-36.22a77.39,77.39,0,0,0-34.12-21.07,75.21,75.21,0,0,0-19.47-3.1,8.88,8.88,0,0,0-6.5,2.77,8.63,8.63,0,0,0-2.61,6.34A9.33,9.33,0,0,0,206,451c1.67,0,3.19.15,4.66.29l.28,0v0h0l1,.13.17,0h0a.53.53,0,0,1,.24.1h.08c.39.05.78.11,1.16.18a66.37,66.37,0,0,1,9,2.36l.68.2c2.62.74,3.58,1.12,3.84,1.54l.15.07c.85.39,1.69.8,2.51,1.22a70.22,70.22,0,0,1,8,4.81c.25.18.5.38.76.58l0-.05.29.2a5.37,5.37,0,0,1,1,.84l.18.15c1.27,1,2.52,2.15,3.72,3.29s2.22,2.21,3.25,3.34c.48.54,1,1.09,1.43,1.64l.55.66.1.1h0l.06.09.3.38.3.4,0,0h0l0,.09c.21.28.41.57.62.86.44.63.86,1.26,1.28,1.89.92,1.41,1.82,2.9,2.68,4.43.7,1.27,1.4,2.6,2.07,4,.38.77.74,1.54,1.09,2.31l.3.68h0c.08.21.22.53.31.75l0,0,.08.18h0A.49.49,0,0,1,258.43,489Z"/><path class="cls-1" d="M381.69,192.68l215.75,31.89c13,1.92,18.88,9.76,17,22.69Q595.53,375,576.63,502.77c-1.84,12.48-9.8,18.37-22.39,16.52-17.25-2.53-34.48-5.14-51.74-7.59-2.45-.35-3.6-1.06-4-3.72-2.94-20.13-6.12-40.22-9.08-60.34-.32-2.17-1.17-2.86-3.26-3.17Q347.5,424,208.83,403.46c-2.39-.35-3.22.46-4.16,2.45-8.56,18.18-17.28,36.3-25.85,54.48-1.11,2.34-2.29,3.17-5,2.74-17.34-2.71-34.72-5.19-52.08-7.78-12.07-1.8-18.13-9.92-16.36-21.89q18.9-127.92,37.82-255.85c1.91-13,9.71-18.75,22.8-16.82Zm-30.92,209,187.9,27.78c3.52.52,7,1.12,10.56,1.53,6.95.81,12-3,13-9.85q12-81.21,23.9-162.45a14.23,14.23,0,0,0-1.72-8c-1.85-3.61-5.59-4.67-9.52-5.26q-196.37-29-392.7-58c-.71-.11-1.41-.22-2.12-.31-7.38-.86-12.39,2.89-13.46,10.16q-12,80.69-23.85,161.39a15,15,0,0,0-.12,4.17c.78,5.56,4.5,8.7,11.38,9.72ZM558,508.75a7.88,7.88,0,1,0,2.51-15.56A7.88,7.88,0,1,0,558,508.75ZM114.86,435.31a7.84,7.84,0,1,0,8.89-6.68A7.94,7.94,0,0,0,114.86,435.31ZM605.2,244.89a8,8,0,0,0-15.76-2.37,8,8,0,0,0,15.76,2.37ZM152.92,177.94a7.83,7.83,0,1,0,15.5,2.27,7.84,7.84,0,0,0-15.5-2.27Z"/><path d="M558.62,520a30.12,30.12,0,0,1-4.43-.34q-8.84-1.29-17.66-2.61c-11.17-1.66-22.72-3.37-34.08-5-2.45-.35-3.86-1.09-4.29-4-1.56-10.71-3.22-21.59-4.82-32.11-1.41-9.25-2.87-18.81-4.26-28.22-.29-1.94-.95-2.58-3-2.88-99.62-14.68-190.34-28.09-277.34-41-2.17-.32-2.88.31-3.79,2.24-4.43,9.41-9,18.95-13.37,28.18-4.1,8.62-8.35,17.53-12.49,26.31-1.22,2.6-2.64,3.37-5.42,2.94-11.72-1.84-23.65-3.59-35.2-5.29q-8.43-1.24-16.87-2.49c-12.22-1.82-18.45-10.16-16.65-22.29q18.9-127.92,37.81-255.86c1.94-13.14,10-19.06,23.2-17.11L325.47,184l272,40.21c6.57,1,11.39,3.45,14.31,7.36s3.92,9.2,3,15.73L577,502.82C575.32,514,568.87,520,558.62,520ZM207.86,403a8,8,0,0,1,1,.08c87,12.92,177.71,26.34,277.33,41,2.33.35,3.22,1.22,3.55,3.47,1.39,9.42,2.85,19,4.26,28.23,1.6,10.52,3.26,21.4,4.83,32.11.37,2.53,1.43,3.1,3.69,3.42,11.37,1.62,22.91,3.33,34.08,5q8.83,1.32,17.66,2.61c12.36,1.82,20.18-4,22-16.22Q595.18,375,614.06,247.21c.94-6.34,0-11.46-2.82-15.21s-7.47-6.14-13.85-7.09l-272-40.21L165.89,161.14c-12.78-1.89-20.52,3.82-22.4,16.52q-18.9,127.92-37.81,255.85c-1.75,11.88,4.1,19.71,16.06,21.49l16.87,2.5c11.55,1.69,23.49,3.45,35.21,5.28,2.49.39,3.58-.2,4.68-2.54,4.14-8.78,8.38-17.69,12.49-26.31,4.39-9.23,8.94-18.77,13.36-28.17C205.18,404,206,403,207.86,403ZM559.3,509.22a8.31,8.31,0,0,1-8.22-9.57,8.2,8.2,0,0,1,3.31-5.27,8.31,8.31,0,0,1,6.12-1.54,8.41,8.41,0,0,1,7,9.29,8.35,8.35,0,0,1-8.22,7.09Zm-1.29-.81a7.65,7.65,0,0,0,8.82-6.38,7.58,7.58,0,0,0-12-7.08,7.48,7.48,0,0,0-3,4.81A7.72,7.72,0,0,0,558,508.41ZM122.62,444.67a7.91,7.91,0,0,1-1.18-.09,8.23,8.23,0,0,1,2.36-16.29,8.08,8.08,0,0,1,5.37,3.24,8.21,8.21,0,0,1-6.55,13.14Zm.07-15.76a7.64,7.64,0,0,0-7.48,6.45A7.49,7.49,0,1,0,130,437.51,7.6,7.6,0,0,0,123.7,429,6.86,6.86,0,0,0,122.69,428.91ZM551,431.43a16.61,16.61,0,0,1-1.83-.11c-2.46-.29-5-.67-7.36-1.05l-3.21-.49-230.26-34L154,372.93c-7.06-1.05-10.88-4.32-11.67-10a14.89,14.89,0,0,1,.11-4.27c7.36-49.94,15.16-102.74,23.85-161.4,1.1-7.42,6.27-11.33,13.85-10.44.53.06,1.06.14,1.58.22l.55.08L235.4,195C346.7,211.4,461.79,228.42,575,245.12c3.93.58,7.84,1.64,9.78,5.44a14.5,14.5,0,0,1,1.76,8.16c-7.54,52.08-15.39,105-23,156.19l-.93,6.26C561.68,427.55,557.21,431.43,551,431.43Zm-373-244.06c-6.12,0-10.11,3.55-11.06,10C158.32,256,150.52,308.8,143.16,358.74a14.29,14.29,0,0,0-.12,4.07c.74,5.35,4.37,8.43,11.08,9.42l154.34,22.82,230.27,34,3.21.49c2.4.37,4.88.76,7.33,1,6.81.79,11.67-2.87,12.66-9.55l.93-6.26c7.59-51.19,15.43-104.11,23-156.19a13.75,13.75,0,0,0-1.68-7.74c-1.8-3.52-5.51-4.51-9.26-5.07-113.2-16.7-228.29-33.71-339.59-50.17l-53.66-7.93c-.52-.08-1-.16-1.56-.22A17.76,17.76,0,0,0,178.06,187.37Zm419.25,64.45a8.08,8.08,0,0,1-1.2-.09,8.37,8.37,0,0,1-5.46-3.33,8,8,0,0,1-1.55-5.93,7.84,7.84,0,0,1,3.17-5.17,8.42,8.42,0,0,1,6.25-1.54,8.22,8.22,0,0,1,7,9.19A8.31,8.31,0,0,1,597.31,251.82Zm0-15.46a7.82,7.82,0,0,0-4.58,1.5,7.16,7.16,0,0,0-2.9,4.71,7.32,7.32,0,0,0,1.43,5.41,7.59,7.59,0,0,0,13.63-3.14l.35,0-.35,0a7.52,7.52,0,0,0-6.43-8.39A7.43,7.43,0,0,0,597.27,236.36ZM160.58,187.28a6.91,6.91,0,0,1-1.11-.08,8.26,8.26,0,0,1-6.89-9.32l.34.06-.34-.06a7.83,7.83,0,0,1,3.18-5.2,8.22,8.22,0,0,1,6.23-1.44,8,8,0,0,1,3.6,14.34A8.34,8.34,0,0,1,160.58,187.28Zm0-15.46a7.5,7.5,0,0,0-4.42,1.43,7.17,7.17,0,0,0-2.9,4.74,7.56,7.56,0,0,0,6.3,8.52,7.56,7.56,0,0,0,5.59-1.49,7.28,7.28,0,0,0-3.28-13.09A8,8,0,0,0,160.59,171.82Z"/><path class="cls-1" d="M579.3,263.19a14.32,14.32,0,0,0-1.68-7.94c-1.81-3.61-5.5-4.67-9.38-5.24q-193.68-28.57-387.35-57.23c-.69-.1-1.38-.21-2.08-.3-7.28-.84-12.23,2.91-13.31,10.18q-11.94,80.7-23.84,161.4a14.9,14.9,0,0,0-.13,4.16c.75,5.56,4.42,8.7,11.21,9.7l194,28.68L532.09,434c3.48.51,6.94,1.11,10.42,1.51,6.85.8,11.88-3,12.89-9.87Q567.44,344.43,579.3,263.19Z"/><path d="M544.24,436a15.56,15.56,0,0,1-1.77-.11c-2.43-.28-4.89-.66-7.27-1l-3.16-.49-223.37-33-156-23.06c-7-1-10.73-4.3-11.51-10a15.28,15.28,0,0,1,.13-4.26c7.36-49.95,15.16-102.74,23.85-161.4,1.09-7.43,6.22-11.34,13.69-10.47.52.06,1,.13,1.55.21l.54.09,52.87,7.81c109.62,16.2,223,33,334.48,49.41,3.88.57,7.74,1.63,9.65,5.43a14.73,14.73,0,0,1,1.71,8.15c-7.54,52.07-15.38,105-23,156.16l-.93,6.29C554.8,432.08,550.37,436,544.24,436ZM176.8,192.72c-6.05,0-10,3.56-11,10-8.69,58.66-16.49,111.46-23.85,161.4a14.28,14.28,0,0,0-.12,4.07c.72,5.34,4.29,8.41,10.91,9.39l156,23.06,223.38,33,3.16.48c2.37.37,4.82.75,7.24,1,6.72.78,11.51-2.89,12.51-9.57l.93-6.29c7.58-51.18,15.42-104.09,23-156.16l.34.05-.34-.05a14,14,0,0,0-1.65-7.74c-1.77-3.51-5.43-4.5-9.12-5-111.5-16.45-224.86-33.21-334.48-49.42l-53.42-7.89c-.5-.08-1-.16-1.52-.22A16.84,16.84,0,0,0,176.8,192.72Z"/><path class="cls-1" d="M220.42,439.92c7.7,1.07,13.21,6.95,12.34,13.19-.83,6-7.68,10.14-15.14,9.23s-13.43-7-12.64-13.11S212.75,438.85,220.42,439.92Z"/><path d="M219.7,462.82a16.87,16.87,0,0,1-2.12-.13A16.11,16.11,0,0,1,207,456.84a9.8,9.8,0,0,1,1.8-14.48,15.81,15.81,0,0,1,11.71-2.79,16.11,16.11,0,0,1,9.59,4.77,10.69,10.69,0,0,1,3.05,8.82C232.33,458.78,226.52,462.82,219.7,462.82ZM218,440.1a14.63,14.63,0,0,0-8.85,2.82,9.1,9.1,0,0,0-1.67,13.49A15.4,15.4,0,0,0,217.66,462c7.2.88,14-3.21,14.75-8.92a10,10,0,0,0-2.86-8.25,15.44,15.44,0,0,0-9.18-4.56A18.4,18.4,0,0,0,218,440.1Z"/><path class="cls-1" d="M476.35,489.25c-.92,5.94-7.88,10.09-15.26,9.08-7.55-1-13.28-7.13-12.39-13.21s7.84-10.28,15.51-9.17S477.31,483.08,476.35,489.25Z"/><path d="M463.28,498.83a16.82,16.82,0,0,1-2.23-.15,16,16,0,0,1-10.52-5.94,10.31,10.31,0,0,1-2.18-7.67c.93-6.36,8.07-10.6,15.91-9.46a15.64,15.64,0,0,1,10.36,5.9,10.45,10.45,0,0,1,2.08,7.79C475.85,494.8,470,498.83,463.28,498.83Zm-1.56-22.71c-6.45,0-11.89,3.74-12.67,9.06a9.58,9.58,0,0,0,2,7.13A15.3,15.3,0,0,0,461.14,498c7.17,1,14-3.05,14.87-8.79a9.75,9.75,0,0,0-2-7.27,14.91,14.91,0,0,0-9.89-5.63A16.9,16.9,0,0,0,461.72,476.12Z"/><path class="cls-1" d="M516.18,517.93c-3.88-20.87-7.83-41.73-11.58-62.62-.48-2.67-2.22-2.81-4.38-3.13Q347.11,429.58,194,406.86c-3.22-.48-4.46.42-5.65,2.78-6.85,13.58-13.83,27.1-20.8,40.63-2.72,5.27-5.52,10.51-8.41,16L516,519A5,5,0,0,0,516.18,517.93ZM272.3,436.51h0Zm-54.16,25.91c-6.85-.82-12.14-6.85-11.35-12.92S214,439,221,440s11.95,6.77,11.08,13C231.23,459,224.93,463.23,218.14,462.42Zm50.52-3.68.35.05-.33,0Zm192.93,39.67c-6.89-.93-12.06-7-11.17-13S457.73,475,464.73,476s11.88,6.94,10.93,13.12C474.74,495.09,468.32,499.31,461.59,498.41Z"/><path d="M516.32,519.43l-.35,0L158.64,466.56l.23-.44c.91-1.75,1.82-3.47,2.73-5.18,2-3.72,3.82-7.24,5.68-10.84l2.1-4.08c6.17-12,12.54-24.33,18.69-36.53,1.18-2.34,2.49-3.5,6-3,103.3,15.37,206.44,30.6,306.18,45.33l.27,0c2,.29,3.9.56,4.41,3.37,2.74,15.29,5.64,30.81,8.45,45.83q1.56,8.39,3.12,16.78a1.62,1.62,0,0,1,0,.68c0,.14-.06.32-.1.54ZM159.72,466l356,52.62c0-.08,0-.16,0-.23a1.21,1.21,0,0,0,.05-.41q-1.55-8.39-3.12-16.78c-2.81-15-5.71-30.55-8.45-45.83-.42-2.31-1.77-2.51-3.82-2.81l-.27,0c-99.75-14.73-202.88-30-306.18-45.32-3.17-.47-4.19.42-5.29,2.59C182.55,422,176.17,434.38,170,446.34l-2.11,4.09c-1.85,3.6-3.71,7.12-5.68,10.84Q161,463.61,159.72,466ZM463.4,498.88a14.76,14.76,0,0,1-1.86-.12,13.94,13.94,0,0,1-9.23-5.35,10.77,10.77,0,0,1-2.23-8.08c.93-6.36,7.53-10.69,14.7-9.65a13.79,13.79,0,0,1,9.09,5.32,10.94,10.94,0,0,1,2.14,8.2C475.15,494.76,469.59,498.88,463.4,498.88Zm-.76-22.65c-6,0-11.08,3.82-11.87,9.2a10.12,10.12,0,0,0,2.1,7.56,13.22,13.22,0,0,0,8.77,5.07c6.52.88,12.79-3.23,13.67-9a10.23,10.23,0,0,0-2-7.67,13.05,13.05,0,0,0-8.63-5A14.21,14.21,0,0,0,462.64,476.23Zm-242.8-13.36a14.74,14.74,0,0,1-1.74-.1,13.92,13.92,0,0,1-9.27-5.22,10.94,10.94,0,0,1-2.39-8.1,10.83,10.83,0,0,1,4.31-7.21,14.19,14.19,0,0,1,19.45,2.62,11,11,0,0,1,2.21,8.2C231.62,458.74,226.16,462.87,219.84,462.87Zm-1.65-.8c6.65.8,12.72-3.29,13.53-9.11a10.37,10.37,0,0,0-2.08-7.68,13.51,13.51,0,0,0-18.46-2.49,9.8,9.8,0,0,0-1.79,14.33A13.2,13.2,0,0,0,218.19,462.07ZM269,459.13h-.14l-.2,0h0l.1-.7h0l.16,0,.17,0Zm3.29-22.27h-.06l.08-.7.08,0Z"/><path class="cls-1" d="M377.68,197.62l212.8,31.45c12.83,1.9,18.6,9.73,16.69,22.65L569.4,507.23c-1.85,12.48-9.71,18.39-22.12,16.57-17-2.5-34-5.07-51-7.49-2.42-.35-3.55-1-3.93-3.71-2.86-20.12-5.95-40.19-8.84-60.3-.31-2.18-1.15-2.86-3.21-3.17Q343.48,429,206.71,408.68c-2.36-.35-3.19.47-4.11,2.45-8.48,18.2-17.13,36.33-25.62,54.52-1.09,2.34-2.26,3.18-5,2.75-17.11-2.67-34.25-5.12-51.37-7.67-11.91-1.78-17.87-9.88-16.1-21.85Q123.43,310.94,142.35,183c1.91-13,9.62-18.76,22.52-16.85Q271.28,181.88,377.68,197.62Zm-30.93,209L532.09,434c3.48.51,6.94,1.11,10.42,1.51,6.85.8,11.88-3,12.89-9.87q12-81.21,23.9-162.45a14.32,14.32,0,0,0-1.68-7.94c-1.81-3.61-5.5-4.67-9.38-5.24q-193.68-28.57-387.35-57.23c-.69-.1-1.38-.21-2.08-.3-7.28-.84-12.23,2.91-13.31,10.18q-11.94,80.7-23.84,161.4a14.9,14.9,0,0,0-.13,4.16c.75,5.56,4.42,8.7,11.21,9.7ZM551,513.25a7.88,7.88,0,1,0,2.51-15.56A7.88,7.88,0,0,0,551,513.25Zm-437-72.54a7.74,7.74,0,1,0,8.79-6.69A7.89,7.89,0,0,0,113.93,440.71ZM598.09,249.38A7.86,7.86,0,0,0,582.55,247a7.86,7.86,0,0,0,15.54,2.35Zm-446.1-66a7.73,7.73,0,1,0,15.29,2.23A7.73,7.73,0,0,0,152,183.34Z"/><path d="M551.55,524.47a29.79,29.79,0,0,1-4.32-.33l-17.43-2.57c-11-1.63-22.4-3.32-33.61-4.92-2.42-.34-3.81-1.08-4.23-4-1.52-10.7-3.13-21.56-4.69-32.07-1.38-9.25-2.8-18.82-4.15-28.23-.28-1.93-.93-2.58-2.91-2.87C381.94,435,292.46,421.77,206.66,409c-2.14-.32-2.84.31-3.74,2.25-4.39,9.42-8.9,19-13.25,28.21-4.07,8.62-8.27,17.53-12.37,26.31-1.22,2.61-2.62,3.37-5.36,2.95-11.56-1.81-23.33-3.54-34.71-5.21l-16.65-2.46c-12.06-1.8-18.19-10.12-16.4-22.25Q122.87,312.4,141.55,186l.45-3c1.94-13.15,9.86-19.08,22.92-17.15l157.41,23.26,268.2,39.65c13.06,1.93,18.93,9.9,17,23.05l-37.77,255.5C568.09,518.49,561.69,524.47,551.55,524.47ZM205.76,408.25a6.17,6.17,0,0,1,1,.09c85.8,12.74,175.28,26,273.56,40.45,2.29.33,3.17,1.21,3.5,3.46,1.35,9.41,2.77,19,4.14,28.23,1.56,10.51,3.18,21.37,4.7,32.07.36,2.52,1.41,3.09,3.63,3.41,11.21,1.59,22.6,3.28,33.61,4.91l17.43,2.58a29.12,29.12,0,0,0,4.16.32c9.79,0,16-5.77,17.56-16.59Q588,379.42,606.83,251.67c1.87-12.69-3.8-20.39-16.4-22.25L322.22,189.77l-157.4-23.26c-12.6-1.86-20.25,3.87-22.13,16.56l-.44,3Q123.56,312.5,104.88,438.93c-1.76,11.87,4,19.69,15.8,21.45l16.65,2.46c11.38,1.68,23.16,3.41,34.72,5.21,2.44.39,3.52-.21,4.61-2.54,4.1-8.79,8.31-17.7,12.37-26.32,4.36-9.24,8.86-18.79,13.25-28.2C203.1,409.22,203.92,408.25,205.76,408.25ZM552.27,513.72a8,8,0,0,1-1.38-.12,8.37,8.37,0,0,1-6.7-9.43,8.37,8.37,0,0,1,9.33-6.83,8.35,8.35,0,0,1,6.9,9.27,8.25,8.25,0,0,1-3.36,5.53A8.09,8.09,0,0,1,552.27,513.72Zm-1.26-.81a7.4,7.4,0,0,0,5.64-1.34A7.5,7.5,0,0,0,553.41,498a7.41,7.41,0,0,0-5.48,1.39,7.54,7.54,0,0,0-3,4.85A7.66,7.66,0,0,0,551,512.91ZM121.55,450.05a9,9,0,0,1-1.15-.08,8.24,8.24,0,0,1,2.37-16.3,7.91,7.91,0,0,1,5.25,3.18,8.25,8.25,0,0,1-6.47,13.2Zm.13-15.76a7.6,7.6,0,0,0-7.4,6.47h0a7.38,7.38,0,1,0,13.18-3.49,7.28,7.28,0,0,0-4.79-2.91A8.24,8.24,0,0,0,121.68,434.29ZM544.24,436a15.56,15.56,0,0,1-1.77-.11c-2.43-.28-4.89-.66-7.27-1l-3.16-.49-223.37-33-156-23.06c-7-1-10.73-4.3-11.51-10a15.28,15.28,0,0,1,.13-4.26c7.36-49.95,15.16-102.74,23.84-161.4,1.1-7.43,6.22-11.34,13.7-10.47.52.06,1,.13,1.55.21l.54.09,52.39,7.74c109.79,16.23,223.31,33,335,49.48,3.88.57,7.74,1.63,9.65,5.43a14.73,14.73,0,0,1,1.71,8.15c-7.54,52.07-15.38,105-23,156.16l-.93,6.29C554.8,432.08,550.37,436,544.24,436ZM176.8,192.72c-6.05,0-10,3.56-11,10-8.69,58.66-16.49,111.46-23.85,161.4a14.29,14.29,0,0,0-.12,4.07c.72,5.34,4.29,8.41,10.91,9.39l156,23.06,223.38,33,3.16.48c2.37.37,4.82.75,7.24,1,6.72.78,11.51-2.89,12.51-9.57l.93-6.29c7.58-51.18,15.42-104.09,23-156.16a14,14,0,0,0-1.65-7.74c-1.77-3.51-5.43-4.5-9.12-5-111.66-16.48-225.18-33.26-335-49.49l-52.94-7.82c-.5-.08-1-.16-1.52-.22A16.84,16.84,0,0,0,176.8,192.72Zm413.45,63.6a8.74,8.74,0,0,1-1.14-.08,8.26,8.26,0,0,1-5.34-3.28,8.12,8.12,0,0,1-1.56-6,7.87,7.87,0,0,1,3.19-5.2,8.22,8.22,0,0,1,13,7.65,8,8,0,0,1-3.26,5.26A8.42,8.42,0,0,1,590.25,256.32Zm0-15.46a7.54,7.54,0,0,0-4.47,1.48,7.24,7.24,0,0,0-2.91,4.75,7.4,7.4,0,0,0,1.43,5.45,7.54,7.54,0,0,0,4.88,3,7.66,7.66,0,0,0,5.56-1.41,7.35,7.35,0,0,0,3-4.8h0a7.48,7.48,0,0,0-6.33-8.38A7.4,7.4,0,0,0,590.28,240.86Zm-430.77-48.2a6.54,6.54,0,0,1-1.08-.08,7.89,7.89,0,0,1-5.24-3.18,8.29,8.29,0,0,1-1.55-6.12l.35.06-.35-.06a8,8,0,0,1,3.2-5.24,8.11,8.11,0,0,1,6.11-1.42,8,8,0,0,1,6.67,9,8.16,8.16,0,0,1-3.19,5.37A8.27,8.27,0,0,1,159.51,192.66Zm.08-15.45a7.37,7.37,0,0,0-4.34,1.4,7.22,7.22,0,0,0-2.91,4.78,7.53,7.53,0,0,0,1.41,5.59,7.24,7.24,0,0,0,4.78,2.91,7.4,7.4,0,0,0,5.47-1.46,7.5,7.5,0,0,0,2.93-4.91,7.3,7.3,0,0,0-6.09-8.21A7.61,7.61,0,0,0,159.59,177.21Z"/><path class="cls-1" d="M551,513.25a7.88,7.88,0,1,1,9.12-6.69A7.94,7.94,0,0,1,551,513.25Z"/><path d="M552.27,513.72a8,8,0,0,1-1.38-.12,8.37,8.37,0,0,1-6.7-9.43,8.37,8.37,0,0,1,9.33-6.83,8.35,8.35,0,0,1,6.9,9.27,8.25,8.25,0,0,1-3.36,5.53A8.09,8.09,0,0,1,552.27,513.72Zm-1.26-.81a7.4,7.4,0,0,0,5.64-1.34A7.5,7.5,0,0,0,553.41,498a7.41,7.41,0,0,0-5.48,1.39,7.54,7.54,0,0,0-3,4.85A7.66,7.66,0,0,0,551,512.91Z"/><path class="cls-1" d="M113.93,440.71a7.74,7.74,0,1,1,6.52,8.91A7.91,7.91,0,0,1,113.93,440.71Z"/><path d="M121.55,450.05a9,9,0,0,1-1.15-.08,8.21,8.21,0,0,1-6.81-9.31h0a8.27,8.27,0,0,1,9.18-7,7.91,7.91,0,0,1,5.25,3.18,8.25,8.25,0,0,1-6.47,13.2Zm.13-15.76a7.6,7.6,0,0,0-7.4,6.47h0a7.38,7.38,0,1,0,13.18-3.49,7.28,7.28,0,0,0-4.79-2.91A8.24,8.24,0,0,0,121.68,434.29Z"/><path class="cls-1" d="M598.09,249.38A7.86,7.86,0,0,1,582.55,247a7.86,7.86,0,0,1,15.54,2.35Z"/><path d="M590.25,256.32a8.74,8.74,0,0,1-1.14-.08,8.26,8.26,0,0,1-5.34-3.28,8.12,8.12,0,0,1-1.56-6,7.87,7.87,0,0,1,3.19-5.2,8.22,8.22,0,0,1,13,7.65,8,8,0,0,1-3.26,5.26A8.42,8.42,0,0,1,590.25,256.32Zm0-15.46a7.54,7.54,0,0,0-4.47,1.48,7.24,7.24,0,0,0-2.91,4.75,7.4,7.4,0,0,0,1.43,5.45,7.54,7.54,0,0,0,4.88,3,7.66,7.66,0,0,0,5.56-1.41,7.35,7.35,0,0,0,3-4.8h0a7.54,7.54,0,0,0-7.46-8.47Z"/><path class="cls-1" d="M152,183.34a7.73,7.73,0,0,1,15.29,2.23A7.73,7.73,0,1,1,152,183.34Z"/><path d="M159.51,192.66a6.54,6.54,0,0,1-1.08-.08,7.89,7.89,0,0,1-5.24-3.18,8.29,8.29,0,0,1-1.55-6.12,8,8,0,0,1,3.2-5.24,8.11,8.11,0,0,1,6.11-1.42,8,8,0,0,1,6.67,9,8.16,8.16,0,0,1-3.19,5.37A8.27,8.27,0,0,1,159.51,192.66Zm.08-15.45a7.37,7.37,0,0,0-4.34,1.4,7.22,7.22,0,0,0-2.91,4.78,7.53,7.53,0,0,0,1.41,5.59,7.24,7.24,0,0,0,4.78,2.91,7.4,7.4,0,0,0,5.47-1.46,7.5,7.5,0,0,0,2.93-4.91,7.3,7.3,0,0,0-6.09-8.21A7.61,7.61,0,0,0,159.59,177.21Z"/><path class="cls-1" d="M154,282.64c.24-1.66.46-3.12.7-4.75L568.21,339c-.24,1.62-.46,3.07-.71,4.75Z"/><path d="M567.8,344.16l-.35-.05L153.62,282.93l.8-5.44L568.6,338.72ZM154.41,282.34l412.8,61,.6-4.05-412.8-61Z"/><path class="cls-1" d="M566.52,350.08l-.67,4.53L152.46,293.5c.21-1.39.42-2.82.67-4.53Z"/><path d="M566.15,355,152.06,293.79l.77-5.21,414.09,61.21ZM152.86,293.2l412.69,61,.57-3.83-412.69-61Z"/><path class="cls-1" d="M150.73,304.86c.25-1.67.46-3.12.7-4.75l413.49,61.12c-.24,1.62-.45,3.07-.7,4.75Z"/><path d="M564.52,366.38,150.33,305.15l.81-5.44,414.18,61.22ZM151.13,304.56l412.79,61,.6-4.06-412.79-61Z"/><path class="cls-1" d="M563.23,372.3c-.23,1.61-.43,3-.67,4.52l-413.38-61.1c.2-1.39.41-2.82.67-4.53Z"/><path d="M562.86,377.22l-.35-.05L148.78,316l.77-5.22.35.06L563.63,372Zm-413.28-61.8,412.69,61,.57-3.83-412.7-61Z"/><path class="cls-1" d="M211.16,364.16c.25-1.66.47-3.12.71-4.75l277.72,41.06c-.24,1.62-.45,3.07-.7,4.75Z"/><path d="M489.19,405.61,210.77,364.46l.8-5.45L490,400.17ZM211.56,363.87l277,40.95.6-4.06-277-40.95Z"/><path class="cls-1" d="M487.92,411.54l-.67,4.52L209.59,375c.21-1.39.42-2.81.67-4.52Z"/><path d="M487.55,416.46,209.19,375.32l.78-5.22,278.35,41.14ZM210,374.73l277,40.94.56-3.83-277-40.94Z"/><path class="cls-1" d="M308.15,284c-3.18,21.46-6.32,42.69-9.49,64.17L409,364.49c3.18-21.55,6.33-42.86,9.48-64.18Z"/><path d="M409.25,364.89l-111-16.41,9.59-64.87,111,16.41,0,.34Zm-110.19-17,109.6,16.2L418,300.61l-109.6-16.2Z"/><path class="cls-1" d="M432.41,335.16a24.33,24.33,0,1,1,20.36,27.62A24.4,24.4,0,0,1,432.41,335.16Z"/><path d="M456.48,363.41a25.16,25.16,0,0,1-3.76-.29,24.45,24.45,0,0,1-20.66-28,24.77,24.77,0,0,1,9.91-16.5,24.15,24.15,0,0,1,18.23-4.49,24.9,24.9,0,0,1,20.71,28.08,24.78,24.78,0,0,1-24.43,21.21Zm-23.72-28.2a24,24,0,1,0,47.45,6.89,24.2,24.2,0,0,0-20.12-27.29,23.51,23.51,0,0,0-17.71,4.36A24.1,24.1,0,0,0,432.76,335.21Z"/><path class="cls-1" d="M284.78,313.48A24.33,24.33,0,1,1,236.71,306a24.33,24.33,0,1,1,48.07,7.51Z"/><path d="M260.85,334.49a25.48,25.48,0,0,1-4.07-.33,24.79,24.79,0,0,1,7.65-49,24.8,24.8,0,0,1-3.58,49.32Zm0-48.89A24.39,24.39,0,0,0,237.06,306a24.11,24.11,0,0,0,19.83,27.44,24.09,24.09,0,1,0,7.43-47.6A22.36,22.36,0,0,0,260.87,285.6Z"/><path class="cls-1" d="M298.62,348.52c3.19-21.64,6.32-42.79,9.53-64.53,6.42.94,12.73,1.81,19,2.91.7.12,1.47,1.5,1.69,2.46q7.45,31.72-8.85,60a3.88,3.88,0,0,1-3,1.78C311,350.45,305,349.46,298.62,348.52Z"/><path d="M317.15,351.49H317c-4.51-.51-9-1.19-13.66-1.9l-4.74-.71-.34-.06,9.64-65.22.35.05,4.36.64c4.82.7,9.8,1.42,14.65,2.27,1,.17,1.77,1.86,2,2.73a80.07,80.07,0,0,1-8.89,60.24A4.35,4.35,0,0,1,317.15,351.49ZM299,348.22l4.39.66c4.7.72,9.14,1.39,13.64,1.91a3.56,3.56,0,0,0,2.65-1.62,79.42,79.42,0,0,0,8.82-59.73c-.23-1-1-2.12-1.41-2.2-4.84-.85-9.82-1.57-14.63-2.27l-4-.59Z"/><path class="cls-1" d="M418.55,300.31c-3.21,21.74-6.34,42.89-9.54,64.54-6.41-1-12.74-1.81-19-2.91-.7-.13-1.49-1.48-1.71-2.42q-7.44-31.74,8.89-60c.53-.91,1.85-2,2.66-1.88C406,298.36,412.06,299.35,418.55,300.31Z"/><path d="M409.31,365.25l-.35-.06-4.38-.63c-4.81-.7-9.79-1.43-14.65-2.28-.91-.16-1.76-1.69-2-2.68a80.22,80.22,0,0,1,8.92-60.25c.54-.92,2-2.17,3-2.05,4.65.54,9.24,1.23,14.09,2l4.63.69.35.05ZM399.73,298a3.64,3.64,0,0,0-2.26,1.71,79.57,79.57,0,0,0-8.85,59.74c.22.94,1,2.07,1.43,2.15,4.85.85,9.82,1.57,14.64,2.27l4,.59,9.44-63.84-4.29-.65c-4.84-.73-9.42-1.42-14.07-2Z"/><path class="cls-1" d="M351.69,370.57,224.3,351.74c-7.89-1.17-10.43-4.59-9.27-12.5q5.26-35.58,10.53-71.16c1.14-7.71,4.63-10.34,12.25-9.21L493,296.58c7.89,1.17,10.42,4.59,9.25,12.53q-5.28,35.76-10.58,71.51c-1.07,7.24-4.68,9.94-11.84,8.88Zm-53-22.39L409,364.49c3.18-21.55,6.33-42.86,9.48-64.18L308.15,284C305,305.47,301.83,326.7,298.66,348.18Zm133.75-13a24.33,24.33,0,1,0,48.15,7,24.33,24.33,0,1,0-48.15-7ZM284.78,313.48a24.33,24.33,0,1,0-27.95,20.33A24.38,24.38,0,0,0,284.78,313.48Z"/><path d="M482.56,390.07a19.26,19.26,0,0,1-2.83-.22L394,377.18l-53.63-7.93L224.24,352.09c-8.07-1.2-10.75-4.81-9.55-12.9q5.25-35.58,10.52-71.16c1.17-7.91,4.83-10.66,12.65-9.51L493,296.24c8.07,1.19,10.74,4.81,9.54,12.93q-5.27,35.74-10.57,71.51C491,387.09,488.08,390.07,482.56,390.07ZM351.74,370.22l42.35,6.26,85.75,12.67c7,1,10.39-1.53,11.44-8.58q5.3-35.74,10.57-71.51c1.14-7.71-1.29-11-9-12.13q-127.57-18.85-255.14-37.71c-7.42-1.1-10.74,1.4-11.86,8.91q-5.27,35.58-10.52,71.16c-1.13,7.69,1.3,11,9,12.1l116.12,17.17Zm57.51-5.33-111-16.41,9.59-64.87,111,16.41Zm-110.19-17,109.6,16.2L418,300.61l-109.6-16.2Zm157.42,15.52a25.16,25.16,0,0,1-3.76-.29,24.45,24.45,0,0,1-20.66-28,24.77,24.77,0,0,1,9.91-16.5,24.15,24.15,0,0,1,18.23-4.49,24.9,24.9,0,0,1,20.71,28.08,24.78,24.78,0,0,1-24.43,21.21Zm-24.07-28.25.35,0a24,24,0,1,0,47.45,6.89,24.2,24.2,0,0,0-20.12-27.29,23.51,23.51,0,0,0-17.71,4.36,24.1,24.1,0,0,0-9.62,16Zm-171.56-.67a25.48,25.48,0,0,1-4.07-.33,24.79,24.79,0,0,1,7.65-49,24.74,24.74,0,0,1,20.7,28.36l-.35,0,.35,0a24.57,24.57,0,0,1-24.28,21Zm0-48.89A24.39,24.39,0,0,0,237.06,306a24.11,24.11,0,0,0,19.83,27.44,24.09,24.09,0,1,0,7.43-47.6A22.36,22.36,0,0,0,260.87,285.6Z"/><path d="M397.38,297.89c-11.67,8.65-22.44,18.4-33.23,28.09-3.07,2.76-6.15,5.51-9.25,8.22-.51.45.24,1.19.75.75,10.83-9.5,21.33-19.38,32.48-28.52,3.2-2.61,6.46-5.17,9.78-7.63C398.45,298.4,397.92,297.49,397.38,297.89Z"/><path d="M403.83,301c-15.58,12.89-30.79,26.2-46,39.53l-13,11.35c-.51.45.24,1.19.75.75,15.22-13.3,30.35-26.71,45.75-39.81q6.57-5.58,13.2-11.08C405.09,301.3,404.35,300.56,403.83,301Z"/><path d="M262.11,289.52c8.87-.08,16.32,7.26,18.53,15.5s-1.9,17.16-8.66,22.09c-3.83,2.79-8.55,4.09-13.18,2.69-.65-.2-.92.82-.28,1,9,2.73,17.59-4,21.47-11.68a20.12,20.12,0,0,0,2.06-12.63,23.19,23.19,0,0,0-6.34-12.06,19.07,19.07,0,0,0-13.6-6A.53.53,0,0,0,262.11,289.52Z"/><path d="M457.91,318.46c8.87-.07,16.31,7.27,18.53,15.5s-1.9,17.16-8.66,22.09c-3.83,2.79-8.55,4.09-13.18,2.69-.65-.2-.93.82-.28,1,9,2.72,17.58-4,21.46-11.68a20.1,20.1,0,0,0,2.07-12.64,23.12,23.12,0,0,0-6.34-12.05,19.1,19.1,0,0,0-13.6-6A.53.53,0,0,0,457.91,318.46Z"/><path class="cls-1" d="M297,256.8c-1.3,0-2.65-.05-4-.12-1-.06-2.07-.08-3-.09a1.23,1.23,0,0,1-.85-.35,1.15,1.15,0,0,1-.38-.83,1.61,1.61,0,0,1,.23-.81.71.71,0,0,1,.58-.43l2.35.06c-.07-2.61-.1-3.91-.16-6.52-.09-2.91-.17-5.8-.22-8.69q-.07-4.1-.08-8.14c-.7.05-1.19.1-1.44.14a4.26,4.26,0,0,1-.64,0,1.22,1.22,0,0,1-.91-.33,1.26,1.26,0,0,1-.37-.91,1,1,0,0,1,.3-.77c.47-.5,3.21-.83,8.19-.86a1.31,1.31,0,0,1,.95.35,1.14,1.14,0,0,1,.39.86,1.16,1.16,0,0,1-.36.85,1.28,1.28,0,0,1-.9.38l-2.61.09q0,4,0,8.08.11,7.69.41,15.42a20.58,20.58,0,0,1,2.48.15,1.23,1.23,0,0,1,.77.4,1.15,1.15,0,0,1,.3.77,1.41,1.41,0,0,1-.29.88A.92.92,0,0,1,297,256.8Z"/><path d="M297,257.15h0c-1.16,0-2.47,0-4-.12-1,0-2-.08-3-.09a1.62,1.62,0,0,1-1.09-.44,1.55,1.55,0,0,1-.49-1.08,2,2,0,0,1,.28-1,1,1,0,0,1,.87-.61l2,.05-.15-6.15c-.1-2.91-.17-5.84-.22-8.69,0-2.62-.08-5.23-.08-7.77a9.8,9.8,0,0,0-1,.11,5.09,5.09,0,0,1-.69,0,1.55,1.55,0,0,1-1.16-.43,1.6,1.6,0,0,1-.48-1.16,1.36,1.36,0,0,1,.4-1c.21-.22.87-.92,8.44-1a1.7,1.7,0,0,1,1.19.44,1.48,1.48,0,0,1,.5,1.12,1.5,1.5,0,0,1-.46,1.1,1.63,1.63,0,0,1-1.14.48l-2.27.07c0,2.53,0,5.14,0,7.75.07,4.9.2,10,.4,15.08A18.74,18.74,0,0,1,297,254a1.55,1.55,0,0,1,1,.52,1.47,1.47,0,0,1,.39,1,1.7,1.7,0,0,1-.37,1.1A1.25,1.25,0,0,1,297,257.15Zm-7.45-2.63c-.08,0-.17.09-.26.25a1.13,1.13,0,0,0-.18.63.75.75,0,0,0,.26.58.89.89,0,0,0,.61.26c1,0,2.05,0,3,.09,1.53.08,2.83.12,4,.12h0a.51.51,0,0,0,.48-.24,1,1,0,0,0,.21-.65.78.78,0,0,0-.21-.54.91.91,0,0,0-.56-.3,22.14,22.14,0,0,0-2.44-.14h-.33v-.33c-.21-5.22-.34-10.41-.41-15.42,0-2.73,0-5.46,0-8.1v-.33h.33l2.62-.09a.91.91,0,0,0,.66-.28.77.77,0,0,0,.26-.59.79.79,0,0,0-.27-.61,1,1,0,0,0-.71-.26c-7.07,0-7.87.68-7.94.76a.64.64,0,0,0-.21.51.87.87,0,0,0,.27.66.79.79,0,0,0,.65.24,3.83,3.83,0,0,0,.6-.05c.29,0,.81-.09,1.47-.14l.38,0v.38c0,2.66,0,5.4.07,8.14s.13,5.77.22,8.68l.17,6.89h-.37Z"/><path class="cls-1" d="M310.5,256.93a1.14,1.14,0,0,1-.87-.4,1.27,1.27,0,0,1-.32-.85,1.21,1.21,0,0,1,.26-.74,1.07,1.07,0,0,1,.68-.41l.38-.06a136.29,136.29,0,0,1-.49-15.42,84,84,0,0,1,.7-9.3,1.22,1.22,0,0,1,.43-.78,1.32,1.32,0,0,1,.87-.28,1.43,1.43,0,0,1,.93.37,1,1,0,0,1,.34.8c-.05,1.31-.16,2.75-.32,4.2-.19,1.69-.34,3.38-.39,5a137,137,0,0,0,.39,15.17c1.54,0,3.12,0,4.73,0s3.08.17,4.3.32a1.24,1.24,0,0,1,.81.42,1.12,1.12,0,0,1,.29.83,1.42,1.42,0,0,1-.38.88,1,1,0,0,1-.86.31l-1.66-.12c-.81-.09-1.79-.16-2.95-.21-1.32-.05-2.61-.07-3.85,0a20.18,20.18,0,0,0-2.72.2A1.53,1.53,0,0,1,310.5,256.93Z"/><path d="M322.06,257.42H322l-1.67-.12c-.82-.09-1.8-.16-2.93-.21-1.31,0-2.6-.06-3.83,0a22.16,22.16,0,0,0-2.67.19,1.5,1.5,0,0,1-.37,0h0a1.47,1.47,0,0,1-1.12-.52,1.58,1.58,0,0,1-.08-2,1.38,1.38,0,0,1,.9-.54l.07,0a135.06,135.06,0,0,1-.47-15.13,84,84,0,0,1,.7-9.34,1.53,1.53,0,0,1,.56-1,1.66,1.66,0,0,1,1.1-.36,1.78,1.78,0,0,1,1.16.46,1.32,1.32,0,0,1,.45,1.07c-.05,1.36-.16,2.78-.32,4.23-.22,2-.35,3.55-.39,5a133.93,133.93,0,0,0,.37,14.8c1.44,0,2.93,0,4.41.05,1.75.08,3.17.18,4.34.32a1.6,1.6,0,0,1,1,.54,1.42,1.42,0,0,1,.38,1.08,1.74,1.74,0,0,1-.48,1.11A1.41,1.41,0,0,1,322.06,257.42Zm-7.24-1.08c.84,0,1.7,0,2.57.05,1.14.05,2.14.12,3,.21l1.64.12a.72.72,0,0,0,.59-.21,1.05,1.05,0,0,0,.28-.66.81.81,0,0,0-.2-.57.94.94,0,0,0-.59-.3c-1.14-.14-2.54-.24-4.28-.32-1.58-.06-3.16-.08-4.7,0h-.33l0-.33a136.49,136.49,0,0,1-.39-15.22c0-1.47.17-3.08.39-5.05.16-1.44.27-2.85.32-4.18a.62.62,0,0,0-.23-.53,1.07,1.07,0,0,0-.71-.28,1,1,0,0,0-.63.2.84.84,0,0,0-.3.56,82.46,82.46,0,0,0-.7,9.25,136.88,136.88,0,0,0,.49,15.38l0,.33-.7.12a.74.74,0,0,0-.46.27.88.88,0,0,0,0,1.15.8.8,0,0,0,.6.28.73.73,0,0,0,.22,0,22.41,22.41,0,0,1,2.79-.2Z"/><path class="cls-1" d="M331.69,256a8.24,8.24,0,0,1-4.11-1.4,10.58,10.58,0,0,1-2.94-3.09,13.69,13.69,0,0,1-1.72-4,14.46,14.46,0,0,1-.45-4.29,13.94,13.94,0,0,1,.9-4.22,13.32,13.32,0,0,1,2.22-3.83,10.17,10.17,0,0,1,3.44-2.69,8.66,8.66,0,0,1,4.49-.79,8.78,8.78,0,0,1,4.35,1.46,10.17,10.17,0,0,1,3,3.17,13.13,13.13,0,0,1,1.62,4.12,14,14,0,0,1,.26,4.31,14.51,14.51,0,0,1-1.08,4.17,14.29,14.29,0,0,1-2.31,3.74,10.52,10.52,0,0,1-3.37,2.61A8.15,8.15,0,0,1,331.69,256Zm.18-2.37a5.89,5.89,0,0,0,3.35-.66,8.07,8.07,0,0,0,2.56-2.18,11.94,11.94,0,0,0,1.72-3.06,11.58,11.58,0,0,0,.61-6.62,10.9,10.9,0,0,0-1.18-3.31,7.91,7.91,0,0,0-2.24-2.6,6.21,6.21,0,0,0-3.35-1.2,6.15,6.15,0,0,0-3.46.68,8.14,8.14,0,0,0-2.61,2.24,11.28,11.28,0,0,0-1.66,3.1,12.21,12.21,0,0,0-.68,3.3,12.56,12.56,0,0,0,.29,3.34,12,12,0,0,0,1.25,3.28,8,8,0,0,0,2.2,2.54A5.9,5.9,0,0,0,331.87,253.61Z"/><path d="M332.42,256.36l-.76,0a8.57,8.57,0,0,1-4.28-1.47,10.85,10.85,0,0,1-3-3.18,14.21,14.21,0,0,1-1.76-4.14,14.14,14.14,0,0,1,.46-8.72,13.75,13.75,0,0,1,2.28-3.93,10.55,10.55,0,0,1,3.55-2.78,9.62,9.62,0,0,1,9.2.69,10.52,10.52,0,0,1,3.09,3.28,13.73,13.73,0,0,1,1.66,4.23,14.37,14.37,0,0,1,.27,4.41A15,15,0,0,1,342,249a14.52,14.52,0,0,1-2.37,3.83,10.9,10.9,0,0,1-3.47,2.69A8.29,8.29,0,0,1,332.42,256.36Zm-.7-.73a7.9,7.9,0,0,0,4.11-.74,10.07,10.07,0,0,0,3.25-2.52,13.51,13.51,0,0,0,2.25-3.65,13.44,13.44,0,0,0,.81-8.27,13.17,13.17,0,0,0-1.58-4,9.72,9.72,0,0,0-2.89-3.06,8.33,8.33,0,0,0-4.17-1.4,8.44,8.44,0,0,0-4.32.76,9.77,9.77,0,0,0-3.32,2.6,13,13,0,0,0-2.16,3.73,13.7,13.7,0,0,0-.88,4.11,14.08,14.08,0,0,0,.44,4.18,13.57,13.57,0,0,0,1.68,3.95,10.22,10.22,0,0,0,2.84,3A8,8,0,0,0,331.72,255.63Zm.69-1.64-.57,0a6.21,6.21,0,0,1-3.38-1.22,8.42,8.42,0,0,1-2.3-2.65,12.22,12.22,0,0,1-1.28-3.38,12.83,12.83,0,0,1-.3-3.43,12.42,12.42,0,0,1,.7-3.39,11.44,11.44,0,0,1,1.71-3.2,8.33,8.33,0,0,1,2.72-2.33,7,7,0,0,1,7.19.54,8.37,8.37,0,0,1,2.34,2.71,11.42,11.42,0,0,1,1.21,3.42,12.35,12.35,0,0,1,.19,3.45,12.8,12.8,0,0,1-2.58,6.5,8.45,8.45,0,0,1-2.68,2.28A6.19,6.19,0,0,1,332.41,254Zm.38-19.68A5.73,5.73,0,0,0,330,235a7.86,7.86,0,0,0-2.49,2.14,10.89,10.89,0,0,0-1.61,3,11.78,11.78,0,0,0-.66,3.2,12.22,12.22,0,0,0,.28,3.24,11.75,11.75,0,0,0,1.21,3.18,7.71,7.71,0,0,0,2.12,2.44,5.53,5.53,0,0,0,3,1.08,5.71,5.71,0,0,0,3.16-.61,7.79,7.79,0,0,0,2.45-2.1,11.35,11.35,0,0,0,1.67-3,11.71,11.71,0,0,0,.77-3.17,11.37,11.37,0,0,0-.18-3.26,10.66,10.66,0,0,0-1.14-3.22,7.75,7.75,0,0,0-2.14-2.48,5.85,5.85,0,0,0-3.16-1.13Z"/><path class="cls-1" d="M350.25,256.38a1.16,1.16,0,0,1-.69-.32,1.41,1.41,0,0,1-.43-.78q-.58-3.18-1.25-6.38-1.42-6.87-2.71-13.78a1.16,1.16,0,0,1,0-.32,1.07,1.07,0,0,1,.47-.81,1.29,1.29,0,0,1,.94-.25,1.27,1.27,0,0,1,.75.32,1.2,1.2,0,0,1,.39.7c.87,4.84,1.8,9.67,2.76,14.51.19.94.28,1.42.46,2.36q4.74-8.37,9.46-16.72a1.36,1.36,0,0,1,1.33-.64,1.29,1.29,0,0,1,.86.49,1.16,1.16,0,0,1,.26.91,1.22,1.22,0,0,1-.14.39q-5.56,9.88-11.25,19.71a1.23,1.23,0,0,1-.54.5A1.17,1.17,0,0,1,350.25,256.38Z"/><path d="M350.39,256.74h-.18a1.58,1.58,0,0,1-.88-.4,1.72,1.72,0,0,1-.54-1c-.41-2.17-.82-4.32-1.25-6.39-1-4.62-1.88-9.25-2.72-13.79a2,2,0,0,1,0-.42,1.43,1.43,0,0,1,.62-1.06,1.73,1.73,0,0,1,2.12.09,1.6,1.6,0,0,1,.51.91c.84,4.64,1.76,9.52,2.76,14.5l.27,1.43,2-3.5q3.53-6.19,7-12.39a1.68,1.68,0,0,1,1.67-.81,1.59,1.59,0,0,1,1.09.61,1.47,1.47,0,0,1,.33,1.17,1.24,1.24,0,0,1-.18.52c-3.53,6.29-7.21,12.73-11.24,19.71a1.57,1.57,0,0,1-1.37.8Zm-.1-.71a.77.77,0,0,0,.47-.08.84.84,0,0,0,.39-.36c4-7,7.71-13.42,11.24-19.7a.94.94,0,0,0,.1-.28.81.81,0,0,0-.18-.63,1,1,0,0,0-.64-.36,1,1,0,0,0-1,.5q-3.46,6.13-7,12.36l-2.91,5.16-.64-3.3c-1-5-1.92-9.87-2.76-14.51a.89.89,0,0,0-.28-.51,1,1,0,0,0-.55-.24,1,1,0,0,0-.7.19.76.76,0,0,0-.33.56,1,1,0,0,0,0,.24c.84,4.51,1.75,9.14,2.72,13.75.42,2.08.84,4.23,1.24,6.4a1,1,0,0,0,.32.58A.92.92,0,0,0,350.29,256Z"/><path class="cls-1" d="M368.39,259.91a5.9,5.9,0,0,1-3-1.34,8,8,0,0,1-2-2.54,13.21,13.21,0,0,1-1.09-3.23,19.89,19.89,0,0,1-.2-6.6,16.7,16.7,0,0,1,1.06-4,11.25,11.25,0,0,1,2-3.25,7.45,7.45,0,0,1,2.88-2.07,7,7,0,0,1,3.75-.34,5.51,5.51,0,0,1,2.66,1.13,6,6,0,0,1,1.63,2.1,9.81,9.81,0,0,1,.82,2.66,15.11,15.11,0,0,1,.18,2.84,18.29,18.29,0,0,1-.26,2.6,6,6,0,0,1-.27.93c-.29.77-.77,1.12-1.45,1-2.61-.38-6.19-.87-10.67-1.31a18.4,18.4,0,0,0,.14,2.55,13.21,13.21,0,0,0,.67,2.81,7.22,7.22,0,0,0,1.36,2.38,3.79,3.79,0,0,0,2.29,1.24,7.11,7.11,0,0,0,3.59-.58,1.24,1.24,0,0,1,.65-.06,1.13,1.13,0,0,1,.79.51,1.22,1.22,0,0,1,.21.9,1.26,1.26,0,0,1-.79.93A9.91,9.91,0,0,1,368.39,259.91Zm-3.74-13.79q4.74.48,9.69,1.18a16.44,16.44,0,0,0,.19-2.22,12.88,12.88,0,0,0-.21-2.61,5.82,5.82,0,0,0-.94-2.28,2.84,2.84,0,0,0-2-1.19,4.25,4.25,0,0,0-2.73.38,6,6,0,0,0-2,1.74,10.07,10.07,0,0,0-1.33,2.46A12.49,12.49,0,0,0,364.65,246.12Z"/><path d="M369.51,260.35a7.53,7.53,0,0,1-1.18-.09,6.41,6.41,0,0,1-3.18-1.42,8.36,8.36,0,0,1-2-2.65,13.12,13.12,0,0,1-1.12-3.32,19.34,19.34,0,0,1-.39-3.51,20.22,20.22,0,0,1,.18-3.21,17.61,17.61,0,0,1,1.08-4.05,11.89,11.89,0,0,1,2-3.35,7.76,7.76,0,0,1,3-2.16,7.16,7.16,0,0,1,3.94-.36,5.79,5.79,0,0,1,2.82,1.2,6.27,6.27,0,0,1,1.73,2.22,10.44,10.44,0,0,1,.85,2.76,14.93,14.93,0,0,1,.18,2.91,17.43,17.43,0,0,1-.27,2.64,4.83,4.83,0,0,1-.28,1,1.63,1.63,0,0,1-1.83,1.25c-2.25-.33-5.75-.82-10.28-1.28q0,.95.15,2.13a12.47,12.47,0,0,0,.65,2.73,6.92,6.92,0,0,0,1.3,2.27,3.34,3.34,0,0,0,2.08,1.12,6.78,6.78,0,0,0,3.41-.56,1.74,1.74,0,0,1,.83-.08,1.56,1.56,0,0,1,1,.66,1.48,1.48,0,0,1,.26,1.16,1.59,1.59,0,0,1-1,1.19A11.79,11.79,0,0,1,369.51,260.35Zm-1.07-.78a9.61,9.61,0,0,0,4.78-.68.88.88,0,0,0,.56-.66.82.82,0,0,0-.15-.64.8.8,0,0,0-.56-.37,1,1,0,0,0-.48,0,7.26,7.26,0,0,1-3.75.59,4.07,4.07,0,0,1-2.5-1.35,7.73,7.73,0,0,1-1.43-2.49,12.78,12.78,0,0,1-.68-2.89,17.81,17.81,0,0,1-.15-2.6v-.38l.37,0c4.73.47,8.37,1,10.69,1.32.32,0,.77,0,1.07-.8a5.68,5.68,0,0,0,.25-.87,17.56,17.56,0,0,0,.26-2.55,14.33,14.33,0,0,0-.18-2.77,9.37,9.37,0,0,0-.78-2.57,5.86,5.86,0,0,0-1.54-2,5.13,5.13,0,0,0-2.49-1.05,6.49,6.49,0,0,0-3.57.32,7.2,7.2,0,0,0-2.75,2,11.29,11.29,0,0,0-1.91,3.16,16.16,16.16,0,0,0-1,3.88,19.5,19.5,0,0,0,.19,6.48,12.78,12.78,0,0,0,1.07,3.14,7.68,7.68,0,0,0,1.86,2.44A5.74,5.74,0,0,0,368.44,259.57Zm6.19-11.88-.34-.05c-3.24-.46-6.5-.85-9.67-1.17l-.37,0,.06-.36a12.74,12.74,0,0,1,.69-2.62,10.76,10.76,0,0,1,1.38-2.54,6.42,6.42,0,0,1,2.12-1.84,4.61,4.61,0,0,1,2.95-.41,3.2,3.2,0,0,1,2.22,1.33,6.1,6.1,0,0,1,1,2.42,12.72,12.72,0,0,1,.22,2.67,15.71,15.71,0,0,1-.2,2.28Zm-9.57-1.88c2.95.3,6,.67,9,1.09a15.54,15.54,0,0,0,.14-1.83,12,12,0,0,0-.21-2.53,5.51,5.51,0,0,0-.87-2.15,2.56,2.56,0,0,0-1.76-1,3.93,3.93,0,0,0-2.51.34,5.68,5.68,0,0,0-1.89,1.64,9.67,9.67,0,0,0-1.28,2.37A13.27,13.27,0,0,0,365.06,245.81Z"/><path class="cls-1" d="M391.27,266.74a1.31,1.31,0,0,1-.79-.5,1.14,1.14,0,0,1-.19-.93c1.25-6.38,1.87-9.58,3.1-16-1.51-4.18-2.29-6.26-3.91-10.43a1.09,1.09,0,0,1,.48-1.45,1.32,1.32,0,0,1,1-.18,1.46,1.46,0,0,1,.58.27,1.1,1.1,0,0,1,.39.51c1.4,3.65,2.07,5.48,3.39,9.13,2.78-2.69,4.19-4,7-6.67a1.39,1.39,0,0,1,1.23-.31,1.23,1.23,0,0,1,.8.57,1.11,1.11,0,0,1-.17,1.49c-3.39,3.09-5.06,4.65-8.35,7.8-1.26,6.33-1.9,9.5-3.17,15.83a1,1,0,0,1-.52.69A1.13,1.13,0,0,1,391.27,266.74Z"/><path d="M391.52,267.12a1.66,1.66,0,0,1-.32,0h0a1.7,1.7,0,0,1-1-.64,1.51,1.51,0,0,1-.26-1.2c1.25-6.36,1.87-9.55,3.09-15.88-1.5-4.14-2.27-6.19-3.88-10.33a1.46,1.46,0,0,1,.63-1.88,1.69,1.69,0,0,1,1.93.11,1.54,1.54,0,0,1,.51.67c1.33,3.49,2,5.28,3.21,8.62,2.54-2.45,3.92-3.76,6.65-6.3a1.76,1.76,0,0,1,1.56-.39,1.58,1.58,0,0,1,1,.72,1.5,1.5,0,0,1,.22,1.19,1.46,1.46,0,0,1-.45.75c-3.37,3.07-5,4.6-8.27,7.72-1.24,6.26-1.88,9.42-3.14,15.72a1.41,1.41,0,0,1-.69.92A1.5,1.5,0,0,1,391.52,267.12Zm-.17-.72a.8.8,0,0,0,.61-.11.73.73,0,0,0,.36-.47c1.27-6.32,1.9-9.49,3.17-15.82l0-.11.08-.07c3.32-3.18,5-4.71,8.36-7.81a.8.8,0,0,0,.24-.39.81.81,0,0,0-.13-.65.91.91,0,0,0-.59-.42,1.07,1.07,0,0,0-.93.25c-2.84,2.63-4.22,3.94-7,6.65l-.39.37-.18-.51c-1.32-3.67-2-5.46-3.39-9.12a.69.69,0,0,0-.27-.36,1.09,1.09,0,0,0-.44-.2,1,1,0,0,0-.71.13.82.82,0,0,0-.41.53.83.83,0,0,0,.07.48c1.63,4.19,2.4,6.24,3.92,10.45l0,.09,0,.1c-1.24,6.39-1.86,9.58-3.11,16a.84.84,0,0,0,.13.65A.93.93,0,0,0,391.35,266.4Z"/><path class="cls-1" d="M408.35,268.88a8.21,8.21,0,0,1-3.79-2.13,10.54,10.54,0,0,1-2.32-3.57,14,14,0,0,1-1-4.28,14.51,14.51,0,0,1,.34-4.3,14,14,0,0,1,1.66-4,13.07,13.07,0,0,1,2.88-3.36,10.12,10.12,0,0,1,3.87-2,8.62,8.62,0,0,1,4.56.05,8.79,8.79,0,0,1,4,2.22,10.36,10.36,0,0,1,2.37,3.67,13.34,13.34,0,0,1,.84,4.35A14.36,14.36,0,0,1,416.51,267a10.61,10.61,0,0,1-3.79,2A8.31,8.31,0,0,1,408.35,268.88Zm.61-2.29a5.93,5.93,0,0,0,3.42,0,8,8,0,0,0,2.92-1.68,11.67,11.67,0,0,0,2.25-2.69,12.49,12.49,0,0,0,1.37-3.06,11.89,11.89,0,0,0,.43-3.34,10.91,10.91,0,0,0-.55-3.47,8.21,8.21,0,0,0-1.73-3,6.68,6.68,0,0,0-6.62-1.75,8.13,8.13,0,0,0-3,1.73,10.66,10.66,0,0,0-2.2,2.74,12.1,12.1,0,0,0-1.28,3.12,12.39,12.39,0,0,0-.32,3.34,11.82,11.82,0,0,0,.63,3.45,8.13,8.13,0,0,0,1.71,2.9A6,6,0,0,0,409,266.59Z"/><path d="M410.65,269.54a9.53,9.53,0,0,1-2.39-.32,8.49,8.49,0,0,1-3.94-2.22,10.73,10.73,0,0,1-2.41-3.69,14.51,14.51,0,0,1-1-4.39,14.79,14.79,0,0,1,.35-4.4,14.61,14.61,0,0,1,1.7-4.09,13.6,13.6,0,0,1,2.95-3.45,10.74,10.74,0,0,1,4-2.09,9.73,9.73,0,0,1,8.93,2.36A10.65,10.65,0,0,1,421.3,251a13.5,13.5,0,0,1,.87,4.47,14.39,14.39,0,0,1-.54,4.38,15.16,15.16,0,0,1-1.87,4,14.38,14.38,0,0,1-3,3.33,11,11,0,0,1-3.91,2A8.34,8.34,0,0,1,410.65,269.54Zm-2.21-1a7.85,7.85,0,0,0,4.19,0,10.23,10.23,0,0,0,3.66-1.89,13.63,13.63,0,0,0,2.88-3.17A13.84,13.84,0,0,0,421,259.7a13.66,13.66,0,0,0,.52-4.18,13.18,13.18,0,0,0-.82-4.23,10,10,0,0,0-2.29-3.54,8.47,8.47,0,0,0-3.86-2.13,8.36,8.36,0,0,0-4.38-.05,9.86,9.86,0,0,0-3.74,2,12.82,12.82,0,0,0-2.8,3.28,13.74,13.74,0,0,0-1.62,3.88,14.44,14.44,0,0,0-.33,4.19,13.86,13.86,0,0,0,.93,4.19,10.31,10.31,0,0,0,2.25,3.44A7.8,7.8,0,0,0,408.44,268.54Zm2.21-1.37a7,7,0,0,1-1.78-.24,6.34,6.34,0,0,1-3.1-1.82,8.46,8.46,0,0,1-1.78-3,12.17,12.17,0,0,1-.65-3.55,12.73,12.73,0,0,1,.33-3.44,13.1,13.1,0,0,1,1.31-3.2,11.4,11.4,0,0,1,2.27-2.83,8.42,8.42,0,0,1,3.1-1.8,6.56,6.56,0,0,1,3.73,0,6.66,6.66,0,0,1,3.25,1.89,8.45,8.45,0,0,1,1.8,3.1,11.32,11.32,0,0,1,.57,3.58,12.16,12.16,0,0,1-.44,3.43,12.68,12.68,0,0,1-1.41,3.15,12.16,12.16,0,0,1-2.32,2.77,8.45,8.45,0,0,1-3,1.76A6.19,6.19,0,0,1,410.65,267.17Zm1.59-19.5a5.27,5.27,0,0,0-1.68.26,7.68,7.68,0,0,0-2.84,1.65,10.66,10.66,0,0,0-2.13,2.66,11.65,11.65,0,0,0-1.23,3,12.12,12.12,0,0,0-.32,3.25,11.74,11.74,0,0,0,.61,3.34,7.74,7.74,0,0,0,1.64,2.79,6,6,0,0,0,6,1.58,7.89,7.89,0,0,0,2.8-1.61,11.69,11.69,0,0,0,2.18-2.61,11.82,11.82,0,0,0,1.33-3,11.55,11.55,0,0,0,.42-3.24,10.79,10.79,0,0,0-.53-3.36,7.8,7.8,0,0,0-1.66-2.84,5.93,5.93,0,0,0-2.91-1.69A6.42,6.42,0,0,0,412.24,247.67Z"/><path class="cls-1" d="M432.67,274.15a1.23,1.23,0,0,1-.73-.61,1.19,1.19,0,0,1-.08-.94c.36-1.11.8-2.55,1.3-4.32a8.94,8.94,0,0,1-3.19,2.25,4.55,4.55,0,0,1-3,.17,4.39,4.39,0,0,1-2.59-2.24,9.8,9.8,0,0,1-.92-4.66,25.55,25.55,0,0,1,1.22-7,45.34,45.34,0,0,1,1.78-4.91,1.16,1.16,0,0,1,.61-.64,1.18,1.18,0,0,1,.89-.05,1.43,1.43,0,0,1,.81.59,1,1,0,0,1,.12.89c-.31,1-.65,1.92-1,2.76s-.59,1.48-.8,2.16A24.29,24.29,0,0,0,426,263.1a10.25,10.25,0,0,0,.34,3.67,2.26,2.26,0,0,0,1.29,1.59,2.38,2.38,0,0,0,1.75-.28,8.13,8.13,0,0,0,2.67-2.23,16.68,16.68,0,0,0,2.05-3.31,30.78,30.78,0,0,0,1.5-3.72c.27-.85.47-1.59.61-2.22s.26-1.11.42-1.64a1,1,0,0,1,.61-.67,1.45,1.45,0,0,1,1,0,1.23,1.23,0,0,1,.85,1.44,162.12,162.12,0,0,1-4.92,17.67,1.16,1.16,0,0,1-.61.71A1.21,1.21,0,0,1,432.67,274.15Z"/><path d="M433.05,274.56a1.4,1.4,0,0,1-.49-.08,1.54,1.54,0,0,1-.93-.78,1.51,1.51,0,0,1-.1-1.21c.27-.83.58-1.87.94-3.08a8.23,8.23,0,0,1-2.38,1.45,4.87,4.87,0,0,1-3.2.17,4.74,4.74,0,0,1-2.8-2.41,10.16,10.16,0,0,1-1-4.82,26.44,26.44,0,0,1,1.24-7.14,48.08,48.08,0,0,1,1.79-5,1.57,1.57,0,0,1,1.93-.89,1.9,1.9,0,0,1,1,.73,1.36,1.36,0,0,1,.15,1.19,29.15,29.15,0,0,1-1,2.79,21.54,21.54,0,0,0-.78,2.13,22.93,22.93,0,0,0-1.07,5.46,9.89,9.89,0,0,0,.33,3.53c.26.78.62,1.24,1.05,1.38a2.11,2.11,0,0,0,1.49-.26,7.91,7.91,0,0,0,2.55-2.14,16.6,16.6,0,0,0,2-3.24,29.69,29.69,0,0,0,1.47-3.68c.26-.8.46-1.54.6-2.18s.28-1.18.44-1.67a1.36,1.36,0,0,1,.8-.9,1.84,1.84,0,0,1,1.25,0,1.56,1.56,0,0,1,.91.72,1.52,1.52,0,0,1,.18,1.13,162.15,162.15,0,0,1-4.92,17.71,1.53,1.53,0,0,1-.8.91A1.48,1.48,0,0,1,433.05,274.56Zm-.27-.75a.81.81,0,0,0,.66-.05.84.84,0,0,0,.44-.5,163.32,163.32,0,0,0,4.91-17.63.94.94,0,0,0-.1-.64.91.91,0,0,0-.52-.4,1.12,1.12,0,0,0-.77,0,.67.67,0,0,0-.4.45q-.22.72-.42,1.62c-.15.66-.35,1.42-.62,2.24a28.5,28.5,0,0,1-1.51,3.77,17.24,17.24,0,0,1-2.1,3.38,8.72,8.72,0,0,1-2.78,2.33,2.81,2.81,0,0,1-2,.3,2.58,2.58,0,0,1-1.52-1.82,10.4,10.4,0,0,1-.36-3.79,24.44,24.44,0,0,1,1.1-5.64,23.12,23.12,0,0,1,.81-2.18c.34-.84.68-1.79,1-2.74a.68.68,0,0,0-.08-.59,1.15,1.15,0,0,0-.63-.45.83.83,0,0,0-.64,0,.88.88,0,0,0-.43.46,45.89,45.89,0,0,0-1.77,4.87,25.38,25.38,0,0,0-1.2,6.94,9.43,9.43,0,0,0,.88,4.49,4,4,0,0,0,2.39,2.07,4.1,4.1,0,0,0,2.74-.16,8.42,8.42,0,0,0,3.07-2.17l1-1-.39,1.35c-.5,1.77-.94,3.23-1.3,4.34a.8.8,0,0,0,.05.66A.86.86,0,0,0,432.78,273.81Z"/><path class="cls-1" d="M265.08,235.46c.65-.86,1.21-1.72,1.88-2.49a6.63,6.63,0,0,1,7.18-2.15,6.86,6.86,0,0,1,4,6.23,12,12,0,0,1-2.18,7c-1.54,2.36-3.25,4.61-4.81,7-1.44,2.19-1.37,2.17-3.71,1-2.67-1.36-5.43-2.54-8.07-3.95a10.58,10.58,0,0,1-5.32-5.69c-.88-2.43-.74-4.78,1.09-6.73s4.19-2.21,6.65-1.51A30.1,30.1,0,0,1,265.08,235.46Zm-4.41,10.73a21,21,0,0,1-3.35-3,18.46,18.46,0,0,1-1.69-3.84C255,241.71,257.7,246.22,260.67,246.19Z"/><path d="M269.47,253.16a5.36,5.36,0,0,1-2.06-.78l-.12-.06c-1.18-.6-2.39-1.17-3.57-1.73-1.49-.7-3-1.43-4.51-2.22a10.79,10.79,0,0,1-5.48-5.88c-1-2.8-.62-5.18,1.16-7.09s4.12-2.42,7-1.61a17.55,17.55,0,0,1,2.26.88l.81.36.42-.58c.43-.6.84-1.17,1.3-1.71a7,7,0,0,1,7.57-2.25A7.2,7.2,0,0,1,278.5,237a12.24,12.24,0,0,1-2.23,7.21c-.8,1.23-1.66,2.44-2.5,3.62s-1.57,2.22-2.31,3.35l-.09.13C270.54,252.62,270.13,253.16,269.47,253.16Zm-10-19a5.36,5.36,0,0,0-4,1.75c-1.59,1.7-1.94,3.84-1,6.37a10.11,10.11,0,0,0,5.15,5.5c1.47.78,3,1.51,4.48,2.21,1.18.55,2.4,1.13,3.59,1.73l.12.07c1.9,1,1.9,1,3.06-.8l.08-.12c.75-1.14,1.56-2.28,2.33-3.37s1.69-2.39,2.48-3.61a11.56,11.56,0,0,0,2.12-6.8,6.46,6.46,0,0,0-3.79-5.91,6.25,6.25,0,0,0-6.79,2c-.44.52-.84,1.07-1.26,1.66-.2.27-.39.54-.6.81l-.16.22-.25-.1-1.08-.47a14.31,14.31,0,0,0-2.17-.85A8,8,0,0,0,259.46,234.13Zm1.19,12.41a5.16,5.16,0,0,1-3.87-2.3c-1.26-1.64-1.86-3.64-1.49-5l.27-1,.4.94c.16.38.3.78.44,1.19a10.51,10.51,0,0,0,1.2,2.58,10.74,10.74,0,0,0,2.16,2c.38.3.77.61,1.14.93l.71.61h-1ZM257,243.37c.1.15.2.3.31.44a5.85,5.85,0,0,0,1.89,1.65,10.76,10.76,0,0,1-2.18-2.07Z"/><path class="cls-1" d="M457.8,263c1.05-.22,2.05-.5,3.06-.63a6.61,6.61,0,0,1,6.81,3.12,6.84,6.84,0,0,1-1.11,7.33,11.92,11.92,0,0,1-6.26,3.82c-2.72.76-5.49,1.32-8.22,2.06-2.53.69-2.46.73-3.43-1.72-1.11-2.78-2.4-5.49-3.46-8.29a10.59,10.59,0,0,1-.22-7.79c.94-2.4,2.6-4.08,5.26-4.33s4.6,1.11,6,3.26A30.2,30.2,0,0,1,457.8,263Zm-10.39,5.14a20.62,20.62,0,0,1-.54-4.47,18.45,18.45,0,0,1,1.27-4C446.09,261.05,445.16,266.23,447.41,268.18Z"/><path d="M450.18,279.49c-.87,0-1.16-.58-1.81-2.21l-.05-.13c-.49-1.23-1-2.46-1.53-3.65-.66-1.52-1.33-3.08-1.92-4.65a10.8,10.8,0,0,1-.23-8c1.09-2.77,3-4.3,5.55-4.55s4.7.9,6.32,3.42a15.69,15.69,0,0,1,1.12,2.16c.12.26.24.53.37.79l.71-.16c.72-.16,1.39-.32,2.1-.41a7,7,0,0,1,7.16,3.31,7.19,7.19,0,0,1-1.13,7.71,12.22,12.22,0,0,1-6.45,3.94c-1.41.39-2.86.74-4.27,1.07s-2.64.63-3.95,1l-.14,0A7.85,7.85,0,0,1,450.18,279.49Zm.67-22.56-.59,0c-2.31.22-4,1.6-5,4.11a10.17,10.17,0,0,0,.23,7.53c.59,1.56,1.26,3.11,1.91,4.62.52,1.2,1.05,2.43,1.54,3.67l0,.13c.79,2,.79,2,2.82,1.42l.15,0c1.32-.36,2.67-.68,4-1s2.84-.68,4.25-1.07a11.52,11.52,0,0,0,6.08-3.7,6.5,6.5,0,0,0,1.07-6.94,6.26,6.26,0,0,0-6.46-2.95c-.67.1-1.33.25-2,.41l-1,.22-.27.06-.12-.25c-.18-.36-.34-.71-.5-1.06a16.07,16.07,0,0,0-1.07-2.07A5.94,5.94,0,0,0,450.85,256.93Zm-3,12.12-.7-.61a5.12,5.12,0,0,1-1.41-4.3c.14-2.06,1-4,2.18-4.73l.85-.55-.33,1c-.13.39-.28.79-.44,1.19a9.81,9.81,0,0,0-.81,2.73,11.2,11.2,0,0,0,.29,2.93c.09.48.18,1,.24,1.46Zm-1.36-5.41c0,.18,0,.36,0,.54a5.87,5.87,0,0,0,.32,2.49,11,11,0,0,1-.27-3Z"/><path class="cls-1" d="M129.32,203.07c-2.83-15.53-5.65-31.06-8.51-46.75l-46.5-8.46c0-.12,0-.25,0-.37l9.78-1.79,35.31-6.41c.86-.15,1.46-.35,1.67-1.54,2.36-13.44,4.83-26.87,7.28-40.29a38.53,38.53,0,0,1,1.26-5.28q1.8,9.85,3.59,19.71c1.56,8.57,3.14,17.14,4.62,25.73.26,1.48,1.23,1.58,2.32,1.77l23,4.19c7.29,1.33,14.59,2.63,21.9,4.2l-11.62,2.12q-16.78,3-33.59,6.07c-1.15.2-1.79.59-2,1.85q-4,22.63-8.15,45.26Z"/><path d="M129.92,203.44l-.9,0-.05-.28-8.46-46.51L74,148.15l0-1,3.47-.64,6.6-1.21L97,143,119.33,139c.79-.15,1.21-.27,1.38-1.26,1.94-11.07,4-22.3,6-33.17l1.3-7.13a39.92,39.92,0,0,1,1.27-5.32l.43-1.31,1.37,7.49q1.24,6.78,2.48,13.58l.89,4.91c1.24,6.82,2.53,13.87,3.73,20.82.2,1.16.87,1.28,1.87,1.46l.16,0,11.2,2,11.77,2.15,1.39.25c6.72,1.22,13.67,2.48,20.52,3.95l1.73.37-5.3,1-8.06,1.47L167,151.42q-13.56,2.46-27.1,4.89c-1,.18-1.54.46-1.74,1.57-2.13,12-4.33,24.18-6.47,36ZM75.25,147.67,121.12,156l3.12,17.15,5.23,28.8,1.49-8.25c2.14-11.79,4.34-24,6.47-36a2.38,2.38,0,0,1,2.3-2.14q13.56-2.42,27.1-4.89l6.49-1.18,8.05-1.46,1.81-.33c-6.27-1.32-12.6-2.46-18.75-3.58l-1.39-.25-11.77-2.15-11.2-2-.16,0c-1-.18-2.16-.38-2.44-2-1.2-7-2.49-14-3.73-20.82l-.89-4.91q-1.23-6.8-2.48-13.57l-.86-4.7c-.32,1.2-.57,2.44-.83,3.84l-1.3,7.13c-2,10.86-4,22.1-6,33.16a2,2,0,0,1-1.94,1.83L97.08,143.7,84.14,146l-6.61,1.21Z"/><path class="cls-1" d="M589.74,611.55c-2.83-15.53-5.65-31.06-8.51-46.75l-46.5-8.46c0-.12,0-.24,0-.37l9.78-1.79,35.31-6.41c.86-.15,1.46-.35,1.67-1.54,2.36-13.44,4.83-26.86,7.28-40.29a40.38,40.38,0,0,1,1.25-5.28q1.8,9.85,3.6,19.71c1.56,8.57,3.14,17.14,4.62,25.73.26,1.48,1.23,1.58,2.32,1.78l23,4.19c7.29,1.32,14.59,2.62,21.9,4.19l-11.62,2.12q-16.78,3-33.59,6.07c-1.15.2-1.79.59-2,1.85q-4,22.63-8.15,45.26Z"/><path d="M590.34,611.92l-.9,0-.05-.28-8.46-46.51-46.54-8.47,0-1,3.46-.64,6.61-1.21,13-2.34,22.37-4.06c.79-.15,1.2-.27,1.38-1.26,1.94-11.06,4-22.3,6-33.17l1.3-7.13a39.92,39.92,0,0,1,1.27-5.32l.43-1.31,1.37,7.49q1.24,6.79,2.48,13.58l.89,4.91c1.24,6.82,2.53,13.87,3.73,20.82.2,1.17.86,1.28,1.87,1.46l.16,0,11.2,2,11.77,2.15L625,552c6.72,1.22,13.67,2.48,20.52,3.95l1.73.37-5.3,1-8.06,1.47-6.49,1.17q-13.54,2.46-27.09,4.89c-1,.18-1.54.47-1.74,1.57-2.13,12-4.33,24.18-6.47,36Zm-54.67-55.77,45.87,8.35,3.12,17.15,5.23,28.8,1.49-8.25c2.14-11.78,4.34-24,6.47-36a2.38,2.38,0,0,1,2.3-2.14q13.56-2.42,27.1-4.89l6.49-1.17,8-1.47,1.81-.33c-6.27-1.31-12.61-2.46-18.75-3.58l-1.39-.25-11.77-2.15-11.21-2-.15,0c-1-.18-2.16-.38-2.44-2-1.2-6.95-2.49-14-3.73-20.81l-.89-4.92q-1.23-6.78-2.48-13.57l-.86-4.69c-.32,1.19-.57,2.43-.83,3.83l-1.3,7.13c-2,10.86-4,22.1-6,33.16a2,2,0,0,1-1.94,1.83l-22.38,4.06-12.94,2.34L538,555.74Z"/><path class="cls-1" d="M104.05,289.4c-1.86-10.18-3.71-20.35-5.58-30.64L68,253.21V253l6.4-1.17,23.15-4.2c.56-.1.95-.23,1.09-1,1.55-8.81,3.17-17.61,4.77-26.41a25.2,25.2,0,0,1,.83-3.46q1.17,6.47,2.36,12.92c1,5.62,2,11.23,3,16.86.17,1,.81,1,1.52,1.17l15.06,2.74c4.78.87,9.56,1.73,14.35,2.75l-7.61,1.39q-11,2-22,4c-.75.13-1.17.38-1.32,1.21q-2.64,14.85-5.34,29.67Z"/><path d="M104.54,289.77l-.79,0-.73-4-4.85-26.65-30.52-5.55,0-.83,2.26-.41,4.44-.82L83,249.88l14.49-2.63c.5-.09.7-.15.8-.72,1.28-7.28,2.63-14.68,3.94-21.83l.84-4.59a26,26,0,0,1,.83-3.5l.43-1.31,1,5.64c.52,2.88,1,5.76,1.57,8.63l.58,3.18c.82,4.49,1.66,9.12,2.45,13.69.11.65.43.74,1.13.86l.1,0,7.31,1.33,7.75,1.42.93.16c4.4.8,8.95,1.63,13.43,2.59l1.73.37-13.6,2.48c-5.92,1.07-11.84,2.15-17.77,3.2-.7.13-.93.33-1,.93q-2.11,11.83-4.26,23.64ZM69.28,253.09l29.49,5.37,0,.24,5.33,29.3.84-4.68q2.15-11.82,4.26-23.64a1.67,1.67,0,0,1,1.6-1.5c5.92-1.05,11.84-2.13,17.76-3.2l10.11-1.84c-3.91-.81-7.84-1.52-11.67-2.21l-.93-.17-7.75-1.42-7.3-1.33-.11,0c-.66-.12-1.49-.26-1.69-1.43-.79-4.56-1.64-9.2-2.45-13.68l-.58-3.18c-.52-2.88-1-5.75-1.57-8.63l-.52-2.8c-.14.62-.27,1.26-.4,2l-.84,4.59c-1.3,7.15-2.66,14.54-3.93,21.82a1.41,1.41,0,0,1-1.38,1.29l-14.49,2.63-8.66,1.57L70,253Z"/><path class="cls-1" d="M627.32,510.49c-1.55-8.51-3.1-17-4.66-25.6l-25.47-4.64v-.2l5.35-1,19.34-3.51c.47-.09.8-.19.91-.84,1.3-7.37,2.65-14.72,4-22.07a21.27,21.27,0,0,1,.69-2.89q1,5.4,2,10.79c.85,4.7,1.72,9.39,2.53,14.09.14.81.67.87,1.27,1l12.58,2.29c4,.73,8,1.44,12,2.3l-6.36,1.16c-6.13,1.11-12.26,2.23-18.4,3.32-.63.11-1,.33-1.1,1q-2.21,12.39-4.46,24.78Z"/><path d="M627.78,510.85l-.76,0-4.66-25.64-25.51-4.64,0-.79,1.93-.36,3.72-.68,7.07-1.28,12.27-2.23c.41-.07.55-.12.63-.56,1.07-6.11,2.21-12.32,3.3-18.32l.69-3.74a19.8,19.8,0,0,1,.7-2.94l.43-1.31.86,4.74c.45,2.47.91,4.94,1.36,7.41l.48,2.68c.68,3.74,1.39,7.6,2.05,11.41.08.51.29.57.89.67l.09,0,6.1,1.11,6.48,1.18.78.15c3.68.66,7.48,1.35,11.22,2.16l1.73.37-11.39,2.07q-7.54,1.38-15.1,2.73c-.57.1-.74.25-.82.73q-1.72,9.69-3.49,19.36Zm-29.19-30.7L623,484.58,627.4,509l.72-4q1.75-9.69,3.49-19.36a1.46,1.46,0,0,1,1.38-1.3q7.56-1.35,15.11-2.73l7.89-1.43c-3.17-.65-6.36-1.23-9.45-1.79l-.79-.14-6.48-1.19-6.1-1.11h-.08c-.58-.11-1.29-.23-1.47-1.25-.65-3.8-1.36-7.67-2-11.4l-.49-2.69c-.44-2.47-.9-4.94-1.35-7.41l-.34-1.86c-.1.43-.18.88-.27,1.37l-.69,3.74c-1.09,6-2.23,12.21-3.3,18.33A1.24,1.24,0,0,1,622,475.9l-12.28,2.23-7.07,1.28-3.72.68Z"/></svg>