  0
SECTION
  2
HEADER
  9
$ACADVER
  1
AC1032
  9
$ACADMAINTVER
 90
      228
  9
$DWGCODEPAGE
  3
ANSI_1252
  9
$REQUIREDVERSIONS
160
                 0
  9
$INSBASE
 10
0.0
 20
0.0
 30
0.0
  9
$EXTMIN
 10
1.000000000000000E+20
 20
1.000000000000000E+20
 30
1.000000000000000E+20
  9
$EXTMAX
 10
-1.000000000000000E+20
 20
-1.000000000000000E+20
 30
-1.000000000000000E+20
  9
$LIMMIN
 10
0.0
 20
0.0
  9
$LIMMAX
 10
12.0
 20
9.0
  9
$ORTHOMODE
 70
     0
  9
$REGENMODE
 70
     1
  9
$FILLMODE
 70
     1
  9
$QTEXTMODE
 70
     0
  9
$MIRRTEXT
 70
     0
  9
$LTSCALE
 40
1.0
  9
$ATTMODE
 70
     1
  9
$TEXTSIZE
 40
0.2
  9
$TRACEWID
 40
0.05
  9
$TEXTSTYLE
  7
Standard
  9
$CLAYER
  8
0
  9
$CELTYPE
  6
ByLayer
  9
$CECOLOR
 62
   256
  9
$CELTSCALE
 40
1.0
  9
$DISPSILH
 70
     0
  9
$DIMSCALE
 40
1.0
  9
$DIMASZ
 40
0.18
  9
$DIMEXO
 40
0.0625
  9
$DIMDLI
 40
0.38
  9
$DIMRND
 40
0.0
  9
$DIMDLE
 40
0.0
  9
$DIMEXE
 40
0.18
  9
$DIMTP
 40
0.0
  9
$DIMTM
 40
0.0
  9
$DIMTXT
 40
0.18
  9
$DIMCEN
 40
0.09
  9
$DIMTSZ
 40
0.0
  9
$DIMTOL
 70
     0
  9
$DIMLIM
 70
     0
  9
$DIMTIH
 70
     1
  9
$DIMTOH
 70
     1
  9
$DIMSE1
 70
     0
  9
$DIMSE2
 70
     0
  9
$DIMTAD
 70
     0
  9
$DIMZIN
 70
     0
  9
$DIMBLK
  1

  9
$DIMASO
 70
     1
  9
$DIMSHO
 70
     1
  9
$DIMPOST
  1

  9
$DIMAPOST
  1

  9
$DIMALT
 70
     0
  9
$DIMALTD
 70
     2
  9
$DIMALTF
 40
25.4
  9
$DIMLFAC
 40
1.0
  9
$DIMTOFL
 70
     0
  9
$DIMTVP
 40
0.0
  9
$DIMTIX
 70
     0
  9
$DIMSOXD
 70
     0
  9
$DIMSAH
 70
     0
  9
$DIMBLK1
  1

  9
$DIMBLK2
  1

  9
$DIMSTYLE
  2
Standard
  9
$DIMCLRD
 70
     0
  9
$DIMCLRE
 70
     0
  9
$DIMCLRT
 70
     0
  9
$DIMTFAC
 40
1.0
  9
$DIMGAP
 40
0.09
  9
$DIMJUST
 70
     0
  9
$DIMSD1
 70
     0
  9
$DIMSD2
 70
     0
  9
$DIMTOLJ
 70
     1
  9
$DIMTZIN
 70
     0
  9
$DIMALTZ
 70
     0
  9
$DIMALTTZ
 70
     0
  9
$DIMUPT
 70
     0
  9
$DIMDEC
 70
     4
  9
$DIMTDEC
 70
     4
  9
$DIMALTU
 70
     2
  9
$DIMALTTD
 70
     2
  9
$DIMTXSTY
  7
Standard
  9
$DIMAUNIT
 70
     0
  9
$DIMADEC
 70
     0
  9
$DIMALTRND
 40
0.0
  9
$DIMAZIN
 70
     0
  9
$DIMDSEP
 70
    46
  9
$DIMATFIT
 70
     3
  9
$DIMFRAC
 70
     0
  9
$DIMLDRBLK
  1

  9
$DIMLUNIT
 70
     2
  9
$DIMLWD
 70
    -2
  9
$DIMLWE
 70
    -2
  9
$DIMTMOVE
 70
     0
  9
$DIMFXL
 40
1.0
  9
$DIMFXLON
 70
     0
  9
$DIMJOGANG
 40
0.7853981633974483
  9
$DIMTFILL
 70
     0
  9
$DIMTFILLCLR
 70
     0
  9
$DIMARCSYM
 70
     0
  9
$DIMLTYPE
  6

  9
$DIMLTEX1
  6

  9
$DIMLTEX2
  6

  9
$DIMTXTDIRECTION
 70
     0
  9
$LUNITS
 70
     2
  9
$LUPREC
 70
     4
  9
$SKETCHINC
 40
0.1
  9
$FILLETRAD
 40
0.0
  9
$AUNITS
 70
     0
  9
$AUPREC
 70
     0
  9
$MENU
  1
.
  9
$ELEVATION
 40
0.0
  9
$PELEVATION
 40
0.0
  9
$THICKNESS
 40
0.0
  9
$LIMCHECK
 70
     0
  9
$CHAMFERA
 40
0.0
  9
$CHAMFERB
 40
0.0
  9
$CHAMFERC
 40
0.0
  9
$CHAMFERD
 40
0.0
  9
$SKPOLY
 70
     0
  9
$TDCREATE
 40
2459907.547141204
  9
$TDUCREATE
 40
2459907.463807870
  9
$TDUPDATE
 40
2459907.547141204
  9
$TDUUPDATE
 40
2459907.463807870
  9
$TDINDWG
 40
0.0000000000
  9
$TDUSRTIMER
 40
0.0000000000
  9
$USRTIMER
 70
     1
  9
$ANGBASE
 50
0.0
  9
$ANGDIR
 70
     0
  9
$PDMODE
 70
     0
  9
$PDSIZE
 40
0.0
  9
$PLINEWID
 40
0.0
  9
$SPLFRAME
 70
     0
  9
$SPLINETYPE
 70
     6
  9
$SPLINESEGS
 70
     8
  9
$HANDSEED
  5
95
  9
$SURFTAB1
 70
     6
  9
$SURFTAB2
 70
     6
  9
$SURFTYPE
 70
     6
  9
$SURFU
 70
     6
  9
$SURFV
 70
     6
  9
$UCSBASE
  2

  9
$UCSNAME
  2

  9
$UCSORG
 10
0.0
 20
0.0
 30
0.0
  9
$UCSXDIR
 10
1.0
 20
0.0
 30
0.0
  9
$UCSYDIR
 10
0.0
 20
1.0
 30
0.0
  9
$UCSORTHOREF
  2

  9
$UCSORTHOVIEW
 70
     0
  9
$UCSORGTOP
 10
0.0
 20
0.0
 30
0.0
  9
$UCSORGBOTTOM
 10
0.0
 20
0.0
 30
0.0
  9
$UCSORGLEFT
 10
0.0
 20
0.0
 30
0.0
  9
$UCSORGRIGHT
 10
0.0
 20
0.0
 30
0.0
  9
$UCSORGFRONT
 10
0.0
 20
0.0
 30
0.0
  9
$UCSORGBACK
 10
0.0
 20
0.0
 30
0.0
  9
$PUCSBASE
  2

  9
$PUCSNAME
  2

  9
$PUCSORG
 10
0.0
 20
0.0
 30
0.0
  9
$PUCSXDIR
 10
1.0
 20
0.0
 30
0.0
  9
$PUCSYDIR
 10
0.0
 20
1.0
 30
0.0
  9
$PUCSORTHOREF
  2

  9
$PUCSORTHOVIEW
 70
     0
  9
$PUCSORGTOP
 10
0.0
 20
0.0
 30
0.0
  9
$PUCSORGBOTTOM
 10
0.0
 20
0.0
 30
0.0
  9
$PUCSORGLEFT
 10
0.0
 20
0.0
 30
0.0
  9
$PUCSORGRIGHT
 10
0.0
 20
0.0
 30
0.0
  9
$PUCSORGFRONT
 10
0.0
 20
0.0
 30
0.0
  9
$PUCSORGBACK
 10
0.0
 20
0.0
 30
0.0
  9
$USERI1
 70
     0
  9
$USERI2
 70
     0
  9
$USERI3
 70
     0
  9
$USERI4
 70
     0
  9
$USERI5
 70
     0
  9
$USERR1
 40
0.0
  9
$USERR2
 40
0.0
  9
$USERR3
 40
0.0
  9
$USERR4
 40
0.0
  9
$USERR5
 40
0.0
  9
$WORLDVIEW
 70
     1
  9
$SHADEDGE
 70
     3
  9
$SHADEDIF
 70
    70
  9
$TILEMODE
 70
     1
  9
$MAXACTVP
 70
    64
  9
$PINSBASE
 10
0.0
 20
0.0
 30
0.0
  9
$PLIMCHECK
 70
     0
  9
$PEXTMIN
 10
1.000000000000000E+20
 20
1.000000000000000E+20
 30
1.000000000000000E+20
  9
$PEXTMAX
 10
-1.000000000000000E+20
 20
-1.000000000000000E+20
 30
-1.000000000000000E+20
  9
$PLIMMIN
 10
0.0
 20
0.0
  9
$PLIMMAX
 10
12.0
 20
9.0
  9
$UNITMODE
 70
     0
  9
$VISRETAIN
 70
     1
  9
$PLINEGEN
 70
     0
  9
$PSLTSCALE
 70
     1
  9
$TREEDEPTH
 70
  3020
  9
$CMLSTYLE
  2
Standard
  9
$CMLJUST
 70
     0
  9
$CMLSCALE
 40
1.0
  9
$PROXYGRAPHICS
 70
     1
  9
$MEASUREMENT
 70
     0
  9
$CELWEIGHT
370
    -1
  9
$ENDCAPS
280
     0
  9
$JOINSTYLE
280
     0
  9
$LWDISPLAY
290
     1
  9
$INSUNITS
 70
     0
  9
$HYPERLINKBASE
  1

  9
$STYLESHEET
  1

  9
$XEDIT
290
     1
  9
$CEPSNTYPE
380
     0
  9
$PSTYLEMODE
290
     1
  9
$FINGERPRINTGUID
  2
{9D795DEC-75F2-1945-97BF-E0BEB5A2915F}
  9
$VERSIONGUID
  2
{4983990E-5BDE-C24E-B683-839510327091}
  9
$EXTNAMES
290
     1
  9
$PSVPSCALE
 40
0.0
  9
$OLESTARTUP
290
     0
  9
$SORTENTS
280
   127
  9
$INDEXCTL
280
     0
  9
$HIDETEXT
280
     1
  9
$XCLIPFRAME
280
     2
  9
$HALOGAP
280
     0
  9
$OBSCOLOR
 70
   257
  9
$OBSLTYPE
280
     0
  9
$INTERSECTIONDISPLAY
280
     0
  9
$INTERSECTIONCOLOR
 70
   257
  9
$DIMASSOC
280
     2
  9
$PROJECTNAME
  1

  9
$CAMERADISPLAY
290
     0
  9
$LENSLENGTH
 40
50.0
  9
$CAMERAHEIGHT
 40
0.0
  9
$STEPSPERSEC
 40
2.0
  9
$STEPSIZE
 40
6.0
  9
$3DDWFPREC
 40
2.0
  9
$PSOLWIDTH
 40
0.25
  9
$PSOLHEIGHT
 40
4.0
  9
$LOFTANG1
 40
1.570796326794896
  9
$LOFTANG2
 40
1.570796326794896
  9
$LOFTMAG1
 40
0.0
  9
$LOFTMAG2
 40
0.0
  9
$LOFTPARAM
 70
     7
  9
$LOFTNORMALS
280
     1
  9
$LATITUDE
 40
37.795
  9
$LONGITUDE
 40
-122.394
  9
$NORTHDIRECTION
 40
0.0
  9
$TIMEZONE
 70
 -8000
  9
$LIGHTGLYPHDISPLAY
280
     1
  9
$TILEMODELIGHTSYNCH
280
     1
  9
$CMATERIAL
347
11
  9
$SOLIDHIST
280
     0
  9
$SHOWHIST
280
     1
  9
$DWFFRAME
280
     2
  9
$DGNFRAME
280
     0
  9
$REALWORLDSCALE
290
     1
  9
$INTERFERECOLOR
 62
     1
  9
$INTERFEREOBJVS
345
33
  9
$INTERFEREVPVS
346
30
  9
$CSHADOW
280
     0
  9
$SHADOWPLANELOCATION
 40
0.0
  0
ENDSEC
  0
SECTION
  2
CLASSES
  0
CLASS
  1
ACDBDICTIONARYWDFLT
  2
AcDbDictionaryWithDefault
  3
ObjectDBX Classes
 90
        0
 91
        1
280
     0
281
     0
  0
CLASS
  1
MATERIAL
  2
AcDbMaterial
  3
ObjectDBX Classes
 90
     1153
 91
        3
280
     0
281
     0
  0
CLASS
  1
VISUALSTYLE
  2
AcDbVisualStyle
  3
ObjectDBX Classes
 90
     4095
 91
       24
280
     0
281
     0
  0
CLASS
  1
SCALE
  2
AcDbScale
  3
ObjectDBX Classes
 90
     1153
 91
       17
280
     0
281
     0
  0
CLASS
  1
TABLESTYLE
  2
AcDbTableStyle
  3
ObjectDBX Classes
 90
     4095
 91
        1
280
     0
281
     0
  0
CLASS
  1
MLEADERSTYLE
  2
AcDbMLeaderStyle
  3
ACDB_MLEADERSTYLE_CLASS
 90
     4095
 91
        1
280
     0
281
     0
  0
CLASS
  1
ACDBSECTIONVIEWSTYLE
  2
AcDbSectionViewStyle
  3
ObjectDBX Classes
 90
     1025
 91
        1
280
     0
281
     0
  0
CLASS
  1
ACDBDETAILVIEWSTYLE
  2
AcDbDetailViewStyle
  3
ObjectDBX Classes
 90
     1025
 91
        1
280
     0
281
     0
  0
CLASS
  1
DICTIONARYVAR
  2
AcDbDictionaryVar
  3
ObjectDBX Classes
 90
        0
 91
        5
280
     0
281
     0
  0
CLASS
  1
CELLSTYLEMAP
  2
AcDbCellStyleMap
  3
ObjectDBX Classes
 90
     1152
 91
        1
280
     0
281
     0
  0
ENDSEC
  0
SECTION
  2
TABLES
  0
TABLE
  2
VPORT
  5
8
330
0
100
AcDbSymbolTable
 70
     1
  0
VPORT
  5
57
330
8
100
AcDbSymbolTableRecord
100
AcDbViewportTableRecord
  2
*Active
 70
     0
 10
0.0
 20
0.0
 11
1.0
 21
1.0
 12
0.0
 22
0.0
 13
0.0
 23
0.0
 14
1.0
 24
1.0
 15
0.0
 25
0.0
 16
0.0
 26
0.0
 36
1.0
 17
1171.0
 27
-1197.0
 37
0.0
 40
728.2799999999999
 41
1.0
 42
50.0
 43
0.0
 44
0.0
 50
0.0
 51
0.0
 71
     0
 72
   100
 73
     1
 74
     1
 75
     0
 76
     0
 77
     0
 78
     0
281
     0
 65
     1
110
0.0
120
0.0
130
0.0
111
1.0
121
0.0
131
0.0
112
0.0
122
1.0
132
0.0
 79
     0
146
0.0
 60
     3
 61
     5
292
     1
282
     1
141
0.0
142
0.0
 63
   250
421
  3355443
  0
ENDTAB
  0
TABLE
  2
LTYPE
  5
5
330
0
100
AcDbSymbolTable
 70
     1
  0
LTYPE
  5
5B
330
5
100
AcDbSymbolTableRecord
100
AcDbLinetypeTableRecord
  2
ByBlock
 70
     0
  3

 72
    65
 73
     0
 40
0.0
  0
LTYPE
  5
5C
330
5
100
AcDbSymbolTableRecord
100
AcDbLinetypeTableRecord
  2
ByLayer
 70
     0
  3

 72
    65
 73
     0
 40
0.0
  0
LTYPE
  5
5D
330
5
100
AcDbSymbolTableRecord
100
AcDbLinetypeTableRecord
  2
Continuous
 70
     0
  3
Solid line
 72
    65
 73
     0
 40
0.0
  0
ENDTAB
  0
TABLE
  2
LAYER
  5
2
330
0
100
AcDbSymbolTable
 70
     2
  0
LAYER
  5
54
330
2
100
AcDbSymbolTableRecord
100
AcDbLayerTableRecord
  2
0
 70
     0
 62
     7
  6
Continuous
370
    -3
390
F
347
21
348
0
  0
LAYER
  5
78
330
2
100
AcDbSymbolTableRecord
100
AcDbLayerTableRecord
  2
Layer 1
 70
     0
 62
     7
  6
Continuous
370
     0
390
F
347
21
348
0
  0
ENDTAB
  0
TABLE
  2
STYLE
  5
3
330
0
100
AcDbSymbolTable
 70
     2
  0
STYLE
  5
55
330
3
100
AcDbSymbolTableRecord
100
AcDbTextStyleTableRecord
  2
Standard
 70
     0
 40
0.0
 41
1.0
 50
0.0
 71
     0
 42
0.2
  3
txt
  4

  0
STYLE
  5
5A
330
3
100
AcDbSymbolTableRecord
100
AcDbTextStyleTableRecord
  2
Annotative
 70
     0
 40
0.0
 41
1.0
 50
0.0
 71
     0
 42
0.2
  3
txt
  4

1001
AcadAnnotative
1000
AnnotativeData
1002
{
1070
     1
1070
     1
1002
}
  0
ENDTAB
  0
TABLE
  2
VIEW
  5
6
330
0
100
AcDbSymbolTable
 70
     0
  0
ENDTAB
  0
TABLE
  2
UCS
  5
7
330
0
100
AcDbSymbolTable
 70
     0
  0
ENDTAB
  0
TABLE
  2
APPID
  5
9
330
0
100
AcDbSymbolTable
 70
     2
  0
APPID
  5
56
330
9
100
AcDbSymbolTableRecord
100
AcDbRegAppTableRecord
  2
ACAD
 70
     0
  0
APPID
  5
5E
330
9
100
AcDbSymbolTableRecord
100
AcDbRegAppTableRecord
  2
AcadAnnotative
 70
     0
  0
ENDTAB
  0
TABLE
  2
DIMSTYLE
  5
A
330
0
100
AcDbSymbolTable
 70
     2
100
AcDbDimStyleTable
 71
     0
  0
DIMSTYLE
105
58
330
A
100
AcDbSymbolTableRecord
100
AcDbDimStyleTableRecord
  2
Standard
 70
     0
340
55
  0
DIMSTYLE
105
59
330
A
100
AcDbSymbolTableRecord
100
AcDbDimStyleTableRecord
  2
Annotative
 70
     0
340
55
1001
AcadAnnotative
1000
AnnotativeData
1002
{
1070
     1
1070
     1
1002
}
  0
ENDTAB
  0
TABLE
  2
BLOCK_RECORD
  5
1
330
0
100
AcDbSymbolTable
 70
     2
  0
BLOCK_RECORD
  5
70
330
1
100
AcDbSymbolTableRecord
100
AcDbBlockTableRecord
  2
*Model_Space
340
73
 70
     0
280
     1
281
     0
  0
BLOCK_RECORD
  5
6C
330
1
100
AcDbSymbolTableRecord
100
AcDbBlockTableRecord
  2
*Paper_Space
340
6F
 70
     0
280
     1
281
     0
  0
BLOCK_RECORD
  5
74
330
1
100
AcDbSymbolTableRecord
100
AcDbBlockTableRecord
  2
*Paper_Space0
340
77
 70
     0
280
     1
281
     0
  0
BLOCK_RECORD
  5
79
330
1
100
AcDbSymbolTableRecord
100
AcDbBlockTableRecord
  2
Block_0
340
0
102
{BLKREFS
331
7A
102
}
 70
     0
280
     1
281
     0
  0
ENDTAB
  0
ENDSEC
  0
SECTION
  2
BLOCKS
  0
BLOCK
  5
71
330
70
100
AcDbEntity
  8
0
100
AcDbBlockBegin
  2
*Model_Space
 70
     0
 10
0.0
 20
0.0
 30
0.0
  3
*Model_Space
  1

  0
ENDBLK
  5
72
330
70
100
AcDbEntity
  8
0
100
AcDbBlockEnd
  0
BLOCK
  5
6D
330
6C
100
AcDbEntity
 67
     1
  8
0
100
AcDbBlockBegin
  2
*Paper_Space
 70
     0
 10
0.0
 20
0.0
 30
0.0
  3
*Paper_Space
  1

  0
ENDBLK
  5
6E
330
6C
100
AcDbEntity
 67
     1
  8
0
100
AcDbBlockEnd
  0
BLOCK
  5
75
330
74
100
AcDbEntity
 67
     1
  8
0
100
AcDbBlockBegin
  2
*Paper_Space0
 70
     0
 10
0.0
 20
0.0
 30
0.0
  3
*Paper_Space0
  1

  0
ENDBLK
  5
76
330
74
100
AcDbEntity
 67
     1
  8
0
100
AcDbBlockEnd
  0
BLOCK
  5
7B
330
79
100
AcDbEntity
  8
0
100
AcDbBlockBegin
  2
Block_0
 70
     0
 10
0.0
 20
0.0
 30
0.0
  3
Block_0
  1

  0
SPLINE
  5
7D
330
79
100
AcDbEntity
  8
Layer 1
100
AcDbSpline
210
0.0
220
0.0
230
1.0
 70
     9
 71
     3
 72
    23
 73
    19
 74
     0
 42
0.0000000001
 43
0.0000000001
 40
0.0
 40
0.0
 40
0.0
 40
0.0
 40
1.0
 40
1.0
 40
1.0
 40
2.0
 40
2.0
 40
2.0
 40
3.0
 40
3.0
 40
3.0
 40
4.0
 40
4.0
 40
4.0
 40
5.0
 40
5.0
 40
5.0
 40
6.0
 40
6.0
 40
6.0
 40
6.0
 10
957.0859985351562
 20
-1265.287719726561
 30
0.0
 10
957.5911254882813
 20
-1263.37036132813
 30
0.0
 10
959.8561401367188
 20
-1262.54956054688
 30
0.0
 10
961.8289794921874
 20
-1262.35107421875
 30
0.0
 10
966.6134033203125
 20
-1261.8701171875
 30
0.0
 10
971.698486328125
 20
-1263.43505859375
 30
0.0
 10
974.9483642578125
 20
-1266.97900390625
 30
0.0
 10
978.1982421875
 20
-1270.52319335938
 30
0.0
 10
979.2694091796875
 20
-1276.09912109375
 30
0.0
 10
977.0335693359374
 20
-1280.35620117188
 30
0.0
 10
974.7976684570312
 20
-1284.61328125
 30
0.0
 10
969.1220703124999
 20
-1286.88647460938
 30
0.0
 10
964.1405639648437
 20
-1284.329956054689
 30
0.0
 10
962.000732421875
 20
-1279.166870117189
 30
0.0
 10
959.86083984375
 20
-1274.003784179689
 30
0.0
 10
957.7210083007813
 20
-1268.84057617188
 30
0.0
 10
957.2515869140625
 20
-1267.7080078125
 30
0.0
 10
956.7736816406251
 20
-1266.473266601561
 30
0.0
 10
957.0859985351562
 20
-1265.287719726561
 30
0.0
  0
SPLINE
  5
7E
330
79
100
AcDbEntity
  8
Layer 1
100
AcDbSpline
210
0.0
220
0.0
230
1.0
 70
     9
 71
     3
 72
    38
 73
    34
 74
     0
 42
0.0000000001
 43
0.0000000001
 40
0.0
 40
0.0
 40
0.0
 40
0.0
 40
1.0
 40
1.0
 40
1.0
 40
2.0
 40
2.0
 40
2.0
 40
3.0
 40
3.0
 40
3.0
 40
4.0
 40
4.0
 40
4.0
 40
5.0
 40
5.0
 40
5.0
 40
6.0
 40
6.0
 40
6.0
 40
7.0
 40
7.0
 40
7.0
 40
8.0
 40
8.0
 40
8.0
 40
9.0
 40
9.0
 40
9.0
 40
10.0
 40
10.0
 40
10.0
 40
11.0
 40
11.0
 40
11.0
 40
11.0
 10
985.8641357421875
 20
-1286.380859375
 30
0.0
 10
991.6165771484374
 20
-1275.74829101563
 30
0.0
 10
989.7495727539062
 20
-1261.1103515625
 30
0.0
 10
980.5375976562499
 20
-1253.2822265625
 30
0.0
 10
972.15673828125
 20
-1246.16015625
 30
0.0
 10
959.625732421875
 20
-1245.65881347656
 30
0.0
 10
949.2962036132812
 20
-1249.43530273438
 30
0.0
 10
945.75732421875
 20
-1250.72900390625
 30
0.0
 10
942.0199584960938
 20
-1252.91235351563
 30
0.0
 10
941.1334228515626
 20
-1256.5654296875
 30
0.0
 10
939.6993408203124
 20
-1257.38159179688
 30
0.0
 10
938.3126831054687
 20
-1258.33544921875
 30
0.0
 10
936.9937744140624
 20
-1259.24755859375
 30
0.0
 10
922.15771484375
 20
-1269.5087890625
 30
0.0
 10
905.1429443359374
 20
-1276.32177734375
 30
0.0
 10
887.6849975585937
 20
-1280.86279296875
 30
0.0
 10
870.22705078125
 20
-1285.40405273438
 30
0.0
 10
852.274169921875
 20
-1287.73657226563
 30
0.0
 10
834.3312377929688
 20
-1289.59521484375
 30
0.0
 10
831.7705078124999
 20
-1289.86047363281
 30
0.0
 10
828.4331665039061
 20
-1290.97485351563
 30
0.0
 10
828.6271362304686
 20
-1293.5419921875
 30
0.0
 10
828.7803955078125
 20
-1295.56982421875
 30
0.0
 10
831.1239624023437
 20
-1296.56127929688
 30
0.0
 10
833.0874633789061
 20
-1297.09057617188
 30
0.0
 10
864.8108520507813
 20
-1305.64135742188
 30
0.0
 10
897.888671875
 20
-1308.83056640625
 30
0.0
 10
930.7199096679687
 20
-1307.56689453125
 30
0.0
 10
939.8565673828125
 20
-1307.21508789063
 30
0.0
 10
949.3071899414061
 20
-1306.37915039063
 30
0.0
 10
958.0188598632812
 20
-1303.78283691406
 30
0.0
 10
969.1348876953124
 20
-1302.68725585938
 30
0.0
 10
980.4057006835938
 20
-1296.46997070313
 30
0.0
 10
985.8641357421875
 20
-1286.380859375
 30
0.0
  0
HATCH
  5
7F
330
79
100
AcDbEntity
  8
Layer 1
 62
    18
420
        0
440
 33554687
100
AcDbHatch
 10
0.0
 20
0.0
 30
0.0
210
0.0
220
0.0
230
1.0
  2
SOLID
 70
     1
 71
     1
 91
        2
 92
        1
 93
        1
 72
     4
 94
        3
 73
     0
 74
     0
 95
       23
 96
       19
 40
0.0
 40
0.0
 40
0.0
 40
0.0
 40
1.0
 40
1.0
 40
1.0
 40
2.0
 40
2.0
 40
2.0
 40
3.0
 40
3.0
 40
3.0
 40
4.0
 40
4.0
 40
4.0
 40
5.0
 40
5.0
 40
5.0
 40
6.0
 40
6.0
 40
6.0
 40
6.0
 10
957.0859985351562
 20
-1265.287719726561
 10
957.5911254882813
 20
-1263.37036132813
 10
959.8561401367188
 20
-1262.54956054688
 10
961.8289794921874
 20
-1262.35107421875
 10
966.6134033203125
 20
-1261.8701171875
 10
971.698486328125
 20
-1263.43505859375
 10
974.9483642578125
 20
-1266.97900390625
 10
978.1982421875
 20
-1270.52319335938
 10
979.2694091796875
 20
-1276.09912109375
 10
977.0335693359374
 20
-1280.35620117188
 10
974.7976684570312
 20
-1284.61328125
 10
969.1220703124999
 20
-1286.88647460938
 10
964.1405639648437
 20
-1284.329956054689
 10
962.000732421875
 20
-1279.166870117189
 10
959.86083984375
 20
-1274.003784179689
 10
957.7210083007813
 20
-1268.84057617188
 10
957.2515869140625
 20
-1267.7080078125
 10
956.7736816406251
 20
-1266.473266601561
 10
957.0859985351562
 20
-1265.287719726561
 97
        0
 97
        1
330
7D
 92
        1
 93
        1
 72
     4
 94
        3
 73
     0
 74
     0
 95
       38
 96
       34
 40
0.0
 40
0.0
 40
0.0
 40
0.0
 40
1.0
 40
1.0
 40
1.0
 40
2.0
 40
2.0
 40
2.0
 40
3.0
 40
3.0
 40
3.0
 40
4.0
 40
4.0
 40
4.0
 40
5.0
 40
5.0
 40
5.0
 40
6.0
 40
6.0
 40
6.0
 40
7.0
 40
7.0
 40
7.0
 40
8.0
 40
8.0
 40
8.0
 40
9.0
 40
9.0
 40
9.0
 40
10.0
 40
10.0
 40
10.0
 40
11.0
 40
11.0
 40
11.0
 40
11.0
 10
985.8641357421875
 20
-1286.380859375
 10
991.6165771484374
 20
-1275.74829101563
 10
989.7495727539062
 20
-1261.1103515625
 10
980.5375976562499
 20
-1253.2822265625
 10
972.15673828125
 20
-1246.16015625
 10
959.625732421875
 20
-1245.65881347656
 10
949.2962036132812
 20
-1249.43530273438
 10
945.75732421875
 20
-1250.72900390625
 10
942.0199584960938
 20
-1252.91235351563
 10
941.1334228515626
 20
-1256.5654296875
 10
939.6993408203124
 20
-1257.38159179688
 10
938.3126831054687
 20
-1258.33544921875
 10
936.9937744140624
 20
-1259.24755859375
 10
922.15771484375
 20
-1269.5087890625
 10
905.1429443359374
 20
-1276.32177734375
 10
887.6849975585937
 20
-1280.86279296875
 10
870.22705078125
 20
-1285.40405273438
 10
852.274169921875
 20
-1287.73657226563
 10
834.3312377929688
 20
-1289.59521484375
 10
831.7705078124999
 20
-1289.86047363281
 10
828.4331665039061
 20
-1290.97485351563
 10
828.6271362304686
 20
-1293.5419921875
 10
828.7803955078125
 20
-1295.56982421875
 10
831.1239624023437
 20
-1296.56127929688
 10
833.0874633789061
 20
-1297.09057617188
 10
864.8108520507813
 20
-1305.64135742188
 10
897.888671875
 20
-1308.83056640625
 10
930.7199096679687
 20
-1307.56689453125
 10
939.8565673828125
 20
-1307.21508789063
 10
949.3071899414061
 20
-1306.37915039063
 10
958.0188598632812
 20
-1303.78283691406
 10
969.1348876953124
 20
-1302.68725585938
 10
980.4057006835938
 20
-1296.46997070313
 10
985.8641357421875
 20
-1286.380859375
 97
        0
 97
        1
330
7E
 75
     2
 76
     1
 98
        1
 10
0.0
 20
0.0
450
        0
451
        0
460
0.0
461
0.0
452
        0
462
0.0
453
        0
470

  0
SPLINE
  5
80
330
79
100
AcDbEntity
  8
Layer 1
100
AcDbSpline
210
0.0
220
0.0
230
1.0
 70
     9
 71
     3
 72
    32
 73
    28
 74
     0
 42
0.0000000001
 43
0.0000000001
 40
0.0
 40
0.0
 40
0.0
 40
0.0
 40
1.0
 40
1.0
 40
1.0
 40
2.0
 40
2.0
 40
2.0
 40
3.0
 40
3.0
 40
3.0
 40
4.0
 40
4.0
 40
4.0
 40
5.0
 40
5.0
 40
5.0
 40
6.0
 40
6.0
 40
6.0
 40
7.0
 40
7.0
 40
7.0
 40
8.0
 40
8.0
 40
8.0
 40
9.0
 40
9.0
 40
9.0
 40
9.0
 10
1071.420288085939
 20
-1284.49475097656
 30
0.0
 10
1068.837036132811
 20
-1288.1162109375
 30
0.0
 10
1063.908203125
 20
-1290.4794921875
 30
0.0
 10
1059.830078125
 20
-1288.70263671875
 30
0.0
 10
1057.40966796875
 20
-1287.64794921875
 30
0.0
 10
1055.71508789063
 20
-1285.33935546875
 30
0.0
 10
1054.80627441406
 20
-1282.8603515625
 30
0.0
 10
1053.8974609375
 20
-1280.38159179688
 30
0.0
 10
1053.67333984375
 20
-1277.712768554689
 30
0.0
 10
1053.45727539063
 20
-1275.08129882813
 30
0.0
 10
1053.23974609375
 20
-1272.431640625
 30
0.0
 10
1053.02209472656
 20
-1269.78186035156
 30
0.0
 10
1052.80444335938
 20
-1267.13208007813
 30
0.0
 10
1053.515502929689
 20
-1261.158569335939
 30
0.0
 10
1052.111328125
 20
-1255.02856445313
 30
0.0
 10
1050.709594726561
 20
-1249.119140625
 30
0.0
 10
1049.40600585938
 20
-1243.623413085939
 30
0.0
 10
1048.10229492188
 20
-1238.127563476561
 30
0.0
 10
1046.79858398438
 20
-1232.6318359375
 30
0.0
 10
1052.04907226563
 20
-1240.81713867188
 30
0.0
 10
1057.299438476561
 20
-1249.002319335939
 30
0.0
 10
1062.5498046875
 20
-1257.187622070311
 30
0.0
 10
1066.546508789061
 20
-1263.41821289063
 30
0.0
 10
1070.54321289063
 20
-1269.64892578125
 30
0.0
 10
1074.53979492188
 20
-1275.87963867188
 30
0.0
 10
1074.20825195313
 20
-1278.79113769531
 30
0.0
 10
1073.2822265625
 20
-1281.88452148438
 30
0.0
 10
1071.420288085939
 20
-1284.49475097656
 30
0.0
  0
SPLINE
  5
81
330
79
100
AcDbEntity
  8
Layer 1
100
AcDbSpline
210
0.0
220
0.0
230
1.0
 70
     9
 71
     3
 72
   119
 73
   115
 74
     0
 42
0.0000000001
 43
0.0000000001
 40
0.0
 40
0.0
 40
0.0
 40
0.0
 40
1.0
 40
1.0
 40
1.0
 40
2.0
 40
2.0
 40
2.0
 40
3.0
 40
3.0
 40
3.0
 40
4.0
 40
4.0
 40
4.0
 40
5.0
 40
5.0
 40
5.0
 40
6.0
 40
6.0
 40
6.0
 40
7.0
 40
7.0
 40
7.0
 40
8.0
 40
8.0
 40
8.0
 40
9.0
 40
9.0
 40
9.0
 40
10.0
 40
10.0
 40
10.0
 40
11.0
 40
11.0
 40
11.0
 40
12.0
 40
12.0
 40
12.0
 40
13.0
 40
13.0
 40
13.0
 40
14.0
 40
14.0
 40
14.0
 40
15.0
 40
15.0
 40
15.0
 40
16.0
 40
16.0
 40
16.0
 40
17.0
 40
17.0
 40
17.0
 40
18.0
 40
18.0
 40
18.0
 40
19.0
 40
19.0
 40
19.0
 40
20.0
 40
20.0
 40
20.0
 40
21.0
 40
21.0
 40
21.0
 40
22.0
 40
22.0
 40
22.0
 40
23.0
 40
23.0
 40
23.0
 40
24.0
 40
24.0
 40
24.0
 40
25.0
 40
25.0
 40
25.0
 40
26.0
 40
26.0
 40
26.0
 40
27.0
 40
27.0
 40
27.0
 40
28.0
 40
28.0
 40
28.0
 40
29.0
 40
29.0
 40
29.0
 40
30.0
 40
30.0
 40
30.0
 40
31.0
 40
31.0
 40
31.0
 40
32.0
 40
32.0
 40
32.0
 40
33.0
 40
33.0
 40
33.0
 40
34.0
 40
34.0
 40
34.0
 40
35.0
 40
35.0
 40
35.0
 40
36.0
 40
36.0
 40
36.0
 40
37.0
 40
37.0
 40
37.0
 40
38.0
 40
38.0
 40
38.0
 40
38.0
 10
1063.045532226561
 20
-1154.3251953125
 30
0.0
 10
1061.36877441406
 20
-1151.30883789063
 30
0.0
 10
1059.4169921875
 20
-1148.329467773439
 30
0.0
 10
1056.59619140625
 20
-1146.34106445313
 30
0.0
 10
1053.775512695311
 20
-1144.35278320313
 30
0.0
 10
1049.90649414063
 20
-1143.53491210938
 30
0.0
 10
1046.821166992189
 20
-1145.080932617189
 30
0.0
 10
1043.73583984375
 20
-1146.62707519531
 30
0.0
 10
1043.1357421875
 20
-1150.331420898439
 30
0.0
 10
1044.55932617188
 20
-1153.90991210938
 30
0.0
 10
1056.26635742188
 20
-1183.337890625
 30
0.0
 10
1065.865600585939
 20
-1213.60327148438
 30
0.0
 10
1073.27758789063
 20
-1244.39501953125
 30
0.0
 10
1062.40051269531
 20
-1224.62329101563
 30
0.0
 10
1049.98291015625
 20
-1205.700561523439
 30
0.0
 10
1036.17602539063
 20
-1187.85119628906
 30
0.0
 10
1036.15051269531
 20
-1187.743530273439
 30
0.0
 10
1036.125
 20
-1187.6357421875
 30
0.0
 10
1036.09936523438
 20
-1187.52807617188
 30
0.0
 10
1035.307006835939
 20
-1184.18762207031
 30
0.0
 10
1034.466186523439
 20
-1180.74133300781
 30
0.0
 10
1032.40112304688
 20
-1177.99853515625
 30
0.0
 10
1030.3359375
 20
-1175.255859375
 30
0.0
 10
1026.696655273439
 20
-1173.38940429688
 30
0.0
 10
1023.42913818359
 20
-1174.443359375
 30
0.0
 10
1020.293823242189
 20
-1175.45458984375
 30
0.0
 10
1018.428527832029
 20
-1178.84765625
 30
0.0
 10
1018.16949462891
 20
-1182.1318359375
 30
0.0
 10
1017.910461425779
 20
-1185.416015625
 30
0.0
 10
1018.9267578125
 20
-1188.65014648438
 30
0.0
 10
1019.88549804688
 20
-1191.80187988281
 30
0.0
 10
1028.37805175781
 20
-1219.720703125
 30
0.0
 10
1033.2470703125
 20
-1248.736206054689
 30
0.0
 10
1034.36010742188
 20
-1277.89672851563
 30
0.0
 10
1033.16845703125
 20
-1281.54663085938
 30
0.0
 10
1031.57885742188
 20
-1284.98095703125
 30
0.0
 10
1029.080444335939
 20
-1287.94677734375
 30
0.0
 10
1028.11499023438
 20
-1289.0927734375
 30
0.0
 10
1026.9912109375
 20
-1290.16748046875
 30
0.0
 10
1025.593139648439
 20
-1290.70703125
 30
0.0
 10
1024.19506835938
 20
-1291.24658203125
 30
0.0
 10
1022.47314453125
 20
-1291.151000976561
 30
0.0
 10
1021.358215332029
 20
-1290.14965820313
 30
0.0
 10
1020.48803710938
 20
-1289.3681640625
 30
0.0
 10
1020.11383056641
 20
-1288.189453125
 30
0.0
 10
1019.776000976561
 20
-1287.06958007813
 30
0.0
 10
1018.76525878906
 20
-1283.71923828125
 30
0.0
 10
1017.75451660156
 20
-1280.369140625
 30
0.0
 10
1016.74377441406
 20
-1277.018920898439
 30
0.0
 10
1016.64331054688
 20
-1274.928833007811
 30
0.0
 10
1016.222045898439
 20
-1272.7880859375
 30
0.0
 10
1015.77734375
 20
-1270.771484375
 30
0.0
 10
1012.33502197266
 20
-1255.1630859375
 30
0.0
 10
1008.89270019531
 20
-1239.5546875
 30
0.0
 10
1005.45037841797
 20
-1223.9462890625
 30
0.0
 10
1004.67193603516
 20
-1220.416381835939
 30
0.0
 10
1003.84478759766
 20
-1216.775390625
 30
0.0
 10
1001.72222900391
 20
-1213.84936523438
 30
0.0
 10
999.5997314453125
 20
-1210.92333984375
 30
0.0
 10
995.81396484375
 20
-1208.88403320313
 30
0.0
 10
992.3484497070312
 20
-1209.91186523438
 30
0.0
 10
988.4250488281249
 20
-1211.075317382811
 30
0.0
 10
986.4271850585938
 20
-1215.69799804688
 30
0.0
 10
986.7523803710938
 20
-1219.77734375
 30
0.0
 10
987.0775146484374
 20
-1223.85668945313
 30
0.0
 10
989.12548828125
 20
-1227.56201171875
 30
0.0
 10
990.8972778320313
 20
-1231.25073242188
 30
0.0
 10
996.0628662109375
 20
-1242.005249023439
 30
0.0
 10
999.1317749023437
 20
-1253.608276367189
 30
0.0
 10
1000.67553710938
 20
-1265.4609375
 30
0.0
 10
999.5337524414063
 20
-1282.57592773438
 30
0.0
 10
993.888916015625
 20
-1299.27954101563
 30
0.0
 10
986.8271484375
 20
-1314.99658203125
 30
0.0
 10
978.6841430664063
 20
-1333.1201171875
 30
0.0
 10
968.6204223632811
 20
-1350.34106445313
 30
0.0
 10
960.715576171875
 20
-1368.56982421875
 30
0.0
 10
958.6874389648437
 20
-1373.24682617188
 30
0.0
 10
956.7990112304688
 20
-1378.622436523439
 30
0.0
 10
958.8375244140625
 20
-1383.294799804689
 30
0.0
 10
961.5852661132812
 20
-1389.5927734375
 30
0.0
 10
969.6984863281249
 20
-1391.10546875
 30
0.0
 10
976.5571289062499
 20
-1391.52221679688
 30
0.0
 10
985.1590576171874
 20
-1392.04467773438
 30
0.0
 10
993.7833862304687
 20
-1392.198608398439
 30
0.0
 10
1002.39849853516
 20
-1391.983276367189
 30
0.0
 10
1006.39947509766
 20
-1391.88330078125
 30
0.0
 10
1010.47137451172
 20
-1391.68994140625
 30
0.0
 10
1014.23675537109
 20
-1390.33349609375
 30
0.0
 10
1018.00207519531
 20
-1388.97705078125
 30
0.0
 10
1021.475463867189
 20
-1386.272338867189
 30
0.0
 10
1022.818725585939
 20
-1382.50219726563
 30
0.0
 10
1023.95874023438
 20
-1379.302734375
 30
0.0
 10
1023.46014404297
 20
-1375.79125976563
 30
0.0
 10
1023.31018066406
 20
-1372.39794921875
 30
0.0
 10
1022.51330566406
 20
-1354.37121582031
 30
0.0
 10
1032.08081054688
 20
-1337.29223632813
 30
0.0
 10
1044.37719726563
 20
-1324.08642578125
 30
0.0
 10
1056.673828125
 20
-1310.88061523438
 30
0.0
 10
1071.7333984375
 20
-1300.609741210939
 30
0.0
 10
1085.291015625
 20
-1288.70239257813
 30
0.0
 10
1087.71704101563
 20
-1286.57177734375
 30
0.0
 10
1090.15112304688
 20
-1284.308471679689
 30
0.0
 10
1091.55395507813
 20
-1281.4033203125
 30
0.0
 10
1091.959594726561
 20
-1280.90283203125
 30
0.0
 10
1092.3076171875
 20
-1280.354614257811
 30
0.0
 10
1092.576171875
 20
-1279.77905273438
 30
0.0
 10
1093.59533691406
 20
-1277.59350585938
 30
0.0
 10
1093.72998046875
 20
-1275.11206054688
 30
0.0
 10
1093.783569335939
 20
-1272.701171875
 30
0.0
 10
1094.499633789061
 20
-1240.4208984375
 30
0.0
 10
1083.75146484375
 20
-1209.11645507813
 30
0.0
 10
1073.1181640625
 20
-1178.62939453125
 30
0.0
 10
1070.22631835938
 20
-1170.33813476563
 30
0.0
 10
1067.31201171875
 20
-1162.000122070311
 30
0.0
 10
1063.045532226561
 20
-1154.3251953125
 30
0.0
  0
HATCH
  5
82
330
79
100
AcDbEntity
  8
Layer 1
 62
    18
420
        0
440
 33554687
100
AcDbHatch
 10
0.0
 20
0.0
 30
0.0
210
0.0
220
0.0
230
1.0
  2
SOLID
 70
     1
 71
     1
 91
        2
 92
        1
 93
        1
 72
     4
 94
        3
 73
     0
 74
     0
 95
       32
 96
       28
 40
0.0
 40
0.0
 40
0.0
 40
0.0
 40
1.0
 40
1.0
 40
1.0
 40
2.0
 40
2.0
 40
2.0
 40
3.0
 40
3.0
 40
3.0
 40
4.0
 40
4.0
 40
4.0
 40
5.0
 40
5.0
 40
5.0
 40
6.0
 40
6.0
 40
6.0
 40
7.0
 40
7.0
 40
7.0
 40
8.0
 40
8.0
 40
8.0
 40
9.0
 40
9.0
 40
9.0
 40
9.0
 10
1071.420288085939
 20
-1284.49475097656
 10
1068.837036132811
 20
-1288.1162109375
 10
1063.908203125
 20
-1290.4794921875
 10
1059.830078125
 20
-1288.70263671875
 10
1057.40966796875
 20
-1287.64794921875
 10
1055.71508789063
 20
-1285.33935546875
 10
1054.80627441406
 20
-1282.8603515625
 10
1053.8974609375
 20
-1280.38159179688
 10
1053.67333984375
 20
-1277.712768554689
 10
1053.45727539063
 20
-1275.08129882813
 10
1053.23974609375
 20
-1272.431640625
 10
1053.02209472656
 20
-1269.78186035156
 10
1052.80444335938
 20
-1267.13208007813
 10
1053.515502929689
 20
-1261.158569335939
 10
1052.111328125
 20
-1255.02856445313
 10
1050.709594726561
 20
-1249.119140625
 10
1049.40600585938
 20
-1243.623413085939
 10
1048.10229492188
 20
-1238.127563476561
 10
1046.79858398438
 20
-1232.6318359375
 10
1052.04907226563
 20
-1240.81713867188
 10
1057.299438476561
 20
-1249.002319335939
 10
1062.5498046875
 20
-1257.187622070311
 10
1066.546508789061
 20
-1263.41821289063
 10
1070.54321289063
 20
-1269.64892578125
 10
1074.53979492188
 20
-1275.87963867188
 10
1074.20825195313
 20
-1278.79113769531
 10
1073.2822265625
 20
-1281.88452148438
 10
1071.420288085939
 20
-1284.49475097656
 97
        0
 97
        1
330
80
 92
        1
 93
        1
 72
     4
 94
        3
 73
     0
 74
     0
 95
      119
 96
      115
 40
0.0
 40
0.0
 40
0.0
 40
0.0
 40
1.0
 40
1.0
 40
1.0
 40
2.0
 40
2.0
 40
2.0
 40
3.0
 40
3.0
 40
3.0
 40
4.0
 40
4.0
 40
4.0
 40
5.0
 40
5.0
 40
5.0
 40
6.0
 40
6.0
 40
6.0
 40
7.0
 40
7.0
 40
7.0
 40
8.0
 40
8.0
 40
8.0
 40
9.0
 40
9.0
 40
9.0
 40
10.0
 40
10.0
 40
10.0
 40
11.0
 40
11.0
 40
11.0
 40
12.0
 40
12.0
 40
12.0
 40
13.0
 40
13.0
 40
13.0
 40
14.0
 40
14.0
 40
14.0
 40
15.0
 40
15.0
 40
15.0
 40
16.0
 40
16.0
 40
16.0
 40
17.0
 40
17.0
 40
17.0
 40
18.0
 40
18.0
 40
18.0
 40
19.0
 40
19.0
 40
19.0
 40
20.0
 40
20.0
 40
20.0
 40
21.0
 40
21.0
 40
21.0
 40
22.0
 40
22.0
 40
22.0
 40
23.0
 40
23.0
 40
23.0
 40
24.0
 40
24.0
 40
24.0
 40
25.0
 40
25.0
 40
25.0
 40
26.0
 40
26.0
 40
26.0
 40
27.0
 40
27.0
 40
27.0
 40
28.0
 40
28.0
 40
28.0
 40
29.0
 40
29.0
 40
29.0
 40
30.0
 40
30.0
 40
30.0
 40
31.0
 40
31.0
 40
31.0
 40
32.0
 40
32.0
 40
32.0
 40
33.0
 40
33.0
 40
33.0
 40
34.0
 40
34.0
 40
34.0
 40
35.0
 40
35.0
 40
35.0
 40
36.0
 40
36.0
 40
36.0
 40
37.0
 40
37.0
 40
37.0
 40
38.0
 40
38.0
 40
38.0
 40
38.0
 10
1063.045532226561
 20
-1154.3251953125
 10
1061.36877441406
 20
-1151.30883789063
 10
1059.4169921875
 20
-1148.329467773439
 10
1056.59619140625
 20
-1146.34106445313
 10
1053.775512695311
 20
-1144.35278320313
 10
1049.90649414063
 20
-1143.53491210938
 10
1046.821166992189
 20
-1145.080932617189
 10
1043.73583984375
 20
-1146.62707519531
 10
1043.1357421875
 20
-1150.331420898439
 10
1044.55932617188
 20
-1153.90991210938
 10
1056.26635742188
 20
-1183.337890625
 10
1065.865600585939
 20
-1213.60327148438
 10
1073.27758789063
 20
-1244.39501953125
 10
1062.40051269531
 20
-1224.62329101563
 10
1049.98291015625
 20
-1205.700561523439
 10
1036.17602539063
 20
-1187.85119628906
 10
1036.15051269531
 20
-1187.743530273439
 10
1036.125
 20
-1187.6357421875
 10
1036.09936523438
 20
-1187.52807617188
 10
1035.307006835939
 20
-1184.18762207031
 10
1034.466186523439
 20
-1180.74133300781
 10
1032.40112304688
 20
-1177.99853515625
 10
1030.3359375
 20
-1175.255859375
 10
1026.696655273439
 20
-1173.38940429688
 10
1023.42913818359
 20
-1174.443359375
 10
1020.293823242189
 20
-1175.45458984375
 10
1018.428527832029
 20
-1178.84765625
 10
1018.16949462891
 20
-1182.1318359375
 10
1017.910461425779
 20
-1185.416015625
 10
1018.9267578125
 20
-1188.65014648438
 10
1019.88549804688
 20
-1191.80187988281
 10
1028.37805175781
 20
-1219.720703125
 10
1033.2470703125
 20
-1248.736206054689
 10
1034.36010742188
 20
-1277.89672851563
 10
1033.16845703125
 20
-1281.54663085938
 10
1031.57885742188
 20
-1284.98095703125
 10
1029.080444335939
 20
-1287.94677734375
 10
1028.11499023438
 20
-1289.0927734375
 10
1026.9912109375
 20
-1290.16748046875
 10
1025.593139648439
 20
-1290.70703125
 10
1024.19506835938
 20
-1291.24658203125
 10
1022.47314453125
 20
-1291.151000976561
 10
1021.358215332029
 20
-1290.14965820313
 10
1020.48803710938
 20
-1289.3681640625
 10
1020.11383056641
 20
-1288.189453125
 10
1019.776000976561
 20
-1287.06958007813
 10
1018.76525878906
 20
-1283.71923828125
 10
1017.75451660156
 20
-1280.369140625
 10
1016.74377441406
 20
-1277.018920898439
 10
1016.64331054688
 20
-1274.928833007811
 10
1016.222045898439
 20
-1272.7880859375
 10
1015.77734375
 20
-1270.771484375
 10
1012.33502197266
 20
-1255.1630859375
 10
1008.89270019531
 20
-1239.5546875
 10
1005.45037841797
 20
-1223.9462890625
 10
1004.67193603516
 20
-1220.416381835939
 10
1003.84478759766
 20
-1216.775390625
 10
1001.72222900391
 20
-1213.84936523438
 10
999.5997314453125
 20
-1210.92333984375
 10
995.81396484375
 20
-1208.88403320313
 10
992.3484497070312
 20
-1209.91186523438
 10
988.4250488281249
 20
-1211.075317382811
 10
986.4271850585938
 20
-1215.69799804688
 10
986.7523803710938
 20
-1219.77734375
 10
987.0775146484374
 20
-1223.85668945313
 10
989.12548828125
 20
-1227.56201171875
 10
990.8972778320313
 20
-1231.25073242188
 10
996.0628662109375
 20
-1242.005249023439
 10
999.1317749023437
 20
-1253.608276367189
 10
1000.67553710938
 20
-1265.4609375
 10
999.5337524414063
 20
-1282.57592773438
 10
993.888916015625
 20
-1299.27954101563
 10
986.8271484375
 20
-1314.99658203125
 10
978.6841430664063
 20
-1333.1201171875
 10
968.6204223632811
 20
-1350.34106445313
 10
960.715576171875
 20
-1368.56982421875
 10
958.6874389648437
 20
-1373.24682617188
 10
956.7990112304688
 20
-1378.622436523439
 10
958.8375244140625
 20
-1383.294799804689
 10
961.5852661132812
 20
-1389.5927734375
 10
969.6984863281249
 20
-1391.10546875
 10
976.5571289062499
 20
-1391.52221679688
 10
985.1590576171874
 20
-1392.04467773438
 10
993.7833862304687
 20
-1392.198608398439
 10
1002.39849853516
 20
-1391.983276367189
 10
1006.39947509766
 20
-1391.88330078125
 10
1010.47137451172
 20
-1391.68994140625
 10
1014.23675537109
 20
-1390.33349609375
 10
1018.00207519531
 20
-1388.97705078125
 10
1021.475463867189
 20
-1386.272338867189
 10
1022.818725585939
 20
-1382.50219726563
 10
1023.95874023438
 20
-1379.302734375
 10
1023.46014404297
 20
-1375.79125976563
 10
1023.31018066406
 20
-1372.39794921875
 10
1022.51330566406
 20
-1354.37121582031
 10
1032.08081054688
 20
-1337.29223632813
 10
1044.37719726563
 20
-1324.08642578125
 10
1056.673828125
 20
-1310.88061523438
 10
1071.7333984375
 20
-1300.609741210939
 10
1085.291015625
 20
-1288.70239257813
 10
1087.71704101563
 20
-1286.57177734375
 10
1090.15112304688
 20
-1284.308471679689
 10
1091.55395507813
 20
-1281.4033203125
 10
1091.959594726561
 20
-1280.90283203125
 10
1092.3076171875
 20
-1280.354614257811
 10
1092.576171875
 20
-1279.77905273438
 10
1093.59533691406
 20
-1277.59350585938
 10
1093.72998046875
 20
-1275.11206054688
 10
1093.783569335939
 20
-1272.701171875
 10
1094.499633789061
 20
-1240.4208984375
 10
1083.75146484375
 20
-1209.11645507813
 10
1073.1181640625
 20
-1178.62939453125
 10
1070.22631835938
 20
-1170.33813476563
 10
1067.31201171875
 20
-1162.000122070311
 10
1063.045532226561
 20
-1154.3251953125
 97
        0
 97
        1
330
81
 75
     2
 76
     1
 98
        1
 10
0.0
 20
0.0
450
        0
451
        0
460
0.0
461
0.0
452
        0
462
0.0
453
        0
470

  0
SPLINE
  5
83
330
79
100
AcDbEntity
  8
Layer 1
100
AcDbSpline
210
0.0
220
0.0
230
1.0
 70
     9
 71
     3
 72
    29
 73
    25
 74
     0
 42
0.0000000001
 43
0.0000000001
 40
0.0
 40
0.0
 40
0.0
 40
0.0
 40
1.0
 40
1.0
 40
1.0
 40
2.0
 40
2.0
 40
2.0
 40
3.0
 40
3.0
 40
3.0
 40
4.0
 40
4.0
 40
4.0
 40
5.0
 40
5.0
 40
5.0
 40
6.0
 40
6.0
 40
6.0
 40
7.0
 40
7.0
 40
7.0
 40
8.0
 40
8.0
 40
8.0
 40
8.0
 10
1125.71264648438
 20
-1230.835815429689
 30
0.0
 10
1125.67114257813
 20
-1233.192260742189
 30
0.0
 10
1125.56884765625
 20
-1235.61767578125
 30
0.0
 10
1124.60229492188
 20
-1237.76708984375
 30
0.0
 10
1123.635864257811
 20
-1239.916625976561
 30
0.0
 10
1121.59765625
 20
-1241.74877929688
 30
0.0
 10
1119.24096679688
 20
-1241.77294921875
 30
0.0
 10
1115.1728515625
 20
-1241.81457519531
 30
0.0
 10
1113.00927734375
 20
-1237.09106445313
 30
0.0
 10
1111.87548828125
 20
-1233.18383789063
 30
0.0
 10
1106.17993164063
 20
-1213.556640625
 30
0.0
 10
1100.44116210938
 20
-1192.88940429688
 30
0.0
 10
1104.978515625
 20
-1172.96240234375
 30
0.0
 10
1105.464233398439
 20
-1170.82983398438
 30
0.0
 10
1106.22241210938
 20
-1168.51220703125
 30
0.0
 10
1108.11889648438
 20
-1167.4228515625
 30
0.0
 10
1110.21203613281
 20
-1166.22045898438
 30
0.0
 10
1112.99658203125
 20
-1167.04357910156
 30
0.0
 10
1114.75366210938
 20
-1168.69848632813
 30
0.0
 10
1116.51098632813
 20
-1170.353515625
 30
0.0
 10
1117.372436523439
 20
-1172.68627929688
 30
0.0
 10
1117.83276367188
 20
-1174.205932617189
 30
0.0
 10
1123.38061523438
 20
-1192.52001953125
 30
0.0
 10
1126.0498046875
 20
-1211.70288085938
 30
0.0
 10
1125.71264648438
 20
-1230.835815429689
 30
0.0
  0
SPLINE
  5
84
330
79
100
AcDbEntity
  8
Layer 1
100
AcDbSpline
210
0.0
220
0.0
230
1.0
 70
     9
 71
     3
 72
   134
 73
   130
 74
     0
 42
0.0000000001
 43
0.0000000001
 40
0.0
 40
0.0
 40
0.0
 40
0.0
 40
1.0
 40
1.0
 40
1.0
 40
2.0
 40
2.0
 40
2.0
 40
3.0
 40
3.0
 40
3.0
 40
4.0
 40
4.0
 40
4.0
 40
5.0
 40
5.0
 40
5.0
 40
6.0
 40
6.0
 40
6.0
 40
7.0
 40
7.0
 40
7.0
 40
8.0
 40
8.0
 40
8.0
 40
9.0
 40
9.0
 40
9.0
 40
10.0
 40
10.0
 40
10.0
 40
11.0
 40
11.0
 40
11.0
 40
12.0
 40
12.0
 40
12.0
 40
13.0
 40
13.0
 40
13.0
 40
14.0
 40
14.0
 40
14.0
 40
15.0
 40
15.0
 40
15.0
 40
16.0
 40
16.0
 40
16.0
 40
17.0
 40
17.0
 40
17.0
 40
18.0
 40
18.0
 40
18.0
 40
19.0
 40
19.0
 40
19.0
 40
20.0
 40
20.0
 40
20.0
 40
21.0
 40
21.0
 40
21.0
 40
22.0
 40
22.0
 40
22.0
 40
23.0
 40
23.0
 40
23.0
 40
24.0
 40
24.0
 40
24.0
 40
25.0
 40
25.0
 40
25.0
 40
26.0
 40
26.0
 40
26.0
 40
27.0
 40
27.0
 40
27.0
 40
28.0
 40
28.0
 40
28.0
 40
29.0
 40
29.0
 40
29.0
 40
30.0
 40
30.0
 40
30.0
 40
31.0
 40
31.0
 40
31.0
 40
32.0
 40
32.0
 40
32.0
 40
33.0
 40
33.0
 40
33.0
 40
34.0
 40
34.0
 40
34.0
 40
35.0
 40
35.0
 40
35.0
 40
36.0
 40
36.0
 40
36.0
 40
37.0
 40
37.0
 40
37.0
 40
38.0
 40
38.0
 40
38.0
 40
39.0
 40
39.0
 40
39.0
 40
40.0
 40
40.0
 40
40.0
 40
41.0
 40
41.0
 40
41.0
 40
42.0
 40
42.0
 40
42.0
 40
43.0
 40
43.0
 40
43.0
 40
43.0
 10
1157.08557128906
 20
-1168.16479492188
 30
0.0
 10
1151.63745117188
 20
-1158.30810546875
 30
0.0
 10
1148.64904785156
 20
-1146.28198242188
 30
0.0
 10
1152.6142578125
 20
-1135.74084472656
 30
0.0
 10
1154.586059570311
 20
-1130.49877929688
 30
0.0
 10
1159.694213867189
 20
-1125.371459960939
 30
0.0
 10
1165.069458007811
 20
-1126.943969726561
 30
0.0
 10
1168.3251953125
 20
-1127.896484375
 30
0.0
 10
1170.41552734375
 20
-1130.95922851563
 30
0.0
 10
1172.3955078125
 20
-1133.71362304688
 30
0.0
 10
1174.37548828125
 20
-1136.468139648439
 30
0.0
 10
1176.91845703125
 20
-1139.34033203125
 30
0.0
 10
1180.3037109375
 20
-1139.55688476563
 30
0.0
 10
1183.68896484375
 20
-1139.77368164063
 30
0.0
 10
1186.9130859375
 20
-1135.30151367188
 30
0.0
 10
1184.490112304689
 20
-1132.92749023438
 30
0.0
 10
1186.37707519531
 20
-1123.77490234375
 30
0.0
 10
1180.25073242188
 20
-1114.29760742188
 30
0.0
 10
1171.18286132813
 20
-1110.804077148439
 30
0.0
 10
1162.11499023438
 20
-1107.310424804689
 30
0.0
 10
1150.62255859375
 20
-1110.68725585938
 30
0.0
 10
1145.658203125
 20
-1119.04113769531
 30
0.0
 10
1142.5810546875
 20
-1124.21948242188
 30
0.0
 10
1142.123901367189
 20
-1130.48803710938
 30
0.0
 10
1141.74291992188
 20
-1136.49963378906
 30
0.0
 10
1140.96337890625
 20
-1148.80102539063
 30
0.0
 10
1140.19580078125
 20
-1161.28247070313
 30
0.0
 10
1142.73461914063
 20
-1173.34423828125
 30
0.0
 10
1145.27368164063
 20
-1185.40600585938
 30
0.0
 10
1151.57836914063
 20
-1197.20678710938
 30
0.0
 10
1162.07971191406
 20
-1203.66088867188
 30
0.0
 10
1177.568359375
 20
-1213.17993164063
 30
0.0
 10
1177.950561523439
 20
-1241.94982910156
 30
0.0
 10
1172.720703125
 20
-1263.07629394531
 30
0.0
 10
1171.490600585939
 20
-1268.04565429688
 30
0.0
 10
1169.49487304688
 20
-1273.18017578125
 30
0.0
 10
1165.34423828125
 20
-1276.176879882811
 30
0.0
 10
1161.193481445311
 20
-1279.17358398438
 30
0.0
 10
1154.39526367188
 20
-1278.905151367189
 30
0.0
 10
1151.82299804688
 20
-1274.47875976563
 30
0.0
 10
1150.08813476563
 20
-1271.49328613281
 30
0.0
 10
1150.72338867188
 20
-1267.733520507811
 30
0.0
 10
1151.63647460938
 20
-1264.40344238281
 30
0.0
 10
1152.5498046875
 20
-1261.073364257811
 30
0.0
 10
1153.69750976563
 20
-1257.58520507813
 30
0.0
 10
1152.82763671875
 20
-1254.243530273439
 30
0.0
 10
1151.95776367188
 20
-1250.90185546875
 30
0.0
 10
1148.0224609375
 20
-1248.12548828125
 30
0.0
 10
1145.0302734375
 20
-1249.84887695313
 30
0.0
 10
1143.08203125
 20
-1250.97094726563
 30
0.0
 10
1142.385131835939
 20
-1253.40087890625
 30
0.0
 10
1141.935546875
 20
-1255.603637695311
 30
0.0
 10
1140.5908203125
 20
-1262.19116210938
 30
0.0
 10
1139.91918945313
 20
-1268.91577148438
 30
0.0
 10
1139.93408203125
 20
-1275.63916015625
 30
0.0
 10
1139.93994140625
 20
-1278.1884765625
 30
0.0
 10
1140.09228515625
 20
-1280.837768554689
 30
0.0
 10
1140.62915039063
 20
-1283.34375
 30
0.0
 10
1139.847534179689
 20
-1283.95141601563
 30
0.0
 10
1138.96215820313
 20
-1284.40698242188
 30
0.0
 10
1137.9931640625
 20
-1284.60205078125
 30
0.0
 10
1135.5361328125
 20
-1285.0966796875
 30
0.0
 10
1132.96826171875
 20
-1283.832885742189
 30
0.0
 10
1131.34765625
 20
-1281.92114257813
 30
0.0
 10
1130.38500976563
 20
-1280.78564453125
 30
0.0
 10
1129.7109375
 20
-1279.453125
 30
0.0
 10
1129.20751953125
 20
-1278.04663085938
 30
0.0
 10
1129.50512695313
 20
-1277.552368164061
 30
0.0
 10
1129.79125976563
 20
-1277.05541992188
 30
0.0
 10
1130.05200195313
 20
-1276.557983398439
 30
0.0
 10
1135.529296875
 20
-1266.107543945311
 30
0.0
 10
1137.510131835939
 20
-1254.18823242188
 30
0.0
 10
1138.49243164063
 20
-1242.430297851561
 30
0.0
 10
1141.989868164061
 20
-1200.5673828125
 30
0.0
 10
1133.52905273438
 20
-1157.772094726561
 30
0.0
 10
1114.36450195313
 20
-1120.3896484375
 30
0.0
 10
1108.55200195313
 20
-1119.40063476563
 30
0.0
 10
1100.2685546875
 20
-1121.523315429689
 30
0.0
 10
1095.2021484375
 20
-1126.55029296875
 30
0.0
 10
1090.13549804688
 20
-1131.57739257813
 30
0.0
 10
1087.90551757813
 20
-1138.8935546875
 30
0.0
 10
1087.53662109375
 20
-1146.021362304689
 30
0.0
 10
1087.16772460938
 20
-1153.14916992188
 30
0.0
 10
1088.46435546875
 20
-1160.24194335938
 30
0.0
 10
1089.49877929688
 20
-1167.30395507813
 30
0.0
 10
1094.73754882813
 20
-1203.06945800781
 30
0.0
 10
1093.44995117188
 20
-1240.199584960939
 30
0.0
 10
1105.43029785156
 20
-1274.3037109375
 30
0.0
 10
1107.0869140625
 20
-1279.01977539063
 30
0.0
 10
1109.6630859375
 20
-1284.212890625
 30
0.0
 10
1114.09155273438
 20
-1286.02514648438
 30
0.0
 10
1117.63745117188
 20
-1317.37622070313
 30
0.0
 10
1109.97216796875
 20
-1349.10375976563
 30
0.0
 10
1112.408203125
 20
-1380.57202148438
 30
0.0
 10
1112.60717773438
 20
-1383.14306640625
 30
0.0
 10
1113.0234375
 20
-1385.998046875
 30
0.0
 10
1115.04162597656
 20
-1387.603393554689
 30
0.0
 10
1116.6513671875
 20
-1388.883911132811
 30
0.0
 10
1118.861938476561
 20
-1389.015747070311
 30
0.0
 10
1120.91772460938
 20
-1389.08410644531
 30
0.0
 10
1141.86938476563
 20
-1389.780639648439
 30
0.0
 10
1162.85180664063
 20
-1389.55419921875
 30
0.0
 10
1183.78369140625
 20
-1388.40576171875
 30
0.0
 10
1185.44360351563
 20
-1383.35034179688
 30
0.0
 10
1186.2998046875
 20
-1377.330688476561
 30
0.0
 10
1183.07861328125
 20
-1373.09545898438
 30
0.0
 10
1181.102416992189
 20
-1370.4970703125
 30
0.0
 10
1177.97119140625
 20
-1369.10791015625
 30
0.0
 10
1175.31079101563
 20
-1367.21594238281
 30
0.0
 10
1169.168823242189
 20
-1362.84814453125
 30
0.0
 10
1165.549682617189
 20
-1355.7685546875
 30
0.0
 10
1162.994995117189
 20
-1348.67797851563
 30
0.0
 10
1158.403442382811
 20
-1335.93420410156
 30
0.0
 10
1156.67358398438
 20
-1321.20458984375
 30
0.0
 10
1162.97802734375
 20
-1309.21557617188
 30
0.0
 10
1167.81701660156
 20
-1300.013671875
 30
0.0
 10
1176.83618164063
 20
-1293.45703125
 30
0.0
 10
1181.22973632813
 20
-1284.034301757811
 30
0.0
 10
1181.952026367189
 20
-1282.48510742188
 30
0.0
 10
1182.44287109375
 20
-1280.52319335938
 30
0.0
 10
1181.83959960938
 20
-1279.048828125
 30
0.0
 10
1188.90380859375
 20
-1269.75439453125
 30
0.0
 10
1192.90649414063
 20
-1257.93603515625
 30
0.0
 10
1193.30102539063
 20
-1246.18237304688
 30
0.0
 10
1193.90600585938
 20
-1228.155395507811
 30
0.0
 10
1186.94580078125
 20
-1210.48559570313
 30
0.0
 10
1176.67456054688
 20
-1195.65869140625
 30
0.0
 10
1170.26123046875
 20
-1186.40087890625
 30
0.0
 10
1162.53369140625
 20
-1178.021484375
 30
0.0
 10
1157.08557128906
 20
-1168.16479492188
 30
0.0
  0
HATCH
  5
85
330
79
100
AcDbEntity
  8
Layer 1
 62
    18
420
        0
440
 33554687
100
AcDbHatch
 10
0.0
 20
0.0
 30
0.0
210
0.0
220
0.0
230
1.0
  2
SOLID
 70
     1
 71
     1
 91
        2
 92
        1
 93
        1
 72
     4
 94
        3
 73
     0
 74
     0
 95
       29
 96
       25
 40
0.0
 40
0.0
 40
0.0
 40
0.0
 40
1.0
 40
1.0
 40
1.0
 40
2.0
 40
2.0
 40
2.0
 40
3.0
 40
3.0
 40
3.0
 40
4.0
 40
4.0
 40
4.0
 40
5.0
 40
5.0
 40
5.0
 40
6.0
 40
6.0
 40
6.0
 40
7.0
 40
7.0
 40
7.0
 40
8.0
 40
8.0
 40
8.0
 40
8.0
 10
1125.71264648438
 20
-1230.835815429689
 10
1125.67114257813
 20
-1233.192260742189
 10
1125.56884765625
 20
-1235.61767578125
 10
1124.60229492188
 20
-1237.76708984375
 10
1123.635864257811
 20
-1239.916625976561
 10
1121.59765625
 20
-1241.74877929688
 10
1119.24096679688
 20
-1241.77294921875
 10
1115.1728515625
 20
-1241.81457519531
 10
1113.00927734375
 20
-1237.09106445313
 10
1111.87548828125
 20
-1233.18383789063
 10
1106.17993164063
 20
-1213.556640625
 10
1100.44116210938
 20
-1192.88940429688
 10
1104.978515625
 20
-1172.96240234375
 10
1105.464233398439
 20
-1170.82983398438
 10
1106.22241210938
 20
-1168.51220703125
 10
1108.11889648438
 20
-1167.4228515625
 10
1110.21203613281
 20
-1166.22045898438
 10
1112.99658203125
 20
-1167.04357910156
 10
1114.75366210938
 20
-1168.69848632813
 10
1116.51098632813
 20
-1170.353515625
 10
1117.372436523439
 20
-1172.68627929688
 10
1117.83276367188
 20
-1174.205932617189
 10
1123.38061523438
 20
-1192.52001953125
 10
1126.0498046875
 20
-1211.70288085938
 10
1125.71264648438
 20
-1230.835815429689
 97
        0
 97
        1
330
83
 92
        1
 93
        1
 72
     4
 94
        3
 73
     0
 74
     0
 95
      134
 96
      130
 40
0.0
 40
0.0
 40
0.0
 40
0.0
 40
1.0
 40
1.0
 40
1.0
 40
2.0
 40
2.0
 40
2.0
 40
3.0
 40
3.0
 40
3.0
 40
4.0
 40
4.0
 40
4.0
 40
5.0
 40
5.0
 40
5.0
 40
6.0
 40
6.0
 40
6.0
 40
7.0
 40
7.0
 40
7.0
 40
8.0
 40
8.0
 40
8.0
 40
9.0
 40
9.0
 40
9.0
 40
10.0
 40
10.0
 40
10.0
 40
11.0
 40
11.0
 40
11.0
 40
12.0
 40
12.0
 40
12.0
 40
13.0
 40
13.0
 40
13.0
 40
14.0
 40
14.0
 40
14.0
 40
15.0
 40
15.0
 40
15.0
 40
16.0
 40
16.0
 40
16.0
 40
17.0
 40
17.0
 40
17.0
 40
18.0
 40
18.0
 40
18.0
 40
19.0
 40
19.0
 40
19.0
 40
20.0
 40
20.0
 40
20.0
 40
21.0
 40
21.0
 40
21.0
 40
22.0
 40
22.0
 40
22.0
 40
23.0
 40
23.0
 40
23.0
 40
24.0
 40
24.0
 40
24.0
 40
25.0
 40
25.0
 40
25.0
 40
26.0
 40
26.0
 40
26.0
 40
27.0
 40
27.0
 40
27.0
 40
28.0
 40
28.0
 40
28.0
 40
29.0
 40
29.0
 40
29.0
 40
30.0
 40
30.0
 40
30.0
 40
31.0
 40
31.0
 40
31.0
 40
32.0
 40
32.0
 40
32.0
 40
33.0
 40
33.0
 40
33.0
 40
34.0
 40
34.0
 40
34.0
 40
35.0
 40
35.0
 40
35.0
 40
36.0
 40
36.0
 40
36.0
 40
37.0
 40
37.0
 40
37.0
 40
38.0
 40
38.0
 40
38.0
 40
39.0
 40
39.0
 40
39.0
 40
40.0
 40
40.0
 40
40.0
 40
41.0
 40
41.0
 40
41.0
 40
42.0
 40
42.0
 40
42.0
 40
43.0
 40
43.0
 40
43.0
 40
43.0
 10
1157.08557128906
 20
-1168.16479492188
 10
1151.63745117188
 20
-1158.30810546875
 10
1148.64904785156
 20
-1146.28198242188
 10
1152.6142578125
 20
-1135.74084472656
 10
1154.586059570311
 20
-1130.49877929688
 10
1159.694213867189
 20
-1125.371459960939
 10
1165.069458007811
 20
-1126.943969726561
 10
1168.3251953125
 20
-1127.896484375
 10
1170.41552734375
 20
-1130.95922851563
 10
1172.3955078125
 20
-1133.71362304688
 10
1174.37548828125
 20
-1136.468139648439
 10
1176.91845703125
 20
-1139.34033203125
 10
1180.3037109375
 20
-1139.55688476563
 10
1183.68896484375
 20
-1139.77368164063
 10
1186.9130859375
 20
-1135.30151367188
 10
1184.490112304689
 20
-1132.92749023438
 10
1186.37707519531
 20
-1123.77490234375
 10
1180.25073242188
 20
-1114.29760742188
 10
1171.18286132813
 20
-1110.804077148439
 10
1162.11499023438
 20
-1107.310424804689
 10
1150.62255859375
 20
-1110.68725585938
 10
1145.658203125
 20
-1119.04113769531
 10
1142.5810546875
 20
-1124.21948242188
 10
1142.123901367189
 20
-1130.48803710938
 10
1141.74291992188
 20
-1136.49963378906
 10
1140.96337890625
 20
-1148.80102539063
 10
1140.19580078125
 20
-1161.28247070313
 10
1142.73461914063
 20
-1173.34423828125
 10
1145.27368164063
 20
-1185.40600585938
 10
1151.57836914063
 20
-1197.20678710938
 10
1162.07971191406
 20
-1203.66088867188
 10
1177.568359375
 20
-1213.17993164063
 10
1177.950561523439
 20
-1241.94982910156
 10
1172.720703125
 20
-1263.07629394531
 10
1171.490600585939
 20
-1268.04565429688
 10
1169.49487304688
 20
-1273.18017578125
 10
1165.34423828125
 20
-1276.176879882811
 10
1161.193481445311
 20
-1279.17358398438
 10
1154.39526367188
 20
-1278.905151367189
 10
1151.82299804688
 20
-1274.47875976563
 10
1150.08813476563
 20
-1271.49328613281
 10
1150.72338867188
 20
-1267.733520507811
 10
1151.63647460938
 20
-1264.40344238281
 10
1152.5498046875
 20
-1261.073364257811
 10
1153.69750976563
 20
-1257.58520507813
 10
1152.82763671875
 20
-1254.243530273439
 10
1151.95776367188
 20
-1250.90185546875
 10
1148.0224609375
 20
-1248.12548828125
 10
1145.0302734375
 20
-1249.84887695313
 10
1143.08203125
 20
-1250.97094726563
 10
1142.385131835939
 20
-1253.40087890625
 10
1141.935546875
 20
-1255.603637695311
 10
1140.5908203125
 20
-1262.19116210938
 10
1139.91918945313
 20
-1268.91577148438
 10
1139.93408203125
 20
-1275.63916015625
 10
1139.93994140625
 20
-1278.1884765625
 10
1140.09228515625
 20
-1280.837768554689
 10
1140.62915039063
 20
-1283.34375
 10
1139.847534179689
 20
-1283.95141601563
 10
1138.96215820313
 20
-1284.40698242188
 10
1137.9931640625
 20
-1284.60205078125
 10
1135.5361328125
 20
-1285.0966796875
 10
1132.96826171875
 20
-1283.832885742189
 10
1131.34765625
 20
-1281.92114257813
 10
1130.38500976563
 20
-1280.78564453125
 10
1129.7109375
 20
-1279.453125
 10
1129.20751953125
 20
-1278.04663085938
 10
1129.50512695313
 20
-1277.552368164061
 10
1129.79125976563
 20
-1277.05541992188
 10
1130.05200195313
 20
-1276.557983398439
 10
1135.529296875
 20
-1266.107543945311
 10
1137.510131835939
 20
-1254.18823242188
 10
1138.49243164063
 20
-1242.430297851561
 10
1141.989868164061
 20
-1200.5673828125
 10
1133.52905273438
 20
-1157.772094726561
 10
1114.36450195313
 20
-1120.3896484375
 10
1108.55200195313
 20
-1119.40063476563
 10
1100.2685546875
 20
-1121.523315429689
 10
1095.2021484375
 20
-1126.55029296875
 10
1090.13549804688
 20
-1131.57739257813
 10
1087.90551757813
 20
-1138.8935546875
 10
1087.53662109375
 20
-1146.021362304689
 10
1087.16772460938
 20
-1153.14916992188
 10
1088.46435546875
 20
-1160.24194335938
 10
1089.49877929688
 20
-1167.30395507813
 10
1094.73754882813
 20
-1203.06945800781
 10
1093.44995117188
 20
-1240.199584960939
 10
1105.43029785156
 20
-1274.3037109375
 10
1107.0869140625
 20
-1279.01977539063
 10
1109.6630859375
 20
-1284.212890625
 10
1114.09155273438
 20
-1286.02514648438
 10
1117.63745117188
 20
-1317.37622070313
 10
1109.97216796875
 20
-1349.10375976563
 10
1112.408203125
 20
-1380.57202148438
 10
1112.60717773438
 20
-1383.14306640625
 10
1113.0234375
 20
-1385.998046875
 10
1115.04162597656
 20
-1387.603393554689
 10
1116.6513671875
 20
-1388.883911132811
 10
1118.861938476561
 20
-1389.015747070311
 10
1120.91772460938
 20
-1389.08410644531
 10
1141.86938476563
 20
-1389.780639648439
 10
1162.85180664063
 20
-1389.55419921875
 10
1183.78369140625
 20
-1388.40576171875
 10
1185.44360351563
 20
-1383.35034179688
 10
1186.2998046875
 20
-1377.330688476561
 10
1183.07861328125
 20
-1373.09545898438
 10
1181.102416992189
 20
-1370.4970703125
 10
1177.97119140625
 20
-1369.10791015625
 10
1175.31079101563
 20
-1367.21594238281
 10
1169.168823242189
 20
-1362.84814453125
 10
1165.549682617189
 20
-1355.7685546875
 10
1162.994995117189
 20
-1348.67797851563
 10
1158.403442382811
 20
-1335.93420410156
 10
1156.67358398438
 20
-1321.20458984375
 10
1162.97802734375
 20
-1309.21557617188
 10
1167.81701660156
 20
-1300.013671875
 10
1176.83618164063
 20
-1293.45703125
 10
1181.22973632813
 20
-1284.034301757811
 10
1181.952026367189
 20
-1282.48510742188
 10
1182.44287109375
 20
-1280.52319335938
 10
1181.83959960938
 20
-1279.048828125
 10
1188.90380859375
 20
-1269.75439453125
 10
1192.90649414063
 20
-1257.93603515625
 10
1193.30102539063
 20
-1246.18237304688
 10
1193.90600585938
 20
-1228.155395507811
 10
1186.94580078125
 20
-1210.48559570313
 10
1176.67456054688
 20
-1195.65869140625
 10
1170.26123046875
 20
-1186.40087890625
 10
1162.53369140625
 20
-1178.021484375
 10
1157.08557128906
 20
-1168.16479492188
 97
        0
 97
        1
330
84
 75
     2
 76
     1
 98
        1
 10
0.0
 20
0.0
450
        0
451
        0
460
0.0
461
0.0
452
        0
462
0.0
453
        0
470

  0
SPLINE
  5
86
330
79
100
AcDbEntity
  8
Layer 1
100
AcDbSpline
210
0.0
220
0.0
230
1.0
 70
     9
 71
     3
 72
    29
 73
    25
 74
     0
 42
0.0000000001
 43
0.0000000001
 40
0.0
 40
0.0
 40
0.0
 40
0.0
 40
1.0
 40
1.0
 40
1.0
 40
2.0
 40
2.0
 40
2.0
 40
3.0
 40
3.0
 40
3.0
 40
4.0
 40
4.0
 40
4.0
 40
5.0
 40
5.0
 40
5.0
 40
6.0
 40
6.0
 40
6.0
 40
7.0
 40
7.0
 40
7.0
 40
8.0
 40
8.0
 40
8.0
 40
8.0
 10
1216.490356445311
 20
-1184.335815429689
 30
0.0
 10
1215.58178710938
 20
-1183.50805664063
 30
0.0
 10
1215.34619140625
 20
-1182.19262695313
 30
0.0
 10
1215.162109375
 20
-1180.97729492188
 30
0.0
 10
1214.07824707031
 20
-1173.8193359375
 30
0.0
 10
1212.994262695311
 20
-1166.66137695313
 30
0.0
 10
1211.91040039063
 20
-1159.50341796875
 30
0.0
 10
1211.3427734375
 20
-1155.75512695313
 30
0.0
 10
1210.7802734375
 20
-1151.88354492188
 30
0.0
 10
1211.73193359375
 20
-1148.2138671875
 30
0.0
 10
1212.1171875
 20
-1146.72802734375
 30
0.0
 10
1213.17797851563
 20
-1145.03930664063
 30
0.0
 10
1214.69921875
 20
-1145.2451171875
 30
0.0
 10
1215.7451171875
 20
-1145.38671875
 30
0.0
 10
1216.43212890625
 20
-1146.37866210938
 30
0.0
 10
1216.972778320311
 20
-1147.28515625
 30
0.0
 10
1222.430053710939
 20
-1156.43505859375
 30
0.0
 10
1226.697265625
 20
-1166.29370117188
 30
0.0
 10
1228.01611328125
 20
-1179.86328125
 30
0.0
 10
1225.80444335938
 20
-1180.0654296875
 30
0.0
 10
1224.19848632813
 20
-1181.94848632813
 30
0.0
 10
1222.50048828125
 20
-1183.3798828125
 30
0.0
 10
1220.802368164061
 20
-1184.81127929688
 30
0.0
 10
1218.132202148439
 20
-1185.83154296875
 30
0.0
 10
1216.490356445311
 20
-1184.335815429689
 30
0.0
  0
SPLINE
  5
87
330
79
100
AcDbEntity
  8
Layer 1
100
AcDbSpline
210
0.0
220
0.0
230
1.0
 70
     9
 71
     3
 72
    89
 73
    85
 74
     0
 42
0.0000000001
 43
0.0000000001
 40
0.0
 40
0.0
 40
0.0
 40
0.0
 40
1.0
 40
1.0
 40
1.0
 40
2.0
 40
2.0
 40
2.0
 40
3.0
 40
3.0
 40
3.0
 40
4.0
 40
4.0
 40
4.0
 40
5.0
 40
5.0
 40
5.0
 40
6.0
 40
6.0
 40
6.0
 40
7.0
 40
7.0
 40
7.0
 40
8.0
 40
8.0
 40
8.0
 40
9.0
 40
9.0
 40
9.0
 40
10.0
 40
10.0
 40
10.0
 40
11.0
 40
11.0
 40
11.0
 40
12.0
 40
12.0
 40
12.0
 40
13.0
 40
13.0
 40
13.0
 40
14.0
 40
14.0
 40
14.0
 40
15.0
 40
15.0
 40
15.0
 40
16.0
 40
16.0
 40
16.0
 40
17.0
 40
17.0
 40
17.0
 40
18.0
 40
18.0
 40
18.0
 40
19.0
 40
19.0
 40
19.0
 40
20.0
 40
20.0
 40
20.0
 40
21.0
 40
21.0
 40
21.0
 40
22.0
 40
22.0
 40
22.0
 40
23.0
 40
23.0
 40
23.0
 40
24.0
 40
24.0
 40
24.0
 40
25.0
 40
25.0
 40
25.0
 40
26.0
 40
26.0
 40
26.0
 40
27.0
 40
27.0
 40
27.0
 40
28.0
 40
28.0
 40
28.0
 40
28.0
 10
1305.10498046875
 20
-1366.15551757813
 30
0.0
 10
1302.66455078125
 20
-1365.17041015625
 30
0.0
 10
1299.993530273439
 20
-1364.802734375
 30
0.0
 10
1297.62622070313
 20
-1363.6533203125
 30
0.0
 10
1294.42919921875
 20
-1362.10107421875
 30
0.0
 10
1292.06787109375
 20
-1359.27075195313
 30
0.0
 10
1289.86938476563
 20
-1356.478393554689
 30
0.0
 10
1273.772583007811
 20
-1336.03393554688
 30
0.0
 10
1260.84912109375
 20
-1313.095825195311
 30
0.0
 10
1251.70263671875
 20
-1288.73547363281
 30
0.0
 10
1247.87353515625
 20
-1278.536987304689
 30
0.0
 10
1244.69360351563
 20
-1268.07299804688
 30
0.0
 10
1240.08520507813
 20
-1258.2021484375
 30
0.0
 10
1235.845703125
 20
-1249.12158203125
 30
0.0
 10
1230.261596679689
 20
-1240.44970703125
 30
0.0
 10
1222.6103515625
 20
-1234.0302734375
 30
0.0
 10
1222.725463867189
 20
-1229.54150390625
 30
0.0
 10
1222.68603515625
 20
-1225.048828125
 30
0.0
 10
1222.4697265625
 20
-1220.56372070313
 30
0.0
 10
1222.28100585938
 20
-1216.650268554689
 30
0.0
 10
1221.97875976563
 20
-1212.63354492188
 30
0.0
 10
1223.15649414063
 20
-1208.89672851563
 30
0.0
 10
1224.33422851563
 20
-1205.15991210938
 30
0.0
 10
1227.40625
 20
-1201.7138671875
 30
0.0
 10
1231.312622070311
 20
-1201.41381835938
 30
0.0
 10
1234.224609375
 20
-1208.274291992189
 30
0.0
 10
1237.52807617188
 20
-1214.968627929689
 30
0.0
 10
1241.20166015625
 20
-1221.45336914063
 30
0.0
 10
1242.20227050781
 20
-1223.2197265625
 30
0.0
 10
1243.38891601563
 20
-1225.1044921875
 30
0.0
 10
1245.3134765625
 20
-1225.75073242188
 30
0.0
 10
1248.07958984375
 20
-1226.679809570311
 30
0.0
 10
1251.10473632813
 20
-1224.44165039063
 30
0.0
 10
1252.090942382811
 20
-1221.6953125
 30
0.0
 10
1253.0771484375
 20
-1218.949096679689
 30
0.0
 10
1252.57568359375
 20
-1215.91723632813
 30
0.0
 10
1252.02416992188
 20
-1213.05187988281
 30
0.0
 10
1245.938842773439
 20
-1181.438354492189
 30
0.0
 10
1235.07470703125
 20
-1150.802734375
 30
0.0
 10
1220.55395507813
 20
-1122.06958007813
 30
0.0
 10
1218.51342773438
 20
-1118.03198242188
 30
0.0
 10
1216.30444335938
 20
-1113.911010742189
 30
0.0
 10
1212.774780273439
 20
-1111.08129882813
 30
0.0
 10
1209.2451171875
 20
-1108.25170898438
 30
0.0
 10
1204.03540039063
 20
-1107.02783203125
 30
0.0
 10
1200.14184570313
 20
-1109.33129882813
 30
0.0
 10
1197.02697753906
 20
-1111.173828125
 30
0.0
 10
1195.39282226563
 20
-1114.87182617188
 30
0.0
 10
1195.09692382813
 20
-1118.47875976563
 30
0.0
 10
1194.801147460939
 20
-1122.08569335938
 30
0.0
 10
1195.64013671875
 20
-1125.677368164061
 30
0.0
 10
1196.43078613281
 20
-1129.208984375
 30
0.0
 10
1205.71240234375
 20
-1170.66918945313
 30
0.0
 10
1209.00537109375
 20
-1213.45361328125
 30
0.0
 10
1206.28686523438
 20
-1255.85131835938
 30
0.0
 10
1204.99658203125
 20
-1263.38647460938
 30
0.0
 10
1202.83898925781
 20
-1270.77319335938
 30
0.0
 10
1199.83520507813
 20
-1277.80322265625
 30
0.0
 10
1198.060546875
 20
-1281.9560546875
 30
0.0
 10
1195.96459960938
 20
-1286.11499023438
 30
0.0
 10
1195.68774414063
 20
-1290.62280273438
 30
0.0
 10
1195.34692382813
 20
-1296.171752929689
 30
0.0
 10
1197.79992675781
 20
-1301.46655273438
 30
0.0
 10
1200.1953125
 20
-1306.4833984375
 30
0.0
 10
1203.61059570313
 20
-1313.63623046875
 30
0.0
 10
1207.11303710938
 20
-1320.91772460938
 30
0.0
 10
1212.56713867188
 20
-1326.66918945313
 30
0.0
 10
1217.3603515625
 20
-1331.72387695313
 30
0.0
 10
1223.44970703125
 20
-1335.365844726561
 30
0.0
 10
1228.5185546875
 20
-1340.14428710938
 30
0.0
 10
1237.47924804688
 20
-1348.591796875
 30
0.0
 10
1242.88549804688
 20
-1360.34619140625
 30
0.0
 10
1245.13598632813
 20
-1372.453735351561
 30
0.0
 10
1245.86694335938
 20
-1376.387084960939
 30
0.0
 10
1246.54956054688
 20
-1380.832397460939
 30
0.0
 10
1249.79614257813
 20
-1383.17041015625
 30
0.0
 10
1252.35107421875
 20
-1385.01025390625
 30
0.0
 10
1255.76000976563
 20
-1384.96411132813
 30
0.0
 10
1258.906127929689
 20
-1384.84301757813
 30
0.0
 10
1277.55078125
 20
-1384.12622070313
 30
0.0
 10
1296.1953125
 20
-1383.4091796875
 30
0.0
 10
1314.83984375
 20
-1382.6923828125
 30
0.0
 10
1315.68383789063
 20
-1375.866333007811
 30
0.0
 10
1311.48291015625
 20
-1368.72998046875
 30
0.0
 10
1305.10498046875
 20
-1366.15551757813
 30
0.0
  0
HATCH
  5
88
330
79
100
AcDbEntity
  8
Layer 1
 62
    18
420
        0
440
 33554687
100
AcDbHatch
 10
0.0
 20
0.0
 30
0.0
210
0.0
220
0.0
230
1.0
  2
SOLID
 70
     1
 71
     1
 91
        2
 92
        1
 93
        1
 72
     4
 94
        3
 73
     0
 74
     0
 95
       29
 96
       25
 40
0.0
 40
0.0
 40
0.0
 40
0.0
 40
1.0
 40
1.0
 40
1.0
 40
2.0
 40
2.0
 40
2.0
 40
3.0
 40
3.0
 40
3.0
 40
4.0
 40
4.0
 40
4.0
 40
5.0
 40
5.0
 40
5.0
 40
6.0
 40
6.0
 40
6.0
 40
7.0
 40
7.0
 40
7.0
 40
8.0
 40
8.0
 40
8.0
 40
8.0
 10
1216.490356445311
 20
-1184.335815429689
 10
1215.58178710938
 20
-1183.50805664063
 10
1215.34619140625
 20
-1182.19262695313
 10
1215.162109375
 20
-1180.97729492188
 10
1214.07824707031
 20
-1173.8193359375
 10
1212.994262695311
 20
-1166.66137695313
 10
1211.91040039063
 20
-1159.50341796875
 10
1211.3427734375
 20
-1155.75512695313
 10
1210.7802734375
 20
-1151.88354492188
 10
1211.73193359375
 20
-1148.2138671875
 10
1212.1171875
 20
-1146.72802734375
 10
1213.17797851563
 20
-1145.03930664063
 10
1214.69921875
 20
-1145.2451171875
 10
1215.7451171875
 20
-1145.38671875
 10
1216.43212890625
 20
-1146.37866210938
 10
1216.972778320311
 20
-1147.28515625
 10
1222.430053710939
 20
-1156.43505859375
 10
1226.697265625
 20
-1166.29370117188
 10
1228.01611328125
 20
-1179.86328125
 10
1225.80444335938
 20
-1180.0654296875
 10
1224.19848632813
 20
-1181.94848632813
 10
1222.50048828125
 20
-1183.3798828125
 10
1220.802368164061
 20
-1184.81127929688
 10
1218.132202148439
 20
-1185.83154296875
 10
1216.490356445311
 20
-1184.335815429689
 97
        0
 97
        1
330
86
 92
        1
 93
        1
 72
     4
 94
        3
 73
     0
 74
     0
 95
       89
 96
       85
 40
0.0
 40
0.0
 40
0.0
 40
0.0
 40
1.0
 40
1.0
 40
1.0
 40
2.0
 40
2.0
 40
2.0
 40
3.0
 40
3.0
 40
3.0
 40
4.0
 40
4.0
 40
4.0
 40
5.0
 40
5.0
 40
5.0
 40
6.0
 40
6.0
 40
6.0
 40
7.0
 40
7.0
 40
7.0
 40
8.0
 40
8.0
 40
8.0
 40
9.0
 40
9.0
 40
9.0
 40
10.0
 40
10.0
 40
10.0
 40
11.0
 40
11.0
 40
11.0
 40
12.0
 40
12.0
 40
12.0
 40
13.0
 40
13.0
 40
13.0
 40
14.0
 40
14.0
 40
14.0
 40
15.0
 40
15.0
 40
15.0
 40
16.0
 40
16.0
 40
16.0
 40
17.0
 40
17.0
 40
17.0
 40
18.0
 40
18.0
 40
18.0
 40
19.0
 40
19.0
 40
19.0
 40
20.0
 40
20.0
 40
20.0
 40
21.0
 40
21.0
 40
21.0
 40
22.0
 40
22.0
 40
22.0
 40
23.0
 40
23.0
 40
23.0
 40
24.0
 40
24.0
 40
24.0
 40
25.0
 40
25.0
 40
25.0
 40
26.0
 40
26.0
 40
26.0
 40
27.0
 40
27.0
 40
27.0
 40
28.0
 40
28.0
 40
28.0
 40
28.0
 10
1305.10498046875
 20
-1366.15551757813
 10
1302.66455078125
 20
-1365.17041015625
 10
1299.993530273439
 20
-1364.802734375
 10
1297.62622070313
 20
-1363.6533203125
 10
1294.42919921875
 20
-1362.10107421875
 10
1292.06787109375
 20
-1359.27075195313
 10
1289.86938476563
 20
-1356.478393554689
 10
1273.772583007811
 20
-1336.03393554688
 10
1260.84912109375
 20
-1313.095825195311
 10
1251.70263671875
 20
-1288.73547363281
 10
1247.87353515625
 20
-1278.536987304689
 10
1244.69360351563
 20
-1268.07299804688
 10
1240.08520507813
 20
-1258.2021484375
 10
1235.845703125
 20
-1249.12158203125
 10
1230.261596679689
 20
-1240.44970703125
 10
1222.6103515625
 20
-1234.0302734375
 10
1222.725463867189
 20
-1229.54150390625
 10
1222.68603515625
 20
-1225.048828125
 10
1222.4697265625
 20
-1220.56372070313
 10
1222.28100585938
 20
-1216.650268554689
 10
1221.97875976563
 20
-1212.63354492188
 10
1223.15649414063
 20
-1208.89672851563
 10
1224.33422851563
 20
-1205.15991210938
 10
1227.40625
 20
-1201.7138671875
 10
1231.312622070311
 20
-1201.41381835938
 10
1234.224609375
 20
-1208.274291992189
 10
1237.52807617188
 20
-1214.968627929689
 10
1241.20166015625
 20
-1221.45336914063
 10
1242.20227050781
 20
-1223.2197265625
 10
1243.38891601563
 20
-1225.1044921875
 10
1245.3134765625
 20
-1225.75073242188
 10
1248.07958984375
 20
-1226.679809570311
 10
1251.10473632813
 20
-1224.44165039063
 10
1252.090942382811
 20
-1221.6953125
 10
1253.0771484375
 20
-1218.949096679689
 10
1252.57568359375
 20
-1215.91723632813
 10
1252.02416992188
 20
-1213.05187988281
 10
1245.938842773439
 20
-1181.438354492189
 10
1235.07470703125
 20
-1150.802734375
 10
1220.55395507813
 20
-1122.06958007813
 10
1218.51342773438
 20
-1118.03198242188
 10
1216.30444335938
 20
-1113.911010742189
 10
1212.774780273439
 20
-1111.08129882813
 10
1209.2451171875
 20
-1108.25170898438
 10
1204.03540039063
 20
-1107.02783203125
 10
1200.14184570313
 20
-1109.33129882813
 10
1197.02697753906
 20
-1111.173828125
 10
1195.39282226563
 20
-1114.87182617188
 10
1195.09692382813
 20
-1118.47875976563
 10
1194.801147460939
 20
-1122.08569335938
 10
1195.64013671875
 20
-1125.677368164061
 10
1196.43078613281
 20
-1129.208984375
 10
1205.71240234375
 20
-1170.66918945313
 10
1209.00537109375
 20
-1213.45361328125
 10
1206.28686523438
 20
-1255.85131835938
 10
1204.99658203125
 20
-1263.38647460938
 10
1202.83898925781
 20
-1270.77319335938
 10
1199.83520507813
 20
-1277.80322265625
 10
1198.060546875
 20
-1281.9560546875
 10
1195.96459960938
 20
-1286.11499023438
 10
1195.68774414063
 20
-1290.62280273438
 10
1195.34692382813
 20
-1296.171752929689
 10
1197.79992675781
 20
-1301.46655273438
 10
1200.1953125
 20
-1306.4833984375
 10
1203.61059570313
 20
-1313.63623046875
 10
1207.11303710938
 20
-1320.91772460938
 10
1212.56713867188
 20
-1326.66918945313
 10
1217.3603515625
 20
-1331.72387695313
 10
1223.44970703125
 20
-1335.365844726561
 10
1228.5185546875
 20
-1340.14428710938
 10
1237.47924804688
 20
-1348.591796875
 10
1242.88549804688
 20
-1360.34619140625
 10
1245.13598632813
 20
-1372.453735351561
 10
1245.86694335938
 20
-1376.387084960939
 10
1246.54956054688
 20
-1380.832397460939
 10
1249.79614257813
 20
-1383.17041015625
 10
1252.35107421875
 20
-1385.01025390625
 10
1255.76000976563
 20
-1384.96411132813
 10
1258.906127929689
 20
-1384.84301757813
 10
1277.55078125
 20
-1384.12622070313
 10
1296.1953125
 20
-1383.4091796875
 10
1314.83984375
 20
-1382.6923828125
 10
1315.68383789063
 20
-1375.866333007811
 10
1311.48291015625
 20
-1368.72998046875
 10
1305.10498046875
 20
-1366.15551757813
 97
        0
 97
        1
330
87
 75
     2
 76
     1
 98
        1
 10
0.0
 20
0.0
450
        0
451
        0
460
0.0
461
0.0
452
        0
462
0.0
453
        0
470

  0
SPLINE
  5
89
330
79
100
AcDbEntity
  8
Layer 1
100
AcDbSpline
210
0.0
220
0.0
230
1.0
 70
     9
 71
     3
 72
    26
 73
    22
 74
     0
 42
0.0000000001
 43
0.0000000001
 40
0.0
 40
0.0
 40
0.0
 40
0.0
 40
1.0
 40
1.0
 40
1.0
 40
2.0
 40
2.0
 40
2.0
 40
3.0
 40
3.0
 40
3.0
 40
4.0
 40
4.0
 40
4.0
 40
5.0
 40
5.0
 40
5.0
 40
6.0
 40
6.0
 40
6.0
 40
7.0
 40
7.0
 40
7.0
 40
7.0
 10
1328.80004882813
 20
-1176.40283203125
 30
0.0
 10
1323.75024414063
 20
-1175.115234375
 30
0.0
 10
1319.55102539063
 20
-1169.84936523438
 30
0.0
 10
1321.262084960939
 20
-1164.74877929688
 30
0.0
 10
1323.258911132811
 20
-1158.79638671875
 30
0.0
 10
1325.255737304689
 20
-1152.84387207031
 30
0.0
 10
1327.252563476561
 20
-1146.89135742188
 30
0.0
 10
1327.7197265625
 20
-1145.49877929688
 30
0.0
 10
1328.28637695313
 20
-1143.982299804689
 30
0.0
 10
1329.57080078125
 20
-1143.26977539063
 30
0.0
 10
1331.255981445311
 20
-1142.33471679688
 30
0.0
 10
1333.35546875
 20
-1143.20874023438
 30
0.0
 10
1334.97863769531
 20
-1144.24780273438
 30
0.0
 10
1339.36791992188
 20
-1147.05712890625
 30
0.0
 10
1342.990600585939
 20
-1151.22485351563
 30
0.0
 10
1344.59204101563
 20
-1156.18408203125
 30
0.0
 10
1346.193359375
 20
-1161.143432617189
 30
0.0
 10
1345.602172851561
 20
-1166.89111328125
 30
0.0
 10
1342.5390625
 20
-1171.107299804689
 30
0.0
 10
1339.475952148439
 20
-1175.32348632813
 30
0.0
 10
1333.849975585939
 20
-1177.6904296875
 30
0.0
 10
1328.80004882813
 20
-1176.40283203125
 30
0.0
  0
SPLINE
  5
8A
330
79
100
AcDbEntity
  8
Layer 1
100
AcDbSpline
210
0.0
220
0.0
230
1.0
 70
     9
 71
     3
 72
   311
 73
   307
 74
     0
 42
0.0000000001
 43
0.0000000001
 40
0.0
 40
0.0
 40
0.0
 40
0.0
 40
1.0
 40
1.0
 40
1.0
 40
2.0
 40
2.0
 40
2.0
 40
3.0
 40
3.0
 40
3.0
 40
4.0
 40
4.0
 40
4.0
 40
5.0
 40
5.0
 40
5.0
 40
6.0
 40
6.0
 40
6.0
 40
7.0
 40
7.0
 40
7.0
 40
8.0
 40
8.0
 40
8.0
 40
9.0
 40
9.0
 40
9.0
 40
10.0
 40
10.0
 40
10.0
 40
11.0
 40
11.0
 40
11.0
 40
12.0
 40
12.0
 40
12.0
 40
13.0
 40
13.0
 40
13.0
 40
14.0
 40
14.0
 40
14.0
 40
15.0
 40
15.0
 40
15.0
 40
16.0
 40
16.0
 40
16.0
 40
17.0
 40
17.0
 40
17.0
 40
18.0
 40
18.0
 40
18.0
 40
19.0
 40
19.0
 40
19.0
 40
20.0
 40
20.0
 40
20.0
 40
21.0
 40
21.0
 40
21.0
 40
22.0
 40
22.0
 40
22.0
 40
23.0
 40
23.0
 40
23.0
 40
24.0
 40
24.0
 40
24.0
 40
25.0
 40
25.0
 40
25.0
 40
26.0
 40
26.0
 40
26.0
 40
27.0
 40
27.0
 40
27.0
 40
28.0
 40
28.0
 40
28.0
 40
29.0
 40
29.0
 40
29.0
 40
30.0
 40
30.0
 40
30.0
 40
31.0
 40
31.0
 40
31.0
 40
32.0
 40
32.0
 40
32.0
 40
33.0
 40
33.0
 40
33.0
 40
34.0
 40
34.0
 40
34.0
 40
35.0
 40
35.0
 40
35.0
 40
36.0
 40
36.0
 40
36.0
 40
37.0
 40
37.0
 40
37.0
 40
38.0
 40
38.0
 40
38.0
 40
39.0
 40
39.0
 40
39.0
 40
40.0
 40
40.0
 40
40.0
 40
41.0
 40
41.0
 40
41.0
 40
42.0
 40
42.0
 40
42.0
 40
43.0
 40
43.0
 40
43.0
 40
44.0
 40
44.0
 40
44.0
 40
45.0
 40
45.0
 40
45.0
 40
46.0
 40
46.0
 40
46.0
 40
47.0
 40
47.0
 40
47.0
 40
48.0
 40
48.0
 40
48.0
 40
49.0
 40
49.0
 40
49.0
 40
50.0
 40
50.0
 40
50.0
 40
51.0
 40
51.0
 40
51.0
 40
52.0
 40
52.0
 40
52.0
 40
53.0
 40
53.0
 40
53.0
 40
54.0
 40
54.0
 40
54.0
 40
55.0
 40
55.0
 40
55.0
 40
56.0
 40
56.0
 40
56.0
 40
57.0
 40
57.0
 40
57.0
 40
58.0
 40
58.0
 40
58.0
 40
59.0
 40
59.0
 40
59.0
 40
60.0
 40
60.0
 40
60.0
 40
61.0
 40
61.0
 40
61.0
 40
62.0
 40
62.0
 40
62.0
 40
63.0
 40
63.0
 40
63.0
 40
64.0
 40
64.0
 40
64.0
 40
65.0
 40
65.0
 40
65.0
 40
66.0
 40
66.0
 40
66.0
 40
67.0
 40
67.0
 40
67.0
 40
68.0
 40
68.0
 40
68.0
 40
69.0
 40
69.0
 40
69.0
 40
70.0
 40
70.0
 40
70.0
 40
71.0
 40
71.0
 40
71.0
 40
72.0
 40
72.0
 40
72.0
 40
73.0
 40
73.0
 40
73.0
 40
74.0
 40
74.0
 40
74.0
 40
75.0
 40
75.0
 40
75.0
 40
76.0
 40
76.0
 40
76.0
 40
77.0
 40
77.0
 40
77.0
 40
78.0
 40
78.0
 40
78.0
 40
79.0
 40
79.0
 40
79.0
 40
80.0
 40
80.0
 40
80.0
 40
81.0
 40
81.0
 40
81.0
 40
82.0
 40
82.0
 40
82.0
 40
83.0
 40
83.0
 40
83.0
 40
84.0
 40
84.0
 40
84.0
 40
85.0
 40
85.0
 40
85.0
 40
86.0
 40
86.0
 40
86.0
 40
87.0
 40
87.0
 40
87.0
 40
88.0
 40
88.0
 40
88.0
 40
89.0
 40
89.0
 40
89.0
 40
90.0
 40
90.0
 40
90.0
 40
91.0
 40
91.0
 40
91.0
 40
92.0
 40
92.0
 40
92.0
 40
93.0
 40
93.0
 40
93.0
 40
94.0
 40
94.0
 40
94.0
 40
95.0
 40
95.0
 40
95.0
 40
96.0
 40
96.0
 40
96.0
 40
97.0
 40
97.0
 40
97.0
 40
98.0
 40
98.0
 40
98.0
 40
99.0
 40
99.0
 40
99.0
 40
100.0
 40
100.0
 40
100.0
 40
101.0
 40
101.0
 40
101.0
 40
102.0
 40
102.0
 40
102.0
 40
102.0
 10
1395.02001953125
 20
-1171.91625976563
 30
0.0
 10
1391.539916992189
 20
-1171.95727539063
 30
0.0
 10
1387.584594726561
 20
-1171.864624023439
 30
0.0
 10
1385.26953125
 20
-1169.26574707031
 30
0.0
 10
1382.662719726561
 20
-1166.33935546875
 30
0.0
 10
1383.6171875
 20
-1161.47607421875
 30
0.0
 10
1386.277221679689
 20
-1158.59790039063
 30
0.0
 10
1388.93725585938
 20
-1155.7197265625
 30
0.0
 10
1392.79907226563
 20
-1154.33569335938
 30
0.0
 10
1396.502319335939
 20
-1153.052734375
 30
0.0
 10
1435.3232421875
 20
-1139.60327148438
 30
0.0
 10
1474.14404296875
 20
-1126.15393066406
 30
0.0
 10
1512.96508789063
 20
-1112.704467773439
 30
0.0
 10
1499.2890625
 20
-1106.42846679688
 30
0.0
 10
1483.367553710939
 20
-1109.243774414061
 30
0.0
 10
1468.609252929689
 20
-1112.17822265625
 30
0.0
 10
1432.58862304688
 20
-1119.34008789063
 30
0.0
 10
1396.56811523438
 20
-1126.501953125
 30
0.0
 10
1360.547485351561
 20
-1133.66381835938
 30
0.0
 10
1365.21496582031
 20
-1144.56225585938
 30
0.0
 10
1370.09008789063
 20
-1156.47387695313
 30
0.0
 10
1371.42065429688
 20
-1168.98974609375
 30
0.0
 10
1372.75122070313
 20
-1181.50561523438
 30
0.0
 10
1370.284545898439
 20
-1194.70971679688
 30
0.0
 10
1362.93041992188
 20
-1204.92407226563
 30
0.0
 10
1356.82275390625
 20
-1213.40698242188
 30
0.0
 10
1347.82153320313
 20
-1219.3359375
 30
0.0
 10
1340.87646484375
 20
-1227.14794921875
 30
0.0
 10
1338.71643066406
 20
-1229.57763671875
 30
0.0
 10
1336.75939941406
 20
-1232.35473632813
 30
0.0
 10
1335.2216796875
 20
-1235.311401367189
 30
0.0
 10
1334.71142578125
 20
-1221.84790039063
 30
0.0
 10
1335.0498046875
 20
-1208.353515625
 30
0.0
 10
1336.26391601563
 20
-1194.935546875
 30
0.0
 10
1336.96398925781
 20
-1195.04418945313
 30
0.0
 10
1337.6728515625
 20
-1195.12548828125
 30
0.0
 10
1338.39794921875
 20
-1195.1533203125
 30
0.0
 10
1347.58764648438
 20
-1195.5078125
 30
0.0
 10
1355.92065429688
 20
-1188.360229492189
 30
0.0
 10
1359.059204101561
 20
-1179.7158203125
 30
0.0
 10
1362.19775390625
 20
-1171.0712890625
 30
0.0
 10
1360.956176757811
 20
-1161.37768554688
 30
0.0
 10
1357.955078125
 20
-1152.6845703125
 30
0.0
 10
1352.5595703125
 20
-1137.05590820313
 30
0.0
 10
1341.4609375
 20
-1123.481323242189
 30
0.0
 10
1327.26879882813
 20
-1115.01318359375
 30
0.0
 10
1327.25439453125
 20
-1114.88354492188
 30
0.0
 10
1327.24096679688
 20
-1114.75317382813
 30
0.0
 10
1327.22631835938
 20
-1114.62377929688
 30
0.0
 10
1326.04150390625
 20
-1104.14282226563
 30
0.0
 10
1324.581420898439
 20
-1093.69506835938
 30
0.0
 10
1323.12158203125
 20
-1083.2490234375
 30
0.0
 10
1321.36303710938
 20
-1070.66650390625
 30
0.0
 10
1319.544921875
 20
-1057.87475585938
 30
0.0
 10
1314.228393554689
 20
-1046.3359375
 30
0.0
 10
1311.7333984375
 20
-1040.9208984375
 30
0.0
 10
1308.40112304688
 20
-1035.078125
 30
0.0
 10
1310.14135742188
 20
-1029.37573242188
 30
0.0
 10
1310.786987304689
 20
-1027.259765625
 30
0.0
 10
1312.11437988281
 20
-1025.01806640625
 30
0.0
 10
1311.20263671875
 20
-1023.00238037109
 30
0.0
 10
1310.299194335939
 20
-1021.004516601561
 30
0.0
 10
1307.51831054688
 20
-1020.491821289061
 30
0.0
 10
1305.501342773439
 20
-1021.35180664063
 30
0.0
 10
1303.484375
 20
-1022.211730957029
 30
0.0
 10
1302.06420898438
 20
-1024.02783203125
 30
0.0
 10
1300.73486328125
 20
-1025.771484375
 30
0.0
 10
1298.5107421875
 20
-1026.13940429688
 30
0.0
 10
1296.60522460938
 20
-1023.933715820311
 30
0.0
 10
1296.15454101563
 20
-1021.724914550779
 30
0.0
 10
1295.70385742188
 20
-1019.51611328125
 30
0.0
 10
1296.19140625
 20
-1017.22766113281
 30
0.0
 10
1296.056762695311
 20
-1014.977416992189
 30
0.0
 10
1295.92199707031
 20
-1012.72711181641
 30
0.0
 10
1294.84497070313
 20
-1010.221008300779
 30
0.0
 10
1292.66674804688
 20
-1009.64038085938
 30
0.0
 10
1289.516479492189
 20
-1008.80072021484
 30
0.0
 10
1287.08544921875
 20
-1012.33636474609
 30
0.0
 10
1285.74487304688
 20
-1015.30810546875
 30
0.0
 10
1282.6064453125
 20
-1016.26281738281
 30
0.0
 10
1280.05126953125
 20
-1012.76080322266
 30
0.0
 10
1278.66674804688
 20
-1009.78686523438
 30
0.0
 10
1277.282348632811
 20
-1006.81298828125
 30
0.0
 10
1274.8720703125
 20
-1003.26141357422
 30
0.0
 10
1271.688110351561
 20
-1004.05084228516
 30
0.0
 10
1268.85620117188
 20
-1004.7529296875
 30
0.0
 10
1268.053100585939
 20
-1008.3271484375
 30
0.0
 10
1267.78979492188
 20
-1011.23291015625
 30
0.0
 10
1265.31909179688
 20
-1012.2685546875
 30
0.0
 10
1262.7841796875
 20
-1013.31927490234
 30
0.0
 10
1260.10803222656
 20
-1013.43994140625
 30
0.0
 10
1257.43188476563
 20
-1013.56060791016
 30
0.0
 10
1254.541015625
 20
-1012.56256103516
 30
0.0
 10
1253.117553710939
 20
-1010.29315185547
 30
0.0
 10
1252.433471679689
 20
-1009.20263671875
 30
0.0
 10
1252.0869140625
 20
-1007.84490966797
 30
0.0
 10
1251.07080078125
 20
-1007.05438232422
 30
0.0
 10
1249.28442382813
 20
-1005.66461181641
 30
0.0
 10
1246.47534179688
 20
-1007.00299072266
 30
0.0
 10
1245.49829101563
 20
-1009.04455566406
 30
0.0
 10
1244.52124023438
 20
-1011.08612060547
 30
0.0
 10
1244.79418945313
 20
-1013.47216796875
 30
0.0
 10
1244.96435546875
 20
-1015.72906494141
 30
0.0
 10
1245.25927734375
 20
-1019.636352539061
 30
0.0
 10
1245.11279296875
 20
-1023.80804443359
 30
0.0
 10
1242.99560546875
 20
-1027.10522460938
 30
0.0
 10
1240.87817382813
 20
-1030.40234375
 30
0.0
 10
1236.2001953125
 20
-1032.3154296875
 30
0.0
 10
1232.873046875
 20
-1030.24536132813
 30
0.0
 10
1231.97680664063
 20
-1029.68774414063
 30
0.0
 10
1231.208129882811
 20
-1028.87658691406
 30
0.0
 10
1230.19165039063
 20
-1028.59204101563
 30
0.0
 10
1228.15869140625
 20
-1028.02294921875
 30
0.0
 10
1226.113159179689
 20
-1029.94445800781
 30
0.0
 10
1225.73510742188
 20
-1032.021484375
 30
0.0
 10
1225.35693359375
 20
-1034.09838867188
 30
0.0
 10
1226.14331054688
 20
-1036.19116210938
 30
0.0
 10
1226.915405273439
 20
-1038.15600585938
 30
0.0
 10
1228.96643066406
 20
-1043.37512207031
 30
0.0
 10
1231.017578125
 20
-1048.59423828125
 30
0.0
 10
1233.06860351563
 20
-1053.81323242188
 30
0.0
 10
1233.6533203125
 20
-1055.30126953125
 30
0.0
 10
1234.24768066406
 20
-1056.8427734375
 30
0.0
 10
1234.1865234375
 20
-1058.4404296875
 30
0.0
 10
1234.12548828125
 20
-1060.037963867189
 30
0.0
 10
1233.22875976563
 20
-1061.71875
 30
0.0
 10
1231.69873046875
 20
-1062.1826171875
 30
0.0
 10
1229.64184570313
 20
-1062.80639648438
 30
0.0
 10
1227.60205078125
 20
-1061.08203125
 30
0.0
 10
1225.45434570313
 20
-1061.00170898438
 30
0.0
 10
1222.206909179689
 20
-1060.88037109375
 30
0.0
 10
1219.96948242188
 20
-1064.784301757811
 30
0.0
 10
1220.66235351563
 20
-1067.95922851563
 30
0.0
 10
1221.35522460938
 20
-1071.13427734375
 30
0.0
 10
1223.98754882813
 20
-1073.501953125
 30
0.0
 10
1226.68530273438
 20
-1075.313598632811
 30
0.0
 10
1229.38305664063
 20
-1077.125366210939
 30
0.0
 10
1232.355102539061
 20
-1078.672241210939
 30
0.0
 10
1234.41235351563
 20
-1081.18774414063
 30
0.0
 10
1236.4697265625
 20
-1083.703125
 30
0.0
 10
1237.32592773438
 20
-1087.604858398439
 30
0.0
 10
1235.316284179689
 20
-1090.15844726563
 30
0.0
 10
1233.19104003906
 20
-1092.85913085938
 30
0.0
 10
1228.643432617189
 20
-1093.21948242188
 30
0.0
 10
1227.332641601561
 20
-1096.39624023438
 30
0.0
 10
1226.26635742188
 20
-1098.980346679689
 30
0.0
 10
1228.28637695313
 20
-1102.06005859375
 30
0.0
 10
1230.939453125
 20
-1102.9404296875
 30
0.0
 10
1233.5927734375
 20
-1103.820678710939
 30
0.0
 10
1236.52587890625
 20
-1103.0126953125
 30
0.0
 10
1239.01586914063
 20
-1101.74194335938
 30
0.0
 10
1241.505859375
 20
-1100.47119140625
 30
0.0
 10
1243.75512695313
 20
-1098.7470703125
 30
0.0
 10
1246.31372070313
 20
-1097.62084960938
 30
0.0
 10
1252.79321289063
 20
-1094.76928710938
 30
0.0
 10
1260.70971679688
 20
-1096.24438476563
 30
0.0
 10
1266.36108398438
 20
-1100.50756835938
 30
0.0
 10
1272.0126953125
 20
-1104.77075195313
 30
0.0
 10
1275.50903320313
 20
-1111.48388671875
 30
0.0
 10
1276.800415039061
 20
-1118.4443359375
 30
0.0
 10
1276.98583984375
 20
-1119.44384765625
 30
0.0
 10
1277.17260742188
 20
-1120.505859375
 30
0.0
 10
1277.412109375
 20
-1121.5517578125
 30
0.0
 10
1277.03979492188
 20
-1123.63403320313
 30
0.0
 10
1277.100219726561
 20
-1125.818359375
 30
0.0
 10
1277.18029785156
 20
-1127.94897460938
 30
0.0
 10
1277.95483398438
 20
-1148.55627441406
 30
0.0
 10
1278.72924804688
 20
-1169.16357421875
 30
0.0
 10
1279.50366210938
 20
-1189.77075195313
 30
0.0
 10
1279.575561523439
 20
-1191.6826171875
 30
0.0
 10
1279.62890625
 20
-1193.68627929688
 30
0.0
 10
1278.78198242188
 20
-1195.40161132813
 30
0.0
 10
1277.93481445313
 20
-1197.117065429689
 30
0.0
 10
1275.86865234375
 20
-1198.3935546875
 30
0.0
 10
1274.08959960938
 20
-1197.69018554688
 30
0.0
 10
1272.04736328125
 20
-1196.882690429689
 30
0.0
 10
1271.61694335938
 20
-1194.23706054688
 30
0.0
 10
1271.468627929689
 20
-1192.04602050781
 30
0.0
 10
1269.98120117188
 20
-1170.06298828125
 30
0.0
 10
1265.7353515625
 20
-1148.267944335939
 30
0.0
 10
1258.86254882813
 20
-1127.333984375
 30
0.0
 10
1257.836791992189
 20
-1124.20947265625
 30
0.0
 10
1256.708984375
 20
-1121.025390625
 30
0.0
 10
1254.58422851563
 20
-1118.51513671875
 30
0.0
 10
1252.45947265625
 20
-1116.00512695313
 30
0.0
 10
1249.103515625
 20
-1114.27758789063
 30
0.0
 10
1243.94873046875
 20
-1113.274780273439
 30
0.0
 10
1250.009399414061
 20
-1144.818359375
 30
0.0
 10
1256.06994628906
 20
-1176.36181640625
 30
0.0
 10
1262.13061523438
 20
-1207.90539550781
 30
0.0
 10
1262.86083984375
 20
-1211.70654296875
 30
0.0
 10
1263.6162109375
 20
-1215.578735351561
 30
0.0
 10
1265.4794921875
 20
-1218.971313476561
 30
0.0
 10
1267.34301757813
 20
-1222.363891601561
 30
0.0
 10
1270.53076171875
 20
-1225.26025390625
 30
0.0
 10
1274.3681640625
 20
-1225.7666015625
 30
0.0
 10
1278.896850585939
 20
-1226.364135742189
 30
0.0
 10
1283.32983398438
 20
-1223.473022460939
 30
0.0
 10
1285.82690429688
 20
-1219.64794921875
 30
0.0
 10
1288.323852539061
 20
-1215.82275390625
 30
0.0
 10
1289.24780273438
 20
-1211.20556640625
 30
0.0
 10
1289.963256835939
 20
-1206.69384765625
 30
0.0
 10
1294.19482421875
 20
-1180.01318359375
 30
0.0
 10
1292.88427734375
 20
-1152.80200195313
 30
0.0
 10
1291.5625
 20
-1125.82006835938
 30
0.0
 10
1291.47509765625
 20
-1124.0361328125
 30
0.0
 10
1291.23046875
 20
-1122.06945800781
 30
0.0
 10
1290.71411132813
 20
-1120.26721191406
 30
0.0
 10
1291.02734375
 20
-1118.51733398438
 30
0.0
 10
1291.14575195313
 20
-1116.70776367188
 30
0.0
 10
1291.34350585938
 20
-1114.93872070313
 30
0.0
 10
1291.69409179688
 20
-1111.802734375
 30
0.0
 10
1292.47412109375
 20
-1108.46728515625
 30
0.0
 10
1294.838745117189
 20
-1106.378051757811
 30
0.0
 10
1297.78369140625
 20
-1103.77612304688
 30
0.0
 10
1302.54467773438
 20
-1103.994140625
 30
0.0
 10
1305.77612304688
 20
-1106.23010253906
 30
0.0
 10
1309.0078125
 20
-1108.46606445313
 30
0.0
 10
1310.841796875
 20
-1112.30395507813
 30
0.0
 10
1311.49951171875
 20
-1116.17822265625
 30
0.0
 10
1311.79663085938
 20
-1117.92846679688
 30
0.0
 10
1311.875366210939
 20
-1119.69775390625
 30
0.0
 10
1311.84399414063
 20
-1121.47192382813
 30
0.0
 10
1308.65893554688
 20
-1158.61767578125
 30
0.0
 10
1302.06201171875
 20
-1195.470092773439
 30
0.0
 10
1292.15454101563
 20
-1231.41162109375
 30
0.0
 10
1298.011108398439
 20
-1237.541381835939
 30
0.0
 10
1300.81909179688
 20
-1235.556640625
 30
0.0
 10
1302.47045898438
 20
-1233.03125
 30
0.0
 10
1304.12182617188
 20
-1230.505859375
 30
0.0
 10
1304.83154296875
 20
-1227.4970703125
 30
0.0
 10
1305.49487304688
 20
-1224.553588867189
 30
0.0
 10
1308.93090820313
 20
-1209.306030273439
 30
0.0
 10
1311.89501953125
 20
-1193.9521484375
 30
0.0
 10
1314.38159179688
 20
-1178.52124023438
 30
0.0
 10
1317.40112304688
 20
-1182.22375488281
 30
0.0
 10
1320.709594726561
 20
-1186.0654296875
 30
0.0
 10
1324.42333984375
 20
-1189.1298828125
 30
0.0
 10
1323.419921875
 20
-1192.98583984375
 30
0.0
 10
1322.904174804689
 20
-1197.00805664063
 30
0.0
 10
1322.46728515625
 20
-1200.97778320313
 30
0.0
 10
1319.613159179689
 20
-1226.91552734375
 30
0.0
 10
1318.794067382811
 20
-1253.42724609375
 30
0.0
 10
1324.65380859375
 20
-1278.85498046875
 30
0.0
 10
1325.63989257813
 20
-1283.133911132811
 30
0.0
 10
1326.84155273438
 20
-1287.43762207031
 30
0.0
 10
1329.15283203125
 20
-1291.171020507811
 30
0.0
 10
1331.46435546875
 20
-1294.90441894531
 30
0.0
 10
1335.038696289061
 20
-1298.04711914063
 30
0.0
 10
1339.33569335938
 20
-1298.95043945313
 30
0.0
 10
1340.438354492189
 20
-1299.18225097656
 30
0.0
 10
1341.71801757813
 20
-1299.21850585938
 30
0.0
 10
1342.54858398438
 20
-1298.45727539063
 30
0.0
 10
1343.6328125
 20
-1297.46362304688
 30
0.0
 10
1343.37841796875
 20
-1295.72314453125
 30
0.0
 10
1343.04736328125
 20
-1294.29028320313
 30
0.0
 10
1340.06201171875
 20
-1281.37109375
 30
0.0
 10
1337.92041015625
 20
-1268.2607421875
 30
0.0
 10
1336.59033203125
 20
-1255.068359375
 30
0.0
 10
1337.6171875
 20
-1255.31591796875
 30
0.0
 10
1338.61059570313
 20
-1255.93774414063
 30
0.0
 10
1339.240234375
 20
-1256.78491210938
 30
0.0
 10
1340.5458984375
 20
-1258.54174804688
 30
0.0
 10
1340.78979492188
 20
-1260.83618164063
 30
0.0
 10
1341.21875
 20
-1262.98266601563
 30
0.0
 10
1342.580078125
 20
-1269.79467773438
 30
0.0
 10
1346.296875
 20
-1276.11279296875
 30
0.0
 10
1351.58984375
 20
-1280.61181640625
 30
0.0
 10
1353.023559570311
 20
-1281.83056640625
 30
0.0
 10
1354.705688476561
 20
-1282.96606445313
 30
0.0
 10
1356.58740234375
 20
-1282.96923828125
 30
0.0
 10
1361.14672851563
 20
-1282.97680664063
 30
0.0
 10
1362.95043945313
 20
-1276.61743164063
 30
0.0
 10
1361.28076171875
 20
-1272.37475585938
 30
0.0
 10
1359.610961914061
 20
-1268.13232421875
 30
0.0
 10
1356.02893066406
 20
-1264.78271484375
 30
0.0
 10
1354.751953125
 20
-1260.40576171875
 30
0.0
 10
1370.2236328125
 20
-1263.21752929688
 30
0.0
 10
1382.604614257811
 20
-1278.04272460938
 30
0.0
 10
1382.613647460939
 20
-1293.76782226563
 30
0.0
 10
1407.69995117188
 20
-1274.13427734375
 30
0.0
 10
1422.69799804688
 20
-1244.65014648438
 30
0.0
 10
1436.91552734375
 20
-1216.142944335939
 30
0.0
 10
1437.4658203125
 20
-1215.03979492188
 30
0.0
 10
1438.029174804689
 20
-1213.787963867189
 30
0.0
 10
1437.639038085939
 20
-1212.61865234375
 30
0.0
 10
1436.75122070313
 20
-1209.95776367188
 30
0.0
 10
1432.83422851563
 20
-1210.87231445313
 30
0.0
 10
1430.23022460938
 20
-1211.915649414061
 30
0.0
 10
1419.77661132813
 20
-1216.10400390625
 30
0.0
 10
1406.80859375
 20
-1212.87036132813
 30
0.0
 10
1399.54541015625
 20
-1204.264038085939
 30
0.0
 10
1398.13879394531
 20
-1202.59716796875
 30
0.0
 10
1396.897094726561
 20
-1200.240356445311
 30
0.0
 10
1397.961303710939
 20
-1198.33654785156
 30
0.0
 10
1398.74609375
 20
-1196.93273925781
 30
0.0
 10
1400.46630859375
 20
-1196.400268554689
 30
0.0
 10
1402.026245117189
 20
-1196.0087890625
 30
0.0
 10
1421.622680664061
 20
-1191.09130859375
 30
0.0
 10
1441.95361328125
 20
-1189.11206054688
 30
0.0
 10
1462.13061523438
 20
-1190.15771484375
 30
0.0
 10
1470.589965820311
 20
-1190.59619140625
 30
0.0
 10
1480.250366210939
 20
-1191.14306640625
 30
0.0
 10
1486.22045898438
 20
-1185.1337890625
 30
0.0
 10
1456.7529296875
 20
-1176.02844238281
 30
0.0
 10
1425.860229492189
 20
-1171.551147460939
 30
0.0
 10
1395.02001953125
 20
-1171.91625976563
 30
0.0
  0
HATCH
  5
8B
330
79
100
AcDbEntity
  8
Layer 1
 62
    18
420
        0
440
 33554687
100
AcDbHatch
 10
0.0
 20
0.0
 30
0.0
210
0.0
220
0.0
230
1.0
  2
SOLID
 70
     1
 71
     1
 91
        2
 92
        1
 93
        1
 72
     4
 94
        3
 73
     0
 74
     0
 95
       26
 96
       22
 40
0.0
 40
0.0
 40
0.0
 40
0.0
 40
1.0
 40
1.0
 40
1.0
 40
2.0
 40
2.0
 40
2.0
 40
3.0
 40
3.0
 40
3.0
 40
4.0
 40
4.0
 40
4.0
 40
5.0
 40
5.0
 40
5.0
 40
6.0
 40
6.0
 40
6.0
 40
7.0
 40
7.0
 40
7.0
 40
7.0
 10
1328.80004882813
 20
-1176.40283203125
 10
1323.75024414063
 20
-1175.115234375
 10
1319.55102539063
 20
-1169.84936523438
 10
1321.262084960939
 20
-1164.74877929688
 10
1323.258911132811
 20
-1158.79638671875
 10
1325.255737304689
 20
-1152.84387207031
 10
1327.252563476561
 20
-1146.89135742188
 10
1327.7197265625
 20
-1145.49877929688
 10
1328.28637695313
 20
-1143.982299804689
 10
1329.57080078125
 20
-1143.26977539063
 10
1331.255981445311
 20
-1142.33471679688
 10
1333.35546875
 20
-1143.20874023438
 10
1334.97863769531
 20
-1144.24780273438
 10
1339.36791992188
 20
-1147.05712890625
 10
1342.990600585939
 20
-1151.22485351563
 10
1344.59204101563
 20
-1156.18408203125
 10
1346.193359375
 20
-1161.143432617189
 10
1345.602172851561
 20
-1166.89111328125
 10
1342.5390625
 20
-1171.107299804689
 10
1339.475952148439
 20
-1175.32348632813
 10
1333.849975585939
 20
-1177.6904296875
 10
1328.80004882813
 20
-1176.40283203125
 97
        0
 97
        1
330
89
 92
        1
 93
        1
 72
     4
 94
        3
 73
     0
 74
     0
 95
      311
 96
      307
 40
0.0
 40
0.0
 40
0.0
 40
0.0
 40
1.0
 40
1.0
 40
1.0
 40
2.0
 40
2.0
 40
2.0
 40
3.0
 40
3.0
 40
3.0
 40
4.0
 40
4.0
 40
4.0
 40
5.0
 40
5.0
 40
5.0
 40
6.0
 40
6.0
 40
6.0
 40
7.0
 40
7.0
 40
7.0
 40
8.0
 40
8.0
 40
8.0
 40
9.0
 40
9.0
 40
9.0
 40
10.0
 40
10.0
 40
10.0
 40
11.0
 40
11.0
 40
11.0
 40
12.0
 40
12.0
 40
12.0
 40
13.0
 40
13.0
 40
13.0
 40
14.0
 40
14.0
 40
14.0
 40
15.0
 40
15.0
 40
15.0
 40
16.0
 40
16.0
 40
16.0
 40
17.0
 40
17.0
 40
17.0
 40
18.0
 40
18.0
 40
18.0
 40
19.0
 40
19.0
 40
19.0
 40
20.0
 40
20.0
 40
20.0
 40
21.0
 40
21.0
 40
21.0
 40
22.0
 40
22.0
 40
22.0
 40
23.0
 40
23.0
 40
23.0
 40
24.0
 40
24.0
 40
24.0
 40
25.0
 40
25.0
 40
25.0
 40
26.0
 40
26.0
 40
26.0
 40
27.0
 40
27.0
 40
27.0
 40
28.0
 40
28.0
 40
28.0
 40
29.0
 40
29.0
 40
29.0
 40
30.0
 40
30.0
 40
30.0
 40
31.0
 40
31.0
 40
31.0
 40
32.0
 40
32.0
 40
32.0
 40
33.0
 40
33.0
 40
33.0
 40
34.0
 40
34.0
 40
34.0
 40
35.0
 40
35.0
 40
35.0
 40
36.0
 40
36.0
 40
36.0
 40
37.0
 40
37.0
 40
37.0
 40
38.0
 40
38.0
 40
38.0
 40
39.0
 40
39.0
 40
39.0
 40
40.0
 40
40.0
 40
40.0
 40
41.0
 40
41.0
 40
41.0
 40
42.0
 40
42.0
 40
42.0
 40
43.0
 40
43.0
 40
43.0
 40
44.0
 40
44.0
 40
44.0
 40
45.0
 40
45.0
 40
45.0
 40
46.0
 40
46.0
 40
46.0
 40
47.0
 40
47.0
 40
47.0
 40
48.0
 40
48.0
 40
48.0
 40
49.0
 40
49.0
 40
49.0
 40
50.0
 40
50.0
 40
50.0
 40
51.0
 40
51.0
 40
51.0
 40
52.0
 40
52.0
 40
52.0
 40
53.0
 40
53.0
 40
53.0
 40
54.0
 40
54.0
 40
54.0
 40
55.0
 40
55.0
 40
55.0
 40
56.0
 40
56.0
 40
56.0
 40
57.0
 40
57.0
 40
57.0
 40
58.0
 40
58.0
 40
58.0
 40
59.0
 40
59.0
 40
59.0
 40
60.0
 40
60.0
 40
60.0
 40
61.0
 40
61.0
 40
61.0
 40
62.0
 40
62.0
 40
62.0
 40
63.0
 40
63.0
 40
63.0
 40
64.0
 40
64.0
 40
64.0
 40
65.0
 40
65.0
 40
65.0
 40
66.0
 40
66.0
 40
66.0
 40
67.0
 40
67.0
 40
67.0
 40
68.0
 40
68.0
 40
68.0
 40
69.0
 40
69.0
 40
69.0
 40
70.0
 40
70.0
 40
70.0
 40
71.0
 40
71.0
 40
71.0
 40
72.0
 40
72.0
 40
72.0
 40
73.0
 40
73.0
 40
73.0
 40
74.0
 40
74.0
 40
74.0
 40
75.0
 40
75.0
 40
75.0
 40
76.0
 40
76.0
 40
76.0
 40
77.0
 40
77.0
 40
77.0
 40
78.0
 40
78.0
 40
78.0
 40
79.0
 40
79.0
 40
79.0
 40
80.0
 40
80.0
 40
80.0
 40
81.0
 40
81.0
 40
81.0
 40
82.0
 40
82.0
 40
82.0
 40
83.0
 40
83.0
 40
83.0
 40
84.0
 40
84.0
 40
84.0
 40
85.0
 40
85.0
 40
85.0
 40
86.0
 40
86.0
 40
86.0
 40
87.0
 40
87.0
 40
87.0
 40
88.0
 40
88.0
 40
88.0
 40
89.0
 40
89.0
 40
89.0
 40
90.0
 40
90.0
 40
90.0
 40
91.0
 40
91.0
 40
91.0
 40
92.0
 40
92.0
 40
92.0
 40
93.0
 40
93.0
 40
93.0
 40
94.0
 40
94.0
 40
94.0
 40
95.0
 40
95.0
 40
95.0
 40
96.0
 40
96.0
 40
96.0
 40
97.0
 40
97.0
 40
97.0
 40
98.0
 40
98.0
 40
98.0
 40
99.0
 40
99.0
 40
99.0
 40
100.0
 40
100.0
 40
100.0
 40
101.0
 40
101.0
 40
101.0
 40
102.0
 40
102.0
 40
102.0
 40
102.0
 10
1395.02001953125
 20
-1171.91625976563
 10
1391.539916992189
 20
-1171.95727539063
 10
1387.584594726561
 20
-1171.864624023439
 10
1385.26953125
 20
-1169.26574707031
 10
1382.662719726561
 20
-1166.33935546875
 10
1383.6171875
 20
-1161.47607421875
 10
1386.277221679689
 20
-1158.59790039063
 10
1388.93725585938
 20
-1155.7197265625
 10
1392.79907226563
 20
-1154.33569335938
 10
1396.502319335939
 20
-1153.052734375
 10
1435.3232421875
 20
-1139.60327148438
 10
1474.14404296875
 20
-1126.15393066406
 10
1512.96508789063
 20
-1112.704467773439
 10
1499.2890625
 20
-1106.42846679688
 10
1483.367553710939
 20
-1109.243774414061
 10
1468.609252929689
 20
-1112.17822265625
 10
1432.58862304688
 20
-1119.34008789063
 10
1396.56811523438
 20
-1126.501953125
 10
1360.547485351561
 20
-1133.66381835938
 10
1365.21496582031
 20
-1144.56225585938
 10
1370.09008789063
 20
-1156.47387695313
 10
1371.42065429688
 20
-1168.98974609375
 10
1372.75122070313
 20
-1181.50561523438
 10
1370.284545898439
 20
-1194.70971679688
 10
1362.93041992188
 20
-1204.92407226563
 10
1356.82275390625
 20
-1213.40698242188
 10
1347.82153320313
 20
-1219.3359375
 10
1340.87646484375
 20
-1227.14794921875
 10
1338.71643066406
 20
-1229.57763671875
 10
1336.75939941406
 20
-1232.35473632813
 10
1335.2216796875
 20
-1235.311401367189
 10
1334.71142578125
 20
-1221.84790039063
 10
1335.0498046875
 20
-1208.353515625
 10
1336.26391601563
 20
-1194.935546875
 10
1336.96398925781
 20
-1195.04418945313
 10
1337.6728515625
 20
-1195.12548828125
 10
1338.39794921875
 20
-1195.1533203125
 10
1347.58764648438
 20
-1195.5078125
 10
1355.92065429688
 20
-1188.360229492189
 10
1359.059204101561
 20
-1179.7158203125
 10
1362.19775390625
 20
-1171.0712890625
 10
1360.956176757811
 20
-1161.37768554688
 10
1357.955078125
 20
-1152.6845703125
 10
1352.5595703125
 20
-1137.05590820313
 10
1341.4609375
 20
-1123.481323242189
 10
1327.26879882813
 20
-1115.01318359375
 10
1327.25439453125
 20
-1114.88354492188
 10
1327.24096679688
 20
-1114.75317382813
 10
1327.22631835938
 20
-1114.62377929688
 10
1326.04150390625
 20
-1104.14282226563
 10
1324.581420898439
 20
-1093.69506835938
 10
1323.12158203125
 20
-1083.2490234375
 10
1321.36303710938
 20
-1070.66650390625
 10
1319.544921875
 20
-1057.87475585938
 10
1314.228393554689
 20
-1046.3359375
 10
1311.7333984375
 20
-1040.9208984375
 10
1308.40112304688
 20
-1035.078125
 10
1310.14135742188
 20
-1029.37573242188
 10
1310.786987304689
 20
-1027.259765625
 10
1312.11437988281
 20
-1025.01806640625
 10
1311.20263671875
 20
-1023.00238037109
 10
1310.299194335939
 20
-1021.004516601561
 10
1307.51831054688
 20
-1020.491821289061
 10
1305.501342773439
 20
-1021.35180664063
 10
1303.484375
 20
-1022.211730957029
 10
1302.06420898438
 20
-1024.02783203125
 10
1300.73486328125
 20
-1025.771484375
 10
1298.5107421875
 20
-1026.13940429688
 10
1296.60522460938
 20
-1023.933715820311
 10
1296.15454101563
 20
-1021.724914550779
 10
1295.70385742188
 20
-1019.51611328125
 10
1296.19140625
 20
-1017.22766113281
 10
1296.056762695311
 20
-1014.977416992189
 10
1295.92199707031
 20
-1012.72711181641
 10
1294.84497070313
 20
-1010.221008300779
 10
1292.66674804688
 20
-1009.64038085938
 10
1289.516479492189
 20
-1008.80072021484
 10
1287.08544921875
 20
-1012.33636474609
 10
1285.74487304688
 20
-1015.30810546875
 10
1282.6064453125
 20
-1016.26281738281
 10
1280.05126953125
 20
-1012.76080322266
 10
1278.66674804688
 20
-1009.78686523438
 10
1277.282348632811
 20
-1006.81298828125
 10
1274.8720703125
 20
-1003.26141357422
 10
1271.688110351561
 20
-1004.05084228516
 10
1268.85620117188
 20
-1004.7529296875
 10
1268.053100585939
 20
-1008.3271484375
 10
1267.78979492188
 20
-1011.23291015625
 10
1265.31909179688
 20
-1012.2685546875
 10
1262.7841796875
 20
-1013.31927490234
 10
1260.10803222656
 20
-1013.43994140625
 10
1257.43188476563
 20
-1013.56060791016
 10
1254.541015625
 20
-1012.56256103516
 10
1253.117553710939
 20
-1010.29315185547
 10
1252.433471679689
 20
-1009.20263671875
 10
1252.0869140625
 20
-1007.84490966797
 10
1251.07080078125
 20
-1007.05438232422
 10
1249.28442382813
 20
-1005.66461181641
 10
1246.47534179688
 20
-1007.00299072266
 10
1245.49829101563
 20
-1009.04455566406
 10
1244.52124023438
 20
-1011.08612060547
 10
1244.79418945313
 20
-1013.47216796875
 10
1244.96435546875
 20
-1015.72906494141
 10
1245.25927734375
 20
-1019.636352539061
 10
1245.11279296875
 20
-1023.80804443359
 10
1242.99560546875
 20
-1027.10522460938
 10
1240.87817382813
 20
-1030.40234375
 10
1236.2001953125
 20
-1032.3154296875
 10
1232.873046875
 20
-1030.24536132813
 10
1231.97680664063
 20
-1029.68774414063
 10
1231.208129882811
 20
-1028.87658691406
 10
1230.19165039063
 20
-1028.59204101563
 10
1228.15869140625
 20
-1028.02294921875
 10
1226.113159179689
 20
-1029.94445800781
 10
1225.73510742188
 20
-1032.021484375
 10
1225.35693359375
 20
-1034.09838867188
 10
1226.14331054688
 20
-1036.19116210938
 10
1226.915405273439
 20
-1038.15600585938
 10
1228.96643066406
 20
-1043.37512207031
 10
1231.017578125
 20
-1048.59423828125
 10
1233.06860351563
 20
-1053.81323242188
 10
1233.6533203125
 20
-1055.30126953125
 10
1234.24768066406
 20
-1056.8427734375
 10
1234.1865234375
 20
-1058.4404296875
 10
1234.12548828125
 20
-1060.037963867189
 10
1233.22875976563
 20
-1061.71875
 10
1231.69873046875
 20
-1062.1826171875
 10
1229.64184570313
 20
-1062.80639648438
 10
1227.60205078125
 20
-1061.08203125
 10
1225.45434570313
 20
-1061.00170898438
 10
1222.206909179689
 20
-1060.88037109375
 10
1219.96948242188
 20
-1064.784301757811
 10
1220.66235351563
 20
-1067.95922851563
 10
1221.35522460938
 20
-1071.13427734375
 10
1223.98754882813
 20
-1073.501953125
 10
1226.68530273438
 20
-1075.313598632811
 10
1229.38305664063
 20
-1077.125366210939
 10
1232.355102539061
 20
-1078.672241210939
 10
1234.41235351563
 20
-1081.18774414063
 10
1236.4697265625
 20
-1083.703125
 10
1237.32592773438
 20
-1087.604858398439
 10
1235.316284179689
 20
-1090.15844726563
 10
1233.19104003906
 20
-1092.85913085938
 10
1228.643432617189
 20
-1093.21948242188
 10
1227.332641601561
 20
-1096.39624023438
 10
1226.26635742188
 20
-1098.980346679689
 10
1228.28637695313
 20
-1102.06005859375
 10
1230.939453125
 20
-1102.9404296875
 10
1233.5927734375
 20
-1103.820678710939
 10
1236.52587890625
 20
-1103.0126953125
 10
1239.01586914063
 20
-1101.74194335938
 10
1241.505859375
 20
-1100.47119140625
 10
1243.75512695313
 20
-1098.7470703125
 10
1246.31372070313
 20
-1097.62084960938
 10
1252.79321289063
 20
-1094.76928710938
 10
1260.70971679688
 20
-1096.24438476563
 10
1266.36108398438
 20
-1100.50756835938
 10
1272.0126953125
 20
-1104.77075195313
 10
1275.50903320313
 20
-1111.48388671875
 10
1276.800415039061
 20
-1118.4443359375
 10
1276.98583984375
 20
-1119.44384765625
 10
1277.17260742188
 20
-1120.505859375
 10
1277.412109375
 20
-1121.5517578125
 10
1277.03979492188
 20
-1123.63403320313
 10
1277.100219726561
 20
-1125.818359375
 10
1277.18029785156
 20
-1127.94897460938
 10
1277.95483398438
 20
-1148.55627441406
 10
1278.72924804688
 20
-1169.16357421875
 10
1279.50366210938
 20
-1189.77075195313
 10
1279.575561523439
 20
-1191.6826171875
 10
1279.62890625
 20
-1193.68627929688
 10
1278.78198242188
 20
-1195.40161132813
 10
1277.93481445313
 20
-1197.117065429689
 10
1275.86865234375
 20
-1198.3935546875
 10
1274.08959960938
 20
-1197.69018554688
 10
1272.04736328125
 20
-1196.882690429689
 10
1271.61694335938
 20
-1194.23706054688
 10
1271.468627929689
 20
-1192.04602050781
 10
1269.98120117188
 20
-1170.06298828125
 10
1265.7353515625
 20
-1148.267944335939
 10
1258.86254882813
 20
-1127.333984375
 10
1257.836791992189
 20
-1124.20947265625
 10
1256.708984375
 20
-1121.025390625
 10
1254.58422851563
 20
-1118.51513671875
 10
1252.45947265625
 20
-1116.00512695313
 10
1249.103515625
 20
-1114.27758789063
 10
1243.94873046875
 20
-1113.274780273439
 10
1250.009399414061
 20
-1144.818359375
 10
1256.06994628906
 20
-1176.36181640625
 10
1262.13061523438
 20
-1207.90539550781
 10
1262.86083984375
 20
-1211.70654296875
 10
1263.6162109375
 20
-1215.578735351561
 10
1265.4794921875
 20
-1218.971313476561
 10
1267.34301757813
 20
-1222.363891601561
 10
1270.53076171875
 20
-1225.26025390625
 10
1274.3681640625
 20
-1225.7666015625
 10
1278.896850585939
 20
-1226.364135742189
 10
1283.32983398438
 20
-1223.473022460939
 10
1285.82690429688
 20
-1219.64794921875
 10
1288.323852539061
 20
-1215.82275390625
 10
1289.24780273438
 20
-1211.20556640625
 10
1289.963256835939
 20
-1206.69384765625
 10
1294.19482421875
 20
-1180.01318359375
 10
1292.88427734375
 20
-1152.80200195313
 10
1291.5625
 20
-1125.82006835938
 10
1291.47509765625
 20
-1124.0361328125
 10
1291.23046875
 20
-1122.06945800781
 10
1290.71411132813
 20
-1120.26721191406
 10
1291.02734375
 20
-1118.51733398438
 10
1291.14575195313
 20
-1116.70776367188
 10
1291.34350585938
 20
-1114.93872070313
 10
1291.69409179688
 20
-1111.802734375
 10
1292.47412109375
 20
-1108.46728515625
 10
1294.838745117189
 20
-1106.378051757811
 10
1297.78369140625
 20
-1103.77612304688
 10
1302.54467773438
 20
-1103.994140625
 10
1305.77612304688
 20
-1106.23010253906
 10
1309.0078125
 20
-1108.46606445313
 10
1310.841796875
 20
-1112.30395507813
 10
1311.49951171875
 20
-1116.17822265625
 10
1311.79663085938
 20
-1117.92846679688
 10
1311.875366210939
 20
-1119.69775390625
 10
1311.84399414063
 20
-1121.47192382813
 10
1308.65893554688
 20
-1158.61767578125
 10
1302.06201171875
 20
-1195.470092773439
 10
1292.15454101563
 20
-1231.41162109375
 10
1298.011108398439
 20
-1237.541381835939
 10
1300.81909179688
 20
-1235.556640625
 10
1302.47045898438
 20
-1233.03125
 10
1304.12182617188
 20
-1230.505859375
 10
1304.83154296875
 20
-1227.4970703125
 10
1305.49487304688
 20
-1224.553588867189
 10
1308.93090820313
 20
-1209.306030273439
 10
1311.89501953125
 20
-1193.9521484375
 10
1314.38159179688
 20
-1178.52124023438
 10
1317.40112304688
 20
-1182.22375488281
 10
1320.709594726561
 20
-1186.0654296875
 10
1324.42333984375
 20
-1189.1298828125
 10
1323.419921875
 20
-1192.98583984375
 10
1322.904174804689
 20
-1197.00805664063
 10
1322.46728515625
 20
-1200.97778320313
 10
1319.613159179689
 20
-1226.91552734375
 10
1318.794067382811
 20
-1253.42724609375
 10
1324.65380859375
 20
-1278.85498046875
 10
1325.63989257813
 20
-1283.133911132811
 10
1326.84155273438
 20
-1287.43762207031
 10
1329.15283203125
 20
-1291.171020507811
 10
1331.46435546875
 20
-1294.90441894531
 10
1335.038696289061
 20
-1298.04711914063
 10
1339.33569335938
 20
-1298.95043945313
 10
1340.438354492189
 20
-1299.18225097656
 10
1341.71801757813
 20
-1299.21850585938
 10
1342.54858398438
 20
-1298.45727539063
 10
1343.6328125
 20
-1297.46362304688
 10
1343.37841796875
 20
-1295.72314453125
 10
1343.04736328125
 20
-1294.29028320313
 10
1340.06201171875
 20
-1281.37109375
 10
1337.92041015625
 20
-1268.2607421875
 10
1336.59033203125
 20
-1255.068359375
 10
1337.6171875
 20
-1255.31591796875
 10
1338.61059570313
 20
-1255.93774414063
 10
1339.240234375
 20
-1256.78491210938
 10
1340.5458984375
 20
-1258.54174804688
 10
1340.78979492188
 20
-1260.83618164063
 10
1341.21875
 20
-1262.98266601563
 10
1342.580078125
 20
-1269.79467773438
 10
1346.296875
 20
-1276.11279296875
 10
1351.58984375
 20
-1280.61181640625
 10
1353.023559570311
 20
-1281.83056640625
 10
1354.705688476561
 20
-1282.96606445313
 10
1356.58740234375
 20
-1282.96923828125
 10
1361.14672851563
 20
-1282.97680664063
 10
1362.95043945313
 20
-1276.61743164063
 10
1361.28076171875
 20
-1272.37475585938
 10
1359.610961914061
 20
-1268.13232421875
 10
1356.02893066406
 20
-1264.78271484375
 10
1354.751953125
 20
-1260.40576171875
 10
1370.2236328125
 20
-1263.21752929688
 10
1382.604614257811
 20
-1278.04272460938
 10
1382.613647460939
 20
-1293.76782226563
 10
1407.69995117188
 20
-1274.13427734375
 10
1422.69799804688
 20
-1244.65014648438
 10
1436.91552734375
 20
-1216.142944335939
 10
1437.4658203125
 20
-1215.03979492188
 10
1438.029174804689
 20
-1213.787963867189
 10
1437.639038085939
 20
-1212.61865234375
 10
1436.75122070313
 20
-1209.95776367188
 10
1432.83422851563
 20
-1210.87231445313
 10
1430.23022460938
 20
-1211.915649414061
 10
1419.77661132813
 20
-1216.10400390625
 10
1406.80859375
 20
-1212.87036132813
 10
1399.54541015625
 20
-1204.264038085939
 10
1398.13879394531
 20
-1202.59716796875
 10
1396.897094726561
 20
-1200.240356445311
 10
1397.961303710939
 20
-1198.33654785156
 10
1398.74609375
 20
-1196.93273925781
 10
1400.46630859375
 20
-1196.400268554689
 10
1402.026245117189
 20
-1196.0087890625
 10
1421.622680664061
 20
-1191.09130859375
 10
1441.95361328125
 20
-1189.11206054688
 10
1462.13061523438
 20
-1190.15771484375
 10
1470.589965820311
 20
-1190.59619140625
 10
1480.250366210939
 20
-1191.14306640625
 10
1486.22045898438
 20
-1185.1337890625
 10
1456.7529296875
 20
-1176.02844238281
 10
1425.860229492189
 20
-1171.551147460939
 10
1395.02001953125
 20
-1171.91625976563
 97
        0
 97
        1
330
8A
 75
     2
 76
     1
 98
        1
 10
0.0
 20
0.0
450
        0
451
        0
460
0.0
461
0.0
452
        0
462
0.0
453
        0
470

  0
ENDBLK
  5
7C
330
79
100
AcDbEntity
  8
0
100
AcDbBlockEnd
  0
ENDSEC
  0
SECTION
  2
ENTITIES
  0
INSERT
  5
7A
330
70
100
AcDbEntity
  8
Layer 1
100
AcDbBlockReference
  2
Block_0
 10
0.0
 20
0.0
 30
0.0
  0
ENDSEC
  0
SECTION
  2
OBJECTS
  0
DICTIONARY
  5
C
330
0
100
AcDbDictionary
281
     1
  3
ACAD_COLOR
350
63
  3
ACAD_DETAILVIEWSTYLE
350
6A
  3
ACAD_GROUP
350
D
  3
ACAD_LAYOUT
350
62
  3
ACAD_MATERIAL
350
10
  3
ACAD_MLEADERSTYLE
350
66
  3
ACAD_MLINESTYLE
350
5F
  3
ACAD_PLOTSETTINGS
350
61
  3
ACAD_PLOTSTYLENAME
350
E
  3
ACAD_SCALELIST
350
42
  3
ACAD_SECTIONVIEWSTYLE
350
68
  3
ACAD_TABLESTYLE
350
64
  3
ACAD_VISUALSTYLE
350
29
  3
ACDB_RECOMPOSE_DATA
350
94
  3
AcDbVariableDictionary
350
8C
  0
DICTIONARY
  5
63
102
{ACAD_REACTORS
330
C
102
}
330
C
100
AcDbDictionary
281
     1
  0
DICTIONARY
  5
6A
102
{ACAD_REACTORS
330
C
102
}
330
C
100
AcDbDictionary
281
     1
  3
Imperial24
350
6B
  0
DICTIONARY
  5
D
102
{ACAD_REACTORS
330
C
102
}
330
C
100
AcDbDictionary
281
     1
  0
DICTIONARY
  5
62
102
{ACAD_REACTORS
330
C
102
}
330
C
100
AcDbDictionary
281
     1
  3
Layout1
350
6F
  3
Layout2
350
77
  3
Model
350
73
  0
DICTIONARY
  5
10
102
{ACAD_REACTORS
330
C
102
}
330
C
100
AcDbDictionary
281
     1
  3
ByBlock
350
19
  3
ByLayer
350
11
  3
Global
350
21
  0
DICTIONARY
  5
66
102
{ACAD_REACTORS
330
C
102
}
330
C
100
AcDbDictionary
281
     1
  3
Standard
350
67
  0
DICTIONARY
  5
5F
102
{ACAD_REACTORS
330
C
102
}
330
C
100
AcDbDictionary
281
     1
  3
Standard
350
60
  0
DICTIONARY
  5
61
102
{ACAD_REACTORS
330
C
102
}
330
C
100
AcDbDictionary
281
     1
  0
ACDBDICTIONARYWDFLT
  5
E
102
{ACAD_REACTORS
330
C
102
}
330
C
100
AcDbDictionary
281
     1
  3
Normal
350
F
100
AcDbDictionaryWithDefault
340
F
  0
DICTIONARY
  5
42
102
{ACAD_REACTORS
330
C
102
}
330
C
100
AcDbDictionary
281
     1
  3
A0
350
43
  3
A1
350
44
  3
A2
350
45
  3
A3
350
46
  3
A4
350
47
  3
A5
350
48
  3
A6
350
49
  3
A7
350
4A
  3
A8
350
4B
  3
A9
350
4C
  3
B0
350
4D
  3
B1
350
4E
  3
B2
350
4F
  3
B3
350
50
  3
B4
350
51
  3
B5
350
52
  3
B6
350
53
  0
DICTIONARY
  5
68
102
{ACAD_REACTORS
330
C
102
}
330
C
100
AcDbDictionary
281
     1
  3
Imperial24
350
69
  0
DICTIONARY
  5
64
102
{ACAD_REACTORS
330
C
102
}
330
C
100
AcDbDictionary
281
     1
  3
Standard
350
65
  0
DICTIONARY
  5
29
102
{ACAD_REACTORS
330
C
102
}
330
C
100
AcDbDictionary
281
     1
  3
2dWireframe
350
2F
  3
Basic
350
2E
  3
Brighten
350
35
  3
ColorChange
350
39
  3
Conceptual
350
32
  3
Dim
350
34
  3
EdgeColorOff
350
41
  3
Facepattern
350
38
  3
Flat
350
2A
  3
FlatWithEdges
350
2B
  3
Gouraud
350
2C
  3
GouraudWithEdges
350
2D
  3
Hidden
350
31
  3
JitterOff
350
3F
  3
Linepattern
350
37
  3
OverhangOff
350
40
  3
Realistic
350
33
  3
Shaded
350
3E
  3
Shaded with edges
350
3D
  3
Shades of Gray
350
3A
  3
Sketchy
350
3B
  3
Thicken
350
36
  3
Wireframe
350
30
  3
X-Ray
350
3C
  0
XRECORD
  5
94
102
{ACAD_REACTORS
330
C
102
}
330
C
100
AcDbXrecord
280
     1
 90
        1
330
65
  0
DICTIONARY
  5
8C
102
{ACAD_REACTORS
330
C
102
}
330
C
100
AcDbDictionary
281
     1
  3
CANNOSCALE
350
91
  3
CMLEADERSTYLE
350
8E
  3
CTABLESTYLE
350
8D
  3
CVIEWDETAILSTYLE
350
8F
  3
CVIEWSECTIONSTYLE
350
90
  0
ACDBDETAILVIEWSTYLE
  5
6B
102
{ACAD_REACTORS
330
6A
102
}
330
6A
100
AcDbModelDocViewStyle
 70
     0
  3
Imperial24
290
     1
300
Imperial24
 90
        0
100
AcDbDetailViewStyle
 70
     0
 71
     0
 90
        3
 71
     1
340
55
 62
   256
 40
0.24
340
0
 62
   256
 40
0.24
300

 40
0.36
280
     3
 71
     2
340
5D
 90
       25
 62
   256
 71
     3
340
55
 62
   256
 40
0.24
 90
        1
 40
0.75
 90
        1
300
%<\AcVar ViewType \f "%tc1">% %<\AcVar ViewDetailId>%\PSCALE %<\AcVar ViewScale \f "%sn">%
 71
     4
340
5D
 90
       25
 62
   256
340
5D
 90
       25
 62
   256
280
     0
  0
LAYOUT
  5
6F
102
{ACAD_REACTORS
330
62
102
}
330
62
100
AcDbPlotSettings
  1

  2

  4

  6

 40
0.0
 41
0.0
 42
0.0
 43
0.0
 44
0.0
 45
0.0
 46
0.0
 47
0.0
 48
0.0
 49
0.0
140
0.0
141
0.0
142
1.0
143
1.0
 70
   688
 72
     0
 73
     0
 74
     5
  7

 75
    16
147
1.0
 76
     0
 77
     2
 78
   300
148
0.0
149
0.0
100
AcDbLayout
  1
Layout1
 70
     1
 71
     1
 10
0.0
 20
0.0
 11
12.0
 21
9.0
 12
0.0
 22
0.0
 32
0.0
 14
0.0
 24
0.0
 34
0.0
 15
0.0
 25
0.0
 35
0.0
146
0.0
 13
0.0
 23
0.0
 33
0.0
 16
1.0
 26
0.0
 36
0.0
 17
0.0
 27
1.0
 37
0.0
 76
     0
330
6C
  0
LAYOUT
  5
77
102
{ACAD_REACTORS
330
62
102
}
330
62
100
AcDbPlotSettings
  1

  2

  4

  6

 40
0.0
 41
0.0
 42
0.0
 43
0.0
 44
0.0
 45
0.0
 46
0.0
 47
0.0
 48
0.0
 49
0.0
140
0.0
141
0.0
142
1.0
143
1.0
 70
   688
 72
     0
 73
     0
 74
     5
  7

 75
    16
147
1.0
 76
     0
 77
     2
 78
   300
148
0.0
149
0.0
100
AcDbLayout
  1
Layout2
 70
     1
 71
     2
 10
0.0
 20
0.0
 11
12.0
 21
9.0
 12
0.0
 22
0.0
 32
0.0
 14
0.0
 24
0.0
 34
0.0
 15
0.0
 25
0.0
 35
0.0
146
0.0
 13
0.0
 23
0.0
 33
0.0
 16
1.0
 26
0.0
 36
0.0
 17
0.0
 27
1.0
 37
0.0
 76
     0
330
74
  0
LAYOUT
  5
73
102
{ACAD_REACTORS
330
62
102
}
330
62
100
AcDbPlotSettings
  1

  2

  4

  6

 40
0.0
 41
0.0
 42
0.0
 43
0.0
 44
0.0
 45
0.0
 46
0.0
 47
0.0
 48
0.0
 49
0.0
140
0.0
141
0.0
142
1.0
143
1.0
 70
  1712
 72
     0
 73
     0
 74
     0
  7

 75
     0
147
1.0
 76
     0
 77
     2
 78
   300
148
0.0
149
0.0
100
AcDbLayout
  1
Model
 70
     1
 71
     0
 10
0.0
 20
0.0
 11
12.0
 21
9.0
 12
0.0
 22
0.0
 32
0.0
 14
0.0
 24
0.0
 34
0.0
 15
0.0
 25
0.0
 35
0.0
146
0.0
 13
0.0
 23
0.0
 33
0.0
 16
1.0
 26
0.0
 36
0.0
 17
0.0
 27
1.0
 37
0.0
 76
     0
330
70
  0
MATERIAL
  5
19
102
{ACAD_XDICTIONARY
360
1A
102
}
102
{ACAD_REACTORS
330
10
102
}
330
10
100
AcDbMaterial
  1
ByBlock
 72
     0
 43
0.0208333333333333
 43
0.0
 43
0.0
 43
0.0
 43
0.0
 43
0.0208333333333333
 43
0.0
 43
0.0
 43
0.0
 43
0.0
 43
1.0
 43
0.0
 43
0.0
 43
0.0
 43
0.0
 43
1.0
 77
     0
 47
0.0208333333333333
 47
0.0
 47
0.0
 47
0.0
 47
0.0
 47
0.0208333333333333
 47
0.0
 47
0.0
 47
0.0
 47
0.0
 47
1.0
 47
0.0
 47
0.0
 47
0.0
 47
0.0
 47
1.0
171
     0
 49
0.0208333333333333
 49
0.0
 49
0.0
 49
0.0
 49
0.0
 49
0.0208333333333333
 49
0.0
 49
0.0
 49
0.0
 49
0.0
 49
1.0
 49
0.0
 49
0.0
 49
0.0
 49
0.0
 49
1.0
175
     0
142
0.0208333333333333
142
0.0
142
0.0
142
0.0
142
0.0
142
0.0208333333333333
142
0.0
142
0.0
142
0.0
142
0.0
142
1.0
142
0.0
142
0.0
142
0.0
142
0.0
142
1.0
179
     0
144
0.0208333333333333
144
0.0
144
0.0
144
0.0
144
0.0
144
0.0208333333333333
144
0.0
144
0.0
144
0.0
144
0.0
144
1.0
144
0.0
144
0.0
144
0.0
144
0.0
144
1.0
147
0.0208333333333333
147
0.0
147
0.0
147
0.0
147
0.0
147
0.0208333333333333
147
0.0
147
0.0
147
0.0
147
0.0
147
1.0
147
0.0
147
0.0
147
0.0
147
0.0
147
1.0
  0
MATERIAL
  5
11
102
{ACAD_XDICTIONARY
360
12
102
}
102
{ACAD_REACTORS
330
10
102
}
330
10
100
AcDbMaterial
  1
ByLayer
 72
     0
 43
0.0208333333333333
 43
0.0
 43
0.0
 43
0.0
 43
0.0
 43
0.0208333333333333
 43
0.0
 43
0.0
 43
0.0
 43
0.0
 43
1.0
 43
0.0
 43
0.0
 43
0.0
 43
0.0
 43
1.0
 77
     0
 47
0.0208333333333333
 47
0.0
 47
0.0
 47
0.0
 47
0.0
 47
0.0208333333333333
 47
0.0
 47
0.0
 47
0.0
 47
0.0
 47
1.0
 47
0.0
 47
0.0
 47
0.0
 47
0.0
 47
1.0
171
     0
 49
0.0208333333333333
 49
0.0
 49
0.0
 49
0.0
 49
0.0
 49
0.0208333333333333
 49
0.0
 49
0.0
 49
0.0
 49
0.0
 49
1.0
 49
0.0
 49
0.0
 49
0.0
 49
0.0
 49
1.0
175
     0
142
0.0208333333333333
142
0.0
142
0.0
142
0.0
142
0.0
142
0.0208333333333333
142
0.0
142
0.0
142
0.0
142
0.0
142
1.0
142
0.0
142
0.0
142
0.0
142
0.0
142
1.0
179
     0
144
0.0208333333333333
144
0.0
144
0.0
144
0.0
144
0.0
144
0.0208333333333333
144
0.0
144
0.0
144
0.0
144
0.0
144
1.0
144
0.0
144
0.0
144
0.0
144
0.0
144
1.0
147
0.0208333333333333
147
0.0
147
0.0
147
0.0
147
0.0
147
0.0208333333333333
147
0.0
147
0.0
147
0.0
147
0.0
147
1.0
147
0.0
147
0.0
147
0.0
147
0.0
147
1.0
  0
MATERIAL
  5
21
102
{ACAD_XDICTIONARY
360
22
102
}
102
{ACAD_REACTORS
330
10
102
}
330
10
100
AcDbMaterial
  1
Global
 72
     0
 43
0.0208333333333333
 43
0.0
 43
0.0
 43
0.0
 43
0.0
 43
0.0208333333333333
 43
0.0
 43
0.0
 43
0.0
 43
0.0
 43
1.0
 43
0.0
 43
0.0
 43
0.0
 43
0.0
 43
1.0
 77
     0
 47
0.0208333333333333
 47
0.0
 47
0.0
 47
0.0
 47
0.0
 47
0.0208333333333333
 47
0.0
 47
0.0
 47
0.0
 47
0.0
 47
1.0
 47
0.0
 47
0.0
 47
0.0
 47
0.0
 47
1.0
171
     0
 49
0.0208333333333333
 49
0.0
 49
0.0
 49
0.0
 49
0.0
 49
0.0208333333333333
 49
0.0
 49
0.0
 49
0.0
 49
0.0
 49
1.0
 49
0.0
 49
0.0
 49
0.0
 49
0.0
 49
1.0
175
     0
142
0.0208333333333333
142
0.0
142
0.0
142
0.0
142
0.0
142
0.0208333333333333
142
0.0
142
0.0
142
0.0
142
0.0
142
1.0
142
0.0
142
0.0
142
0.0
142
0.0
142
1.0
179
     0
144
0.0208333333333333
144
0.0
144
0.0
144
0.0
144
0.0
144
0.0208333333333333
144
0.0
144
0.0
144
0.0
144
0.0
144
1.0
144
0.0
144
0.0
144
0.0
144
0.0
144
1.0
147
0.0208333333333333
147
0.0
147
0.0
147
0.0
147
0.0
147
0.0208333333333333
147
0.0
147
0.0
147
0.0
147
0.0
147
1.0
147
0.0
147
0.0
147
0.0
147
0.0
147
1.0
  0
MLEADERSTYLE
  5
67
102
{ACAD_REACTORS
330
66
102
}
330
66
100
AcDbMLeaderStyle
179
     2
170
     2
171
     1
172
     0
 90
        2
 40
0.0
 41
0.0
173
     1
 91
-1056964608
340
5B
 92
       -2
290
     1
 42
0.09
291
     1
 43
0.36
  3
Standard
 44
0.18
300

342
55
174
     1
178
     6
175
     1
176
     0
 93
-1056964608
 45
0.18
292
     0
297
     0
 46
0.18
 94
-1056964608
 47
1.0
 49
1.0
140
1.0
293
     1
141
0.0
294
     1
177
     0
142
1.0
295
     1
296
     0
143
0.125
271
     0
272
     9
273
     9
298
     1
  0
MLINESTYLE
  5
60
102
{ACAD_REACTORS
330
5F
102
}
330
5F
100
AcDbMlineStyle
  2
STANDARD
 70
     0
  3

 62
   256
 51
90.0
 52
90.0
 71
     2
 49
0.5
 62
   256
  6
BYLAYER
 49
-0.5
 62
   256
  6
BYLAYER
  0
ACDBPLACEHOLDER
  5
F
102
{ACAD_REACTORS
330
E
102
}
330
E
  0
SCALE
  5
43
102
{ACAD_REACTORS
330
42
102
}
330
42
100
AcDbScale
 70
     0
300
1:1
140
1.0
141
1.0
290
     1
  0
SCALE
  5
44
102
{ACAD_REACTORS
330
42
102
}
330
42
100
AcDbScale
 70
     0
300
1/128" = 1'-0"
140
0.0078125
141
12.0
290
     0
  0
SCALE
  5
45
102
{ACAD_REACTORS
330
42
102
}
330
42
100
AcDbScale
 70
     0
300
1/64" = 1'-0"
140
0.015625
141
12.0
290
     0
  0
SCALE
  5
46
102
{ACAD_REACTORS
330
42
102
}
330
42
100
AcDbScale
 70
     0
300
1/32" = 1'-0"
140
0.03125
141
12.0
290
     0
  0
SCALE
  5
47
102
{ACAD_REACTORS
330
42
102
}
330
42
100
AcDbScale
 70
     0
300
1/16" = 1'-0"
140
0.0625
141
12.0
290
     0
  0
SCALE
  5
48
102
{ACAD_REACTORS
330
42
102
}
330
42
100
AcDbScale
 70
     0
300
3/32" = 1'-0"
140
0.09375
141
12.0
290
     0
  0
SCALE
  5
49
102
{ACAD_REACTORS
330
42
102
}
330
42
100
AcDbScale
 70
     0
300
1/8" = 1'-0"
140
0.125
141
12.0
290
     0
  0
SCALE
  5
4A
102
{ACAD_REACTORS
330
42
102
}
330
42
100
AcDbScale
 70
     0
300
3/16" = 1'-0"
140
0.1875
141
12.0
290
     0
  0
SCALE
  5
4B
102
{ACAD_REACTORS
330
42
102
}
330
42
100
AcDbScale
 70
     0
300
1/4" = 1'-0"
140
0.25
141
12.0
290
     0
  0
SCALE
  5
4C
102
{ACAD_REACTORS
330
42
102
}
330
42
100
AcDbScale
 70
     0
300
3/8" = 1'-0"
140
0.375
141
12.0
290
     0
  0
SCALE
  5
4D
102
{ACAD_REACTORS
330
42
102
}
330
42
100
AcDbScale
 70
     0
300
1/2" = 1'-0"
140
0.5
141
12.0
290
     0
  0
SCALE
  5
4E
102
{ACAD_REACTORS
330
42
102
}
330
42
100
AcDbScale
 70
     0
300
3/4" = 1'-0"
140
0.75
141
12.0
290
     0
  0
SCALE
  5
4F
102
{ACAD_REACTORS
330
42
102
}
330
42
100
AcDbScale
 70
     0
300
1" = 1'-0"
140
1.0
141
12.0
290
     0
  0
SCALE
  5
50
102
{ACAD_REACTORS
330
42
102
}
330
42
100
AcDbScale
 70
     0
300
1-1/2" = 1'-0"
140
1.5
141
12.0
290
     0
  0
SCALE
  5
51
102
{ACAD_REACTORS
330
42
102
}
330
42
100
AcDbScale
 70
     0
300
3" = 1'-0"
140
3.0
141
12.0
290
     0
  0
SCALE
  5
52
102
{ACAD_REACTORS
330
42
102
}
330
42
100
AcDbScale
 70
     0
300
6" = 1'-0"
140
6.0
141
12.0
290
     0
  0
SCALE
  5
53
102
{ACAD_REACTORS
330
42
102
}
330
42
100
AcDbScale
 70
     0
300
1'-0" = 1'-0"
140
12.0
141
12.0
290
     0
  0
ACDBSECTIONVIEWSTYLE
  5
69
102
{ACAD_REACTORS
330
68
102
}
330
68
100
AcDbModelDocViewStyle
 70
     0
  3
Imperial24
290
     1
300
Imperial24
 90
        0
100
AcDbSectionViewStyle
 70
     0
 71
     0
 90
       78
 71
     1
340
55
 62
   256
 40
0.24
340
0
340
0
 62
   256
 40
0.24
300
I, O, Q, S, X, Z
 40
0.48
 90
        3
 40
0.18
 90
        1
 71
     2
340
5D
 90
       25
 62
   256
340
5D
 90
       50
 62
   256
 40
0.24
 40
0.0
 40
0.24
 71
     3
340
55
 62
   256
 40
0.24
 90
        1
 40
0.75
 90
        1
300
%<\AcVar ViewType \f "%tc1">% %<\AcVar ViewSectionStartId>%-%<\AcVar ViewSectionEndId>%\PSCALE %<\AcVar ViewScale \f "%sn">%
 71
     4
 62
   256
 62
   257
300
ANSI31
 40
1.0
 90
        0
290
     0
290
     0
 90
        6
 40
0.0
 40
1.570796326794896
 40
0.2617993877991494
 40
1.308996938995747
 40
-0.2617993877991494
 40
1.832595714594046
  0
TABLESTYLE
  5
65
102
{ACAD_XDICTIONARY
360
92
102
}
102
{ACAD_REACTORS
330
64
102
}
330
64
100
AcDbTableStyle
280
     0
  3
Standard
 70
     0
 71
     0
 40
0.06
 41
0.06
280
     0
281
     0
  7
Standard
140
0.18
170
     2
 62
     0
 63
     7
283
     0
 90
      512
 91
        0
  1

274
    -2
284
     1
 64
     0
275
    -2
285
     1
 65
     0
276
    -2
286
     1
 66
     0
277
    -2
287
     1
 67
     0
278
    -2
288
     1
 68
     0
279
    -2
289
     1
 69
     0
  7
Standard
140
0.25
170
     5
 62
     0
 63
     7
283
     0
 90
      512
 91
        0
  1

274
    -2
284
     1
 64
     0
275
    -2
285
     1
 65
     0
276
    -2
286
     1
 66
     0
277
    -2
287
     1
 67
     0
278
    -2
288
     1
 68
     0
279
    -2
289
     1
 69
     0
  7
Standard
140
0.18
170
     5
 62
     0
 63
     7
283
     0
 90
      512
 91
        0
  1

274
    -2
284
     1
 64
     0
275
    -2
285
     1
 65
     0
276
    -2
286
     1
 66
     0
277
    -2
287
     1
 67
     0
278
    -2
288
     1
 68
     0
279
    -2
289
     1
 69
     0
  0
VISUALSTYLE
  5
2F
102
{ACAD_REACTORS
330
29
102
}
330
29
100
AcDbVisualStyle
  2
2dWireframe
 70
     4
177
     3
291
     0
 70
    58
 90
        0
176
     1
 90
        2
176
     1
 90
        0
176
     1
 90
        0
176
     1
 40
0.6
176
     1
 40
30.0
176
     1
 62
     7
420
 16777215
176
     1
 90
        1
176
     1
 90
        4
176
     1
 62
     7
176
     1
 62
   257
176
     1
 90
        1
176
     1
 90
        1
176
     1
 40
1.0
176
     1
 90
        0
176
     1
 62
   257
176
     1
 40
1.0
176
     1
 90
        1
176
     1
 90
        6
176
     1
 90
        2
176
     1
 62
     7
176
     1
 90
        5
176
     1
 90
        0
176
     1
 90
        0
176
     1
290
     0
176
     1
 90
        1
176
     1
 40
0.0
176
     1
 90
        0
176
     1
290
     1
176
     1
290
     1
176
     1
290
     0
176
     1
290
     0
176
     1
290
     0
176
     1
290
     0
176
     1
290
     0
176
     1
290
     0
176
     1
290
     0
176
     1
 90
       50
176
     1
 40
0.0
176
     1
 40
1.0
176
     1
 90
        0
176
     1
 62
    18
420
        0
176
     1
 90
       50
176
     1
 90
        3
176
     1
 62
     5
420
      255
176
     1
290
     0
176
     1
 90
       50
176
     1
 90
       50
176
     1
 90
       50
176
     1
290
     0
176
     1
 90
       50
176
     1
 62
   256
176
     0
 40
1.0
176
     0
 90
        2
176
     1
  1
strokes_ogs.tif
176
     1
290
     0
176
     1
 40
1.0
176
     1
 40
1.0
176
     1
  0
VISUALSTYLE
  5
2E
102
{ACAD_REACTORS
330
29
102
}
330
29
100
AcDbVisualStyle
  2
Basic
 70
     7
177
     3
291
     1
 70
    58
 90
        1
176
     1
 90
        0
176
     1
 90
        1
176
     1
 90
        0
176
     1
 40
0.6
176
     1
 40
30.0
176
     1
 62
     7
420
 16777215
176
     1
 90
        0
176
     1
 90
        4
176
     1
 62
     7
176
     1
 62
   257
176
     1
 90
        1
176
     1
 90
        1
176
     1
 40
1.0
176
     1
 90
        8
176
     1
 62
     7
176
     1
 40
1.0
176
     1
 90
        1
176
     1
 90
        6
176
     1
 90
        2
176
     1
 62
     7
176
     1
 90
        5
176
     1
 90
        0
176
     1
 90
        0
176
     1
290
     0
176
     1
 90
        1
176
     1
 40
0.0
176
     1
 90
        0
176
     1
290
     0
176
     1
290
     1
176
     1
290
     1
176
     1
290
     0
176
     1
290
     0
176
     1
290
     0
176
     1
290
     0
176
     1
290
     0
176
     1
290
     0
176
     1
 90
       50
176
     1
 40
0.0
176
     1
 40
1.0
176
     1
 90
        0
176
     1
 62
    18
420
        0
176
     1
 90
       50
176
     1
 90
        3
176
     1
 62
     5
420
      255
176
     1
290
     0
176
     1
 90
       50
176
     1
 90
       50
176
     1
 90
       50
176
     1
290
     0
176
     1
 90
       50
176
     1
 62
   256
176
     0
 40
1.0
176
     0
 90
        2
176
     1
  1
strokes_ogs.tif
176
     1
290
     0
176
     1
 40
1.0
176
     1
 40
1.0
176
     1
  0
VISUALSTYLE
  5
35
102
{ACAD_REACTORS
330
29
102
}
330
29
100
AcDbVisualStyle
  2
Brighten
 70
    12
177
     3
291
     1
 70
    58
 90
        2
176
     1
 90
        2
176
     1
 90
        0
176
     1
 90
        0
176
     1
 40
0.6
176
     1
 40
30.0
176
     1
 62
     7
420
 16777215
176
     1
 90
        1
176
     1
 90
        4
176
     1
 62
     7
176
     1
 62
   257
176
     1
 90
        1
176
     1
 90
        1
176
     1
 40
1.0
176
     1
 90
        8
176
     1
 62
     7
176
     1
 40
1.0
176
     1
 90
        1
176
     1
 90
        6
176
     1
 90
        2
176
     1
 62
     7
176
     1
 90
        5
176
     1
 90
        0
176
     1
 90
        0
176
     1
290
     0
176
     1
 90
        1
176
     1
 40
50.0
176
     1
 90
        0
176
     1
290
     0
176
     1
290
     1
176
     1
290
     1
176
     1
290
     0
176
     1
290
     0
176
     1
290
     0
176
     1
290
     0
176
     1
290
     0
176
     1
290
     0
176
     1
 90
       50
176
     1
 40
0.0
176
     1
 40
1.0
176
     1
 90
        0
176
     1
 62
    18
420
        0
176
     1
 90
       50
176
     1
 90
        3
176
     1
 62
     5
420
      255
176
     1
290
     0
176
     1
 90
       50
176
     1
 90
       50
176
     1
 90
       50
176
     1
290
     0
176
     1
 90
       50
176
     1
 62
   256
176
     0
 40
1.0
176
     0
 90
        2
176
     1
  1
strokes_ogs.tif
176
     1
290
     0
176
     1
 40
1.0
176
     1
 40
1.0
176
     1
  0
VISUALSTYLE
  5
39
102
{ACAD_REACTORS
330
29
102
}
330
29
100
AcDbVisualStyle
  2
ColorChange
 70
    16
177
     3
291
     1
 70
    58
 90
        2
176
     1
 90
        2
176
     1
 90
        3
176
     1
 90
        0
176
     1
 40
0.6
176
     1
 40
30.0
176
     1
 62
     8
420
  8421504
176
     1
 90
        1
176
     1
 90
        4
176
     1
 62
     7
176
     1
 62
   257
176
     1
 90
        1
176
     1
 90
        1
176
     1
 40
1.0
176
     1
 90
        8
176
     1
 62
     8
420
  8421504
176
     1
 40
1.0
176
     1
 90
        1
176
     1
 90
        6
176
     1
 90
        2
176
     1
 62
     7
176
     1
 90
        5
176
     1
 90
        0
176
     1
 90
        0
176
     1
290
     0
176
     1
 90
        1
176
     1
 40
0.0
176
     1
 90
        0
176
     1
290
     0
176
     1
290
     1
176
     1
290
     1
176
     1
290
     0
176
     1
290
     0
176
     1
290
     0
176
     1
290
     0
176
     1
290
     0
176
     1
290
     0
176
     1
 90
       50
176
     1
 40
0.0
176
     1
 40
1.0
176
     1
 90
        0
176
     1
 62
    18
420
        0
176
     1
 90
       50
176
     1
 90
        3
176
     1
 62
     5
420
      255
176
     1
290
     0
176
     1
 90
       50
176
     1
 90
       50
176
     1
 90
       50
176
     1
290
     0
176
     1
 90
       50
176
     1
 62
   256
176
     0
 40
1.0
176
     0
 90
        2
176
     1
  1
strokes_ogs.tif
176
     1
290
     0
176
     1
 40
1.0
176
     1
 40
1.0
176
     1
  0
VISUALSTYLE
  5
32
102
{ACAD_REACTORS
330
29
102
}
330
29
100
AcDbVisualStyle
  2
Conceptual
 70
     9
177
     3
291
     0
 70
    58
 90
        3
176
     1
 90
        2
176
     1
 90
        0
176
     1
 90
        0
176
     1
 40
0.6
176
     1
 40
30.0
176
     1
 62
     7
420
 16777215
176
     1
 90
        2
176
     1
 90
        2
176
     1
 62
     7
176
     1
 62
   257
176
     1
 90
        1
176
     1
 90
        1
176
     1
 40
179.0
176
     1
 90
        8
176
     1
 62
     7
176
     1
 40
1.0
176
     1
 90
        1
176
     1
 90
        6
176
     1
 90
        2
176
     1
 62
     7
176
     1
 90
        3
176
     1
 90
        0
176
     1
 90
        0
176
     1
290
     0
176
     1
 90
        1
176
     1
 40
0.0
176
     1
 90
        0
176
     1
290
     0
176
     1
290
     1
176
     1
290
     1
176
     1
290
     0
176
     1
290
     0
176
     1
290
     0
176
     1
290
     0
176
     1
290
     0
176
     1
290
     0
176
     1
 90
       50
176
     1
 40
0.0
176
     1
 40
1.0
176
     1
 90
        0
176
     1
 62
    18
420
        0
176
     1
 90
       50
176
     1
 90
        3
176
     1
 62
     5
420
      255
176
     1
290
     0
176
     1
 90
       50
176
     1
 90
       50
176
     1
 90
       50
176
     1
290
     0
176
     1
 90
       50
176
     1
 62
   256
176
     0
 40
1.0
176
     0
 90
        2
176
     1
  1
strokes_ogs.tif
176
     1
290
     0
176
     1
 40
1.0
176
     1
 40
1.0
176
     1
  0
VISUALSTYLE
  5
34
102
{ACAD_REACTORS
330
29
102
}
330
29
100
AcDbVisualStyle
  2
Dim
 70
    11
177
     3
291
     1
 70
    58
 90
        2
176
     1
 90
        2
176
     1
 90
        0
176
     1
 90
        0
176
     1
 40
0.6
176
     1
 40
30.0
176
     1
 62
     7
420
 16777215
176
     1
 90
        1
176
     1
 90
        4
176
     1
 62
     7
176
     1
 62
   257
176
     1
 90
        1
176
     1
 90
        1
176
     1
 40
1.0
176
     1
 90
        8
176
     1
 62
     7
176
     1
 40
1.0
176
     1
 90
        1
176
     1
 90
        6
176
     1
 90
        2
176
     1
 62
     7
176
     1
 90
        5
176
     1
 90
        0
176
     1
 90
        0
176
     1
290
     0
176
     1
 90
        1
176
     1
 40
-50.0
176
     1
 90
        0
176
     1
290
     0
176
     1
290
     1
176
     1
290
     1
176
     1
290
     0
176
     1
290
     0
176
     1
290
     0
176
     1
290
     0
176
     1
290
     0
176
     1
290
     0
176
     1
 90
       50
176
     1
 40
0.0
176
     1
 40
1.0
176
     1
 90
        0
176
     1
 62
    18
420
        0
176
     1
 90
       50
176
     1
 90
        3
176
     1
 62
     5
420
      255
176
     1
290
     0
176
     1
 90
       50
176
     1
 90
       50
176
     1
 90
       50
176
     1
290
     0
176
     1
 90
       50
176
     1
 62
   256
176
     0
 40
1.0
176
     0
 90
        2
176
     1
  1
strokes_ogs.tif
176
     1
290
     0
176
     1
 40
1.0
176
     1
 40
1.0
176
     1
  0
VISUALSTYLE
  5
41
102
{ACAD_REACTORS
330
29
102
}
330
29
100
AcDbVisualStyle
  2
EdgeColorOff
 70
    22
177
     3
291
     1
 70
    58
 90
        2
176
     0
 90
        2
176
     0
 90
        0
176
     0
 90
        0
176
     0
 40
0.6
176
     0
 40
30.0
176
     0
 62
     7
420
 16777215
176
     0
 90
        1
176
     0
 90
        4
176
     0
 62
     7
176
     0
 62
   257
176
     0
 90
        1
176
     0
 90
        1
176
     0
 40
1.0
176
     0
 90
        8
176
     2
 62
     7
176
     0
 40
1.0
176
     0
 90
        1
176
     0
 90
        6
176
     0
 90
        2
176
     0
 62
     7
176
     0
 90
        5
176
     0
 90
        0
176
     0
 90
        0
176
     0
290
     0
176
     0
 90
        1
176
     0
 40
0.0
176
     0
 90
        0
176
     0
290
     0
176
     0
290
     1
176
     0
290
     1
176
     0
290
     0
176
     0
290
     0
176
     0
290
     0
176
     0
290
     0
176
     0
290
     0
176
     0
290
     0
176
     0
 90
       50
176
     0
 40
0.0
176
     0
 40
1.0
176
     0
 90
        0
176
     0
 62
    18
420
        0
176
     0
 90
       50
176
     0
 90
        3
176
     0
 62
     5
420
      255
176
     0
290
     0
176
     0
 90
       50
176
     0
 90
       50
176
     0
 90
       50
176
     0
290
     0
176
     0
 90
       50
176
     0
 62
   256
176
     0
 40
1.0
176
     0
 90
        2
176
     0
  1
strokes_ogs.tif
176
     0
290
     0
176
     0
 40
1.0
176
     0
 40
1.0
176
     0
  0
VISUALSTYLE
  5
38
102
{ACAD_REACTORS
330
29
102
}
330
29
100
AcDbVisualStyle
  2
Facepattern
 70
    15
177
     3
291
     1
 70
    58
 90
        2
176
     1
 90
        2
176
     1
 90
        0
176
     1
 90
        0
176
     1
 40
0.6
176
     1
 40
30.0
176
     1
 62
     7
420
 16777215
176
     1
 90
        1
176
     1
 90
        4
176
     1
 62
     7
176
     1
 62
   257
176
     1
 90
        1
176
     1
 90
        1
176
     1
 40
1.0
176
     1
 90
        8
176
     1
 62
     7
176
     1
 40
1.0
176
     1
 90
        1
176
     1
 90
        6
176
     1
 90
        2
176
     1
 62
     7
176
     1
 90
        5
176
     1
 90
        0
176
     1
 90
        0
176
     1
290
     0
176
     1
 90
        1
176
     1
 40
0.0
176
     1
 90
        0
176
     1
290
     0
176
     1
290
     1
176
     1
290
     1
176
     1
290
     0
176
     1
290
     0
176
     1
290
     0
176
     1
290
     0
176
     1
290
     0
176
     1
290
     0
176
     1
 90
       50
176
     1
 40
0.0
176
     1
 40
1.0
176
     1
 90
        0
176
     1
 62
    18
420
        0
176
     1
 90
       50
176
     1
 90
        3
176
     1
 62
     5
420
      255
176
     1
290
     0
176
     1
 90
       50
176
     1
 90
       50
176
     1
 90
       50
176
     1
290
     0
176
     1
 90
       50
176
     1
 62
   256
176
     0
 40
1.0
176
     0
 90
        2
176
     1
  1
strokes_ogs.tif
176
     1
290
     0
176
     1
 40
1.0
176
     1
 40
1.0
176
     1
  0
VISUALSTYLE
  5
2A
102
{ACAD_REACTORS
330
29
102
}
330
29
100
AcDbVisualStyle
  2
Flat
 70
     0
177
     3
291
     1
 70
    58
 90
        2
176
     1
 90
        1
176
     1
 90
        1
176
     1
 90
        2
176
     1
 40
0.6
176
     1
 40
30.0
176
     1
 62
     7
420
 16777215
176
     1
 90
        0
176
     1
 90
        0
176
     1
 62
     7
176
     1
 62
   257
176
     1
 90
        1
176
     1
 90
        1
176
     1
 40
1.0
176
     1
 90
        8
176
     1
 62
     7
176
     1
 40
1.0
176
     1
 90
        1
176
     1
 90
        6
176
     1
 90
        2
176
     1
 62
     7
176
     1
 90
        5
176
     1
 90
        0
176
     1
 90
        0
176
     1
290
     0
176
     1
 90
       13
176
     1
 40
0.0
176
     1
 90
        0
176
     1
290
     0
176
     1
290
     1
176
     1
290
     1
176
     1
290
     0
176
     1
290
     0
176
     1
290
     0
176
     1
290
     0
176
     1
290
     0
176
     1
290
     0
176
     1
 90
       50
176
     1
 40
0.0
176
     1
 40
1.0
176
     1
 90
        0
176
     1
 62
    18
420
        0
176
     1
 90
       50
176
     1
 90
        3
176
     1
 62
     5
420
      255
176
     1
290
     0
176
     1
 90
       50
176
     1
 90
       50
176
     1
 90
       50
176
     1
290
     0
176
     1
 90
       50
176
     1
 62
   256
176
     0
 40
1.0
176
     0
 90
        2
176
     1
  1
strokes_ogs.tif
176
     1
290
     0
176
     1
 40
1.0
176
     1
 40
1.0
176
     1
  0
VISUALSTYLE
  5
2B
102
{ACAD_REACTORS
330
29
102
}
330
29
100
AcDbVisualStyle
  2
FlatWithEdges
 70
     1
177
     3
291
     1
 70
    58
 90
        2
176
     1
 90
        1
176
     1
 90
        1
176
     1
 90
        2
176
     1
 40
0.6
176
     1
 40
30.0
176
     1
 62
     7
420
 16777215
176
     1
 90
        1
176
     1
 90
        0
176
     1
 62
     7
176
     1
 62
   257
176
     1
 90
        1
176
     1
 90
        1
176
     1
 40
1.0
176
     1
 90
        0
176
     1
 62
   257
176
     1
 40
1.0
176
     1
 90
        1
176
     1
 90
        6
176
     1
 90
        2
176
     1
 62
     7
176
     1
 90
        5
176
     1
 90
        0
176
     1
 90
        0
176
     1
290
     0
176
     1
 90
       13
176
     1
 40
0.0
176
     1
 90
        0
176
     1
290
     0
176
     1
290
     1
176
     1
290
     1
176
     1
290
     0
176
     1
290
     0
176
     1
290
     0
176
     1
290
     0
176
     1
290
     0
176
     1
290
     0
176
     1
 90
       50
176
     1
 40
0.0
176
     1
 40
1.0
176
     1
 90
        0
176
     1
 62
    18
420
        0
176
     1
 90
       50
176
     1
 90
        3
176
     1
 62
     5
420
      255
176
     1
290
     0
176
     1
 90
       50
176
     1
 90
       50
176
     1
 90
       50
176
     1
290
     0
176
     1
 90
       50
176
     1
 62
   256
176
     0
 40
1.0
176
     0
 90
        2
176
     1
  1
strokes_ogs.tif
176
     1
290
     0
176
     1
 40
1.0
176
     1
 40
1.0
176
     1
  0
VISUALSTYLE
  5
2C
102
{ACAD_REACTORS
330
29
102
}
330
29
100
AcDbVisualStyle
  2
Gouraud
 70
     2
177
     3
291
     1
 70
    58
 90
        2
176
     1
 90
        2
176
     1
 90
        1
176
     1
 90
        2
176
     1
 40
0.6
176
     1
 40
30.0
176
     1
 62
     7
420
 16777215
176
     1
 90
        0
176
     1
 90
        0
176
     1
 62
     7
176
     1
 62
   257
176
     1
 90
        1
176
     1
 90
        1
176
     1
 40
1.0
176
     1
 90
        0
176
     1
 62
     7
176
     1
 40
1.0
176
     1
 90
        1
176
     1
 90
        6
176
     1
 90
        2
176
     1
 62
     7
176
     1
 90
        5
176
     1
 90
        0
176
     1
 90
        0
176
     1
290
     0
176
     1
 90
       13
176
     1
 40
0.0
176
     1
 90
        0
176
     1
290
     0
176
     1
290
     1
176
     1
290
     1
176
     1
290
     0
176
     1
290
     0
176
     1
290
     0
176
     1
290
     0
176
     1
290
     0
176
     1
290
     0
176
     1
 90
       50
176
     1
 40
0.0
176
     1
 40
1.0
176
     1
 90
        0
176
     1
 62
    18
420
        0
176
     1
 90
       50
176
     1
 90
        3
176
     1
 62
     5
420
      255
176
     1
290
     0
176
     1
 90
       50
176
     1
 90
       50
176
     1
 90
       50
176
     1
290
     0
176
     1
 90
       50
176
     1
 62
   256
176
     0
 40
1.0
176
     0
 90
        2
176
     1
  1
strokes_ogs.tif
176
     1
290
     0
176
     1
 40
1.0
176
     1
 40
1.0
176
     1
  0
VISUALSTYLE
  5
2D
102
{ACAD_REACTORS
330
29
102
}
330
29
100
AcDbVisualStyle
  2
GouraudWithEdges
 70
     3
177
     3
291
     1
 70
    58
 90
        2
176
     1
 90
        2
176
     1
 90
        1
176
     1
 90
        2
176
     1
 40
0.6
176
     1
 40
30.0
176
     1
 62
     7
420
 16777215
176
     1
 90
        1
176
     1
 90
        0
176
     1
 62
     7
176
     1
 62
   257
176
     1
 90
        1
176
     1
 90
        1
176
     1
 40
1.0
176
     1
 90
        0
176
     1
 62
   257
176
     1
 40
1.0
176
     1
 90
        1
176
     1
 90
        6
176
     1
 90
        2
176
     1
 62
     7
176
     1
 90
        5
176
     1
 90
        0
176
     1
 90
        0
176
     1
290
     0
176
     1
 90
       13
176
     1
 40
0.0
176
     1
 90
        0
176
     1
290
     0
176
     1
290
     1
176
     1
290
     1
176
     1
290
     0
176
     1
290
     0
176
     1
290
     0
176
     1
290
     0
176
     1
290
     0
176
     1
290
     0
176
     1
 90
       50
176
     1
 40
0.0
176
     1
 40
1.0
176
     1
 90
        0
176
     1
 62
    18
420
        0
176
     1
 90
       50
176
     1
 90
        3
176
     1
 62
     5
420
      255
176
     1
290
     0
176
     1
 90
       50
176
     1
 90
       50
176
     1
 90
       50
176
     1
290
     0
176
     1
 90
       50
176
     1
 62
   256
176
     0
 40
1.0
176
     0
 90
        2
176
     1
  1
strokes_ogs.tif
176
     1
290
     0
176
     1
 40
1.0
176
     1
 40
1.0
176
     1
  0
VISUALSTYLE
  5
31
102
{ACAD_REACTORS
330
29
102
}
330
29
100
AcDbVisualStyle
  2
Hidden
 70
     6
177
     3
291
     0
 70
    58
 90
        1
176
     1
 90
        2
176
     1
 90
        2
176
     1
 90
        0
176
     1
 40
0.6
176
     1
 40
30.0
176
     1
 62
     7
420
 16777215
176
     1
 90
        2
176
     1
 90
        2
176
     1
 62
     7
176
     1
 62
   257
176
     1
 90
        2
176
     1
 90
        1
176
     1
 40
40.0
176
     1
 90
        0
176
     1
 62
   257
176
     1
 40
1.0
176
     1
 90
        1
176
     1
 90
        6
176
     1
 90
        2
176
     1
 62
     7
176
     1
 90
        3
176
     1
 90
        0
176
     1
 90
        0
176
     1
290
     0
176
     1
 90
        1
176
     1
 40
0.0
176
     1
 90
        0
176
     1
290
     0
176
     1
290
     1
176
     1
290
     1
176
     1
290
     0
176
     1
290
     0
176
     1
290
     0
176
     1
290
     0
176
     1
290
     0
176
     1
290
     0
176
     1
 90
       50
176
     1
 40
0.0
176
     1
 40
1.0
176
     1
 90
        0
176
     1
 62
    18
420
        0
176
     1
 90
       50
176
     1
 90
        3
176
     1
 62
     5
420
      255
176
     1
290
     0
176
     1
 90
       50
176
     1
 90
       50
176
     1
 90
       50
176
     1
290
     0
176
     1
 90
       50
176
     1
 62
   256
176
     0
 40
1.0
176
     0
 90
        2
176
     1
  1
strokes_ogs.tif
176
     1
290
     0
176
     1
 40
1.0
176
     1
 40
1.0
176
     1
  0
VISUALSTYLE
  5
3F
102
{ACAD_REACTORS
330
29
102
}
330
29
100
AcDbVisualStyle
  2
JitterOff
 70
    20
177
     3
291
     1
 70
    58
 90
        2
176
     0
 90
        2
176
     0
 90
        0
176
     0
 90
        0
176
     0
 40
0.6
176
     0
 40
30.0
176
     0
 62
     7
420
 16777215
176
     0
 90
        1
176
     0
 90
        4
176
     0
 62
     7
176
     0
 62
   257
176
     0
 90
        1
176
     0
 90
        1
176
     0
 40
1.0
176
     0
 90
       10
176
     2
 62
     7
176
     0
 40
1.0
176
     0
 90
        1
176
     0
 90
        6
176
     0
 90
        2
176
     0
 62
     7
176
     0
 90
        5
176
     0
 90
        0
176
     0
 90
        0
176
     0
290
     0
176
     0
 90
        1
176
     0
 40
0.0
176
     0
 90
        0
176
     0
290
     0
176
     0
290
     1
176
     0
290
     1
176
     0
290
     0
176
     0
290
     0
176
     0
290
     0
176
     0
290
     0
176
     0
290
     0
176
     0
290
     0
176
     0
 90
       50
176
     0
 40
0.0
176
     0
 40
1.0
176
     0
 90
        0
176
     0
 62
    18
420
        0
176
     0
 90
       50
176
     0
 90
        3
176
     0
 62
     5
420
      255
176
     0
290
     0
176
     0
 90
       50
176
     0
 90
       50
176
     0
 90
       50
176
     0
290
     0
176
     0
 90
       50
176
     0
 62
   256
176
     0
 40
1.0
176
     0
 90
        2
176
     0
  1
strokes_ogs.tif
176
     0
290
     0
176
     0
 40
1.0
176
     0
 40
1.0
176
     0
  0
VISUALSTYLE
  5
37
102
{ACAD_REACTORS
330
29
102
}
330
29
100
AcDbVisualStyle
  2
Linepattern
 70
    14
177
     3
291
     1
 70
    58
 90
        2
176
     1
 90
        2
176
     1
 90
        0
176
     1
 90
        0
176
     1
 40
0.6
176
     1
 40
30.0
176
     1
 62
     7
420
 16777215
176
     1
 90
        1
176
     1
 90
        4
176
     1
 62
     7
176
     1
 62
   257
176
     1
 90
        7
176
     1
 90
        7
176
     1
 40
1.0
176
     1
 90
        8
176
     1
 62
     7
176
     1
 40
1.0
176
     1
 90
        1
176
     1
 90
        6
176
     1
 90
        2
176
     1
 62
     7
176
     1
 90
        5
176
     1
 90
        0
176
     1
 90
        0
176
     1
290
     0
176
     1
 90
        1
176
     1
 40
0.0
176
     1
 90
        0
176
     1
290
     0
176
     1
290
     1
176
     1
290
     1
176
     1
290
     0
176
     1
290
     0
176
     1
290
     0
176
     1
290
     0
176
     1
290
     0
176
     1
290
     0
176
     1
 90
       50
176
     1
 40
0.0
176
     1
 40
1.0
176
     1
 90
        0
176
     1
 62
    18
420
        0
176
     1
 90
       50
176
     1
 90
        3
176
     1
 62
     5
420
      255
176
     1
290
     0
176
     1
 90
       50
176
     1
 90
       50
176
     1
 90
       50
176
     1
290
     0
176
     1
 90
       50
176
     1
 62
   256
176
     0
 40
1.0
176
     0
 90
        2
176
     1
  1
strokes_ogs.tif
176
     1
290
     0
176
     1
 40
1.0
176
     1
 40
1.0
176
     1
  0
VISUALSTYLE
  5
40
102
{ACAD_REACTORS
330
29
102
}
330
29
100
AcDbVisualStyle
  2
OverhangOff
 70
    21
177
     3
291
     1
 70
    58
 90
        2
176
     0
 90
        2
176
     0
 90
        0
176
     0
 90
        0
176
     0
 40
0.6
176
     0
 40
30.0
176
     0
 62
     7
420
 16777215
176
     0
 90
        1
176
     0
 90
        4
176
     0
 62
     7
176
     0
 62
   257
176
     0
 90
        1
176
     0
 90
        1
176
     0
 40
1.0
176
     0
 90
        9
176
     2
 62
     7
176
     0
 40
1.0
176
     0
 90
        1
176
     0
 90
        6
176
     0
 90
        2
176
     0
 62
     7
176
     0
 90
        5
176
     0
 90
        0
176
     0
 90
        0
176
     0
290
     0
176
     0
 90
        1
176
     0
 40
0.0
176
     0
 90
        0
176
     0
290
     0
176
     0
290
     1
176
     0
290
     1
176
     0
290
     0
176
     0
290
     0
176
     0
290
     0
176
     0
290
     0
176
     0
290
     0
176
     0
290
     0
176
     0
 90
       50
176
     0
 40
0.0
176
     0
 40
1.0
176
     0
 90
        0
176
     0
 62
    18
420
        0
176
     0
 90
       50
176
     0
 90
        3
176
     0
 62
     5
420
      255
176
     0
290
     0
176
     0
 90
       50
176
     0
 90
       50
176
     0
 90
       50
176
     0
290
     0
176
     0
 90
       50
176
     0
 62
   256
176
     0
 40
1.0
176
     0
 90
        2
176
     0
  1
strokes_ogs.tif
176
     0
290
     0
176
     0
 40
1.0
176
     0
 40
1.0
176
     0
  0
VISUALSTYLE
  5
33
102
{ACAD_REACTORS
330
29
102
}
330
29
100
AcDbVisualStyle
  2
Realistic
 70
     8
177
     3
291
     0
 70
    58
 90
        2
176
     1
 90
        3
176
     1
 90
        0
176
     1
 90
        2
176
     1
 40
0.6
176
     1
 40
30.0
176
     1
 62
     7
420
 16777215
176
     1
 90
        0
176
     1
 90
        0
176
     1
 62
     7
176
     1
 62
   257
176
     1
 90
        1
176
     1
 90
        1
176
     1
 40
1.0
176
     1
 90
        8
176
     1
 62
   257
176
     1
 40
1.0
176
     1
 90
        1
176
     1
 90
        6
176
     1
 90
        2
176
     1
 62
     7
176
     1
 90
        3
176
     1
 90
        0
176
     1
 90
        0
176
     1
290
     0
176
     1
 90
       13
176
     1
 40
0.0
176
     1
 90
        0
176
     1
290
     0
176
     1
290
     1
176
     1
290
     1
176
     1
290
     0
176
     1
290
     0
176
     1
290
     0
176
     1
290
     0
176
     1
290
     0
176
     1
290
     0
176
     1
 90
       50
176
     1
 40
0.0
176
     1
 40
1.0
176
     1
 90
        0
176
     1
 62
    18
420
        0
176
     1
 90
       50
176
     1
 90
        3
176
     1
 62
     5
420
      255
176
     1
290
     0
176
     1
 90
       50
176
     1
 90
       50
176
     1
 90
       50
176
     1
290
     0
176
     1
 90
       50
176
     1
 62
   256
176
     0
 40
1.0
176
     0
 90
        2
176
     1
  1
strokes_ogs.tif
176
     1
290
     0
176
     1
 40
1.0
176
     1
 40
1.0
176
     1
  0
VISUALSTYLE
  5
3E
102
{ACAD_REACTORS
330
29
102
}
330
29
100
AcDbVisualStyle
  2
Shaded
 70
    27
177
     3
291
     0
 70
    58
 90
        2
176
     1
 90
        2
176
     1
 90
        1
176
     1
 90
        2
176
     1
 40
0.6
176
     1
 40
30.0
176
     1
 62
     7
420
 16777215
176
     1
 90
        0
176
     1
 90
        4
176
     1
 62
     7
176
     1
 62
   257
176
     1
 90
        1
176
     1
 90
        1
176
     1
 40
1.0
176
     1
 90
        8
176
     1
 62
   257
176
     1
 40
1.0
176
     1
 90
        1
176
     1
 90
        6
176
     1
 90
        2
176
     1
 62
     8
420
  7895160
176
     1
 90
        3
176
     1
 90
        0
176
     1
 90
        0
176
     1
290
     0
176
     1
 90
        5
176
     1
 40
0.0
176
     1
 90
        0
176
     1
290
     0
176
     1
290
     1
176
     1
290
     1
176
     1
290
     0
176
     1
290
     0
176
     1
290
     0
176
     1
290
     0
176
     1
290
     0
176
     1
290
     0
176
     1
 90
       50
176
     1
 40
0.0
176
     1
 40
1.0
176
     1
 90
        0
176
     1
 62
    18
420
        0
176
     1
 90
       50
176
     1
 90
        3
176
     1
 62
     5
420
      255
176
     1
290
     0
176
     1
 90
       50
176
     1
 90
       50
176
     1
 90
       50
176
     1
290
     0
176
     1
 90
       50
176
     1
 62
   256
176
     0
 40
1.0
176
     0
 90
        2
176
     1
  1
strokes_ogs.tif
176
     1
290
     0
176
     1
 40
1.0
176
     1
 40
1.0
176
     1
  0
VISUALSTYLE
  5
3D
102
{ACAD_REACTORS
330
29
102
}
330
29
100
AcDbVisualStyle
  2
Shaded with edges
 70
    26
177
     3
291
     0
 70
    58
 90
        2
176
     1
 90
        2
176
     1
 90
        1
176
     1
 90
        2
176
     1
 40
0.6
176
     1
 40
30.0
176
     1
 62
     7
420
 16777215
176
     1
 90
        1
176
     1
 90
        2
176
     1
 62
     7
176
     1
 62
   257
176
     1
 90
        2
176
     1
 90
        1
176
     1
 40
1.0
176
     1
 90
        8
176
     1
 62
   257
176
     1
 40
1.0
176
     1
 90
        1
176
     1
 90
        6
176
     1
 90
        2
176
     1
 62
     7
176
     1
 90
        3
176
     1
 90
        0
176
     1
 90
        0
176
     1
290
     0
176
     1
 90
        5
176
     1
 40
0.0
176
     1
 90
        0
176
     1
290
     0
176
     1
290
     1
176
     1
290
     1
176
     1
290
     0
176
     1
290
     0
176
     1
290
     0
176
     1
290
     0
176
     1
290
     0
176
     1
290
     0
176
     1
 90
       50
176
     1
 40
0.0
176
     1
 40
1.0
176
     1
 90
        0
176
     1
 62
    18
420
        0
176
     1
 90
       50
176
     1
 90
        3
176
     1
 62
     5
420
      255
176
     1
290
     0
176
     1
 90
       50
176
     1
 90
       50
176
     1
 90
       50
176
     1
290
     0
176
     1
 90
       50
176
     1
 62
   256
176
     0
 40
1.0
176
     0
 90
        2
176
     1
  1
strokes_ogs.tif
176
     1
290
     0
176
     1
 40
1.0
176
     1
 40
1.0
176
     1
  0
VISUALSTYLE
  5
3A
102
{ACAD_REACTORS
330
29
102
}
330
29
100
AcDbVisualStyle
  2
Shades of Gray
 70
    23
177
     3
291
     0
 70
    58
 90
        2
176
     1
 90
        2
176
     1
 90
        3
176
     1
 90
        0
176
     1
 40
0.6
176
     1
 40
30.0
176
     1
 62
     7
420
 16777215
176
     1
 90
        2
176
     1
 90
        2
176
     1
 62
     7
176
     1
 62
     7
176
     1
 90
        1
176
     1
 90
        1
176
     1
 40
40.0
176
     1
 90
        8
176
     1
 62
     7
176
     1
 40
1.0
176
     1
 90
        1
176
     1
 90
        6
176
     1
 90
        2
176
     1
 62
     7
176
     1
 90
        3
176
     1
 90
        0
176
     1
 90
        0
176
     1
290
     0
176
     1
 90
        1
176
     1
 40
0.0
176
     1
 90
        0
176
     1
290
     0
176
     1
290
     1
176
     1
290
     1
176
     1
290
     0
176
     1
290
     0
176
     1
290
     0
176
     1
290
     0
176
     1
290
     0
176
     1
290
     0
176
     1
 90
       50
176
     1
 40
0.0
176
     1
 40
1.0
176
     1
 90
        0
176
     1
 62
    18
420
        0
176
     1
 90
       50
176
     1
 90
        3
176
     1
 62
     5
420
      255
176
     1
290
     0
176
     1
 90
       50
176
     1
 90
       50
176
     1
 90
       50
176
     1
290
     0
176
     1
 90
       50
176
     1
 62
   256
176
     0
 40
1.0
176
     0
 90
        2
176
     1
  1
strokes_ogs.tif
176
     1
290
     0
176
     1
 40
1.0
176
     1
 40
1.0
176
     1
  0
VISUALSTYLE
  5
3B
102
{ACAD_REACTORS
330
29
102
}
330
29
100
AcDbVisualStyle
  2
Sketchy
 70
    24
177
     3
291
     0
 70
    58
 90
        1
176
     1
 90
        2
176
     1
 90
        2
176
     1
 90
        0
176
     1
 40
0.6
176
     1
 40
30.0
176
     1
 62
     7
420
 16777215
176
     1
 90
        2
176
     1
 90
        2
176
     1
 62
     7
176
     1
 62
     7
176
     1
 90
        1
176
     1
 90
        1
176
     1
 40
40.0
176
     1
 90
       11
176
     1
 62
     7
176
     1
 40
1.0
176
     1
 90
        1
176
     1
 90
        6
176
     1
 90
        2
176
     1
 62
     7
176
     1
 90
        6
176
     1
 90
        0
176
     1
 90
        0
176
     1
290
     0
176
     1
 90
        1
176
     1
 40
0.0
176
     1
 90
        0
176
     1
290
     0
176
     1
290
     1
176
     1
290
     1
176
     1
290
     0
176
     1
290
     0
176
     1
290
     0
176
     1
290
     0
176
     1
290
     0
176
     1
290
     0
176
     1
 90
       50
176
     1
 40
0.0
176
     1
 40
1.0
176
     1
 90
        0
176
     1
 62
    18
420
        0
176
     1
 90
       50
176
     1
 90
        3
176
     1
 62
     5
420
      255
176
     1
290
     0
176
     1
 90
       50
176
     1
 90
       50
176
     1
 90
       50
176
     1
290
     0
176
     1
 90
       50
176
     1
 62
   256
176
     0
 40
1.0
176
     0
 90
        2
176
     1
  1
strokes_ogs.tif
176
     1
290
     0
176
     1
 40
1.0
176
     1
 40
1.0
176
     1
  0
VISUALSTYLE
  5
36
102
{ACAD_REACTORS
330
29
102
}
330
29
100
AcDbVisualStyle
  2
Thicken
 70
    13
177
     3
291
     1
 70
    58
 90
        2
176
     1
 90
        2
176
     1
 90
        0
176
     1
 90
        0
176
     1
 40
0.6
176
     1
 40
30.0
176
     1
 62
     7
420
 16777215
176
     1
 90
        1
176
     1
 90
        4
176
     1
 62
     7
176
     1
 62
   257
176
     1
 90
        1
176
     1
 90
        1
176
     1
 40
1.0
176
     1
 90
       12
176
     1
 62
     7
176
     1
 40
1.0
176
     1
 90
        1
176
     1
 90
        6
176
     1
 90
        2
176
     1
 62
     7
176
     1
 90
        5
176
     1
 90
        0
176
     1
 90
        0
176
     1
290
     0
176
     1
 90
        1
176
     1
 40
0.0
176
     1
 90
        0
176
     1
290
     0
176
     1
290
     1
176
     1
290
     1
176
     1
290
     0
176
     1
290
     0
176
     1
290
     0
176
     1
290
     0
176
     1
290
     0
176
     1
290
     0
176
     1
 90
       50
176
     1
 40
0.0
176
     1
 40
1.0
176
     1
 90
        0
176
     1
 62
    18
420
        0
176
     1
 90
       50
176
     1
 90
        3
176
     1
 62
     5
420
      255
176
     1
290
     0
176
     1
 90
       50
176
     1
 90
       50
176
     1
 90
       50
176
     1
290
     0
176
     1
 90
       50
176
     1
 62
   256
176
     0
 40
1.0
176
     0
 90
        2
176
     1
  1
strokes_ogs.tif
176
     1
290
     0
176
     1
 40
1.0
176
     1
 40
1.0
176
     1
  0
VISUALSTYLE
  5
30
102
{ACAD_REACTORS
330
29
102
}
330
29
100
AcDbVisualStyle
  2
Wireframe
 70
     5
177
     3
291
     0
 70
    58
 90
        0
176
     1
 90
        2
176
     1
 90
        0
176
     1
 90
        0
176
     1
 40
0.6
176
     1
 40
30.0
176
     1
 62
     7
420
 16777215
176
     1
 90
        1
176
     1
 90
        4
176
     1
 62
     7
176
     1
 62
   257
176
     1
 90
        1
176
     1
 90
        1
176
     1
 40
1.0
176
     1
 90
        0
176
     1
 62
   257
176
     1
 40
1.0
176
     1
 90
        1
176
     1
 90
        6
176
     1
 90
        2
176
     1
 62
     7
176
     1
 90
        3
176
     1
 90
        0
176
     1
 90
        0
176
     1
290
     0
176
     1
 90
        1
176
     1
 40
0.0
176
     1
 90
        0
176
     1
290
     0
176
     1
290
     1
176
     1
290
     1
176
     1
290
     0
176
     1
290
     0
176
     1
290
     0
176
     1
290
     0
176
     1
290
     0
176
     1
290
     0
176
     1
 90
       50
176
     1
 40
0.0
176
     1
 40
1.0
176
     1
 90
        0
176
     1
 62
    18
420
        0
176
     1
 90
       50
176
     1
 90
        3
176
     1
 62
     5
420
      255
176
     1
290
     0
176
     1
 90
       50
176
     1
 90
       50
176
     1
 90
       50
176
     1
290
     0
176
     1
 90
       50
176
     1
 62
   256
176
     0
 40
1.0
176
     0
 90
        2
176
     1
  1
strokes_ogs.tif
176
     1
290
     0
176
     1
 40
1.0
176
     1
 40
1.0
176
     1
  0
VISUALSTYLE
  5
3C
102
{ACAD_REACTORS
330
29
102
}
330
29
100
AcDbVisualStyle
  2
X-Ray
 70
    25
177
     3
291
     0
 70
    58
 90
        2
176
     1
 90
        2
176
     1
 90
        1
176
     1
 90
        1
176
     1
 40
0.5
176
     1
 40
30.0
176
     1
 62
     7
420
 16777215
176
     1
 90
        1
176
     1
 90
        0
176
     1
 62
     7
176
     1
 62
   257
176
     1
 90
        1
176
     1
 90
        1
176
     1
 40
1.0
176
     1
 90
        8
176
     1
 62
     7
176
     1
 40
1.0
176
     1
 90
        1
176
     1
 90
        6
176
     1
 90
        2
176
     1
 62
     7
176
     1
 90
        3
176
     1
 90
        0
176
     1
 90
        0
176
     1
290
     0
176
     1
 90
       13
176
     1
 40
0.0
176
     1
 90
        0
176
     1
290
     0
176
     1
290
     1
176
     1
290
     1
176
     1
290
     0
176
     1
290
     0
176
     1
290
     0
176
     1
290
     0
176
     1
290
     0
176
     1
290
     0
176
     1
 90
       50
176
     1
 40
0.0
176
     1
 40
1.0
176
     1
 90
        0
176
     1
 62
    18
420
        0
176
     1
 90
       50
176
     1
 90
        3
176
     1
 62
     5
420
      255
176
     1
290
     0
176
     1
 90
       50
176
     1
 90
       50
176
     1
 90
       50
176
     1
290
     0
176
     1
 90
       50
176
     1
 62
   256
176
     0
 40
1.0
176
     0
 90
        2
176
     1
  1
strokes_ogs.tif
176
     1
290
     0
176
     1
 40
1.0
176
     1
 40
1.0
176
     1
  0
DICTIONARYVAR
  5
91
102
{ACAD_REACTORS
330
8C
102
}
330
8C
100
DictionaryVariables
280
     0
  1
1:1
  0
DICTIONARYVAR
  5
8E
102
{ACAD_REACTORS
330
8C
102
}
330
8C
100
DictionaryVariables
280
     0
  1
STANDARD
  0
DICTIONARYVAR
  5
8D
102
{ACAD_REACTORS
330
8C
102
}
330
8C
100
DictionaryVariables
280
     0
  1
STANDARD
  0
DICTIONARYVAR
  5
8F
102
{ACAD_REACTORS
330
8C
102
}
330
8C
100
DictionaryVariables
280
     0
  1
Imperial24
  0
DICTIONARYVAR
  5
90
102
{ACAD_REACTORS
330
8C
102
}
330
8C
100
DictionaryVariables
280
     0
  1
Imperial24
  0
DICTIONARY
  5
1A
330
19
100
AcDbDictionary
280
     1
281
     1
  3
BUMPTILE
360
1C
  3
DIFFUSETILE
360
1B
  3
OPACITYTILE
360
1F
  3
REFLECTIONTILE
360
1E
  3
REFRACTIONTILE
360
20
  3
SPECULARTILE
360
1D
  0
DICTIONARY
  5
12
330
11
100
AcDbDictionary
280
     1
281
     1
  3
BUMPTILE
360
14
  3
DIFFUSETILE
360
13
  3
OPACITYTILE
360
17
  3
REFLECTIONTILE
360
16
  3
REFRACTIONTILE
360
18
  3
SPECULARTILE
360
15
  0
DICTIONARY
  5
22
330
21
100
AcDbDictionary
280
     1
281
     1
  3
BUMPTILE
360
24
  3
DIFFUSETILE
360
23
  3
OPACITYTILE
360
27
  3
REFLECTIONTILE
360
26
  3
REFRACTIONTILE
360
28
  3
SPECULARTILE
360
25
  0
DICTIONARY
  5
92
330
65
100
AcDbDictionary
280
     1
281
     1
  3
ACAD_ROUNDTRIP_2008_TABLESTYLE_CELLSTYLEMAP
360
93
  0
XRECORD
  5
1C
102
{ACAD_REACTORS
330
1A
102
}
330
1A
100
AcDbXrecord
280
     1
270
     1
271
     1
  0
XRECORD
  5
1B
102
{ACAD_REACTORS
330
1A
102
}
330
1A
100
AcDbXrecord
280
     1
270
     1
271
     1
  0
XRECORD
  5
1F
102
{ACAD_REACTORS
330
1A
102
}
330
1A
100
AcDbXrecord
280
     1
270
     1
271
     1
  0
XRECORD
  5
1E
102
{ACAD_REACTORS
330
1A
102
}
330
1A
100
AcDbXrecord
280
     1
270
     1
271
     1
  0
XRECORD
  5
20
102
{ACAD_REACTORS
330
1A
102
}
330
1A
100
AcDbXrecord
280
     1
270
     1
271
     1
  0
XRECORD
  5
1D
102
{ACAD_REACTORS
330
1A
102
}
330
1A
100
AcDbXrecord
280
     1
270
     1
271
     1
  0
XRECORD
  5
14
102
{ACAD_REACTORS
330
12
102
}
330
12
100
AcDbXrecord
280
     1
270
     1
271
     1
  0
XRECORD
  5
13
102
{ACAD_REACTORS
330
12
102
}
330
12
100
AcDbXrecord
280
     1
270
     1
271
     1
  0
XRECORD
  5
17
102
{ACAD_REACTORS
330
12
102
}
330
12
100
AcDbXrecord
280
     1
270
     1
271
     1
  0
XRECORD
  5
16
102
{ACAD_REACTORS
330
12
102
}
330
12
100
AcDbXrecord
280
     1
270
     1
271
     1
  0
XRECORD
  5
18
102
{ACAD_REACTORS
330
12
102
}
330
12
100
AcDbXrecord
280
     1
270
     1
271
     1
  0
XRECORD
  5
15
102
{ACAD_REACTORS
330
12
102
}
330
12
100
AcDbXrecord
280
     1
270
     1
271
     1
  0
XRECORD
  5
24
102
{ACAD_REACTORS
330
22
102
}
330
22
100
AcDbXrecord
280
     1
270
     1
271
     1
  0
XRECORD
  5
23
102
{ACAD_REACTORS
330
22
102
}
330
22
100
AcDbXrecord
280
     1
270
     1
271
     1
  0
XRECORD
  5
27
102
{ACAD_REACTORS
330
22
102
}
330
22
100
AcDbXrecord
280
     1
270
     1
271
     1
  0
XRECORD
  5
26
102
{ACAD_REACTORS
330
22
102
}
330
22
100
AcDbXrecord
280
     1
270
     1
271
     1
  0
XRECORD
  5
28
102
{ACAD_REACTORS
330
22
102
}
330
22
100
AcDbXrecord
280
     1
270
     1
271
     1
  0
XRECORD
  5
25
102
{ACAD_REACTORS
330
22
102
}
330
22
100
AcDbXrecord
280
     1
270
     1
271
     1
  0
CELLSTYLEMAP
  5
93
102
{ACAD_REACTORS
330
92
102
}
330
92
100
AcDbCellStyleMap
 90
        3
300
CELLSTYLE
  1
TABLEFORMAT_BEGIN
 90
        5
170
     1
 91
        0
 92
    32768
 62
   257
 93
        1
300
CONTENTFORMAT
  1
CONTENTFORMAT_BEGIN
 90
        0
 91
        0
 92
      512
 93
        0
300

 40
0.0
140
1.0
 94
        5
 62
     0
340
55
144
0.25
309
CONTENTFORMAT_END
171
     0
 94
        0
309
TABLEFORMAT_END
  1
CELLSTYLE_BEGIN
 90
        1
 91
        1
300
_TITLE
309
CELLSTYLE_END
300
CELLSTYLE
  1
TABLEFORMAT_BEGIN
 90
        5
170
     1
 91
        0
 92
        0
 62
   257
 93
        1
300
CONTENTFORMAT
  1
CONTENTFORMAT_BEGIN
 90
        0
 91
        0
 92
      512
 93
        0
300

 40
0.0
140
1.0
 94
        5
 62
     0
340
55
144
0.18
309
CONTENTFORMAT_END
171
     0
 94
        0
309
TABLEFORMAT_END
  1
CELLSTYLE_BEGIN
 90
        2
 91
        1
300
_HEADER
309
CELLSTYLE_END
300
CELLSTYLE
  1
TABLEFORMAT_BEGIN
 90
        5
170
     1
 91
        0
 92
        0
 62
   257
 93
        1
300
CONTENTFORMAT
  1
CONTENTFORMAT_BEGIN
 90
        0
 91
        0
 92
      512
 93
        0
300

 40
0.0
140
1.0
 94
        2
 62
     0
340
55
144
0.18
309
CONTENTFORMAT_END
171
     0
 94
        0
309
TABLEFORMAT_END
  1
CELLSTYLE_BEGIN
 90
        3
 91
        2
300
_DATA
309
CELLSTYLE_END
  0
ENDSEC
  0
EOF
