<?xml version="1.0" encoding="utf-8"?>
<!-- Generator: Adobe Illustrator 27.0.1, SVG Export Plug-In . SVG Version: 6.00 Build 0)  -->
<svg version="1.1" id="Layer_1" xmlns="http://www.w3.org/2000/svg" xmlns:xlink="http://www.w3.org/1999/xlink" x="0px" y="0px"
	 viewBox="0 0 714 714" style="enable-background:new 0 0 714 714;" xml:space="preserve">
<g>
	<path d="M171.8641357,446.3808594c5.7524414-10.6325684,3.885437-25.2705078-5.3265381-33.0986328
		c-8.3808594-7.1220703-20.9118652-7.6234131-31.241394-3.8469238c-3.5388794,1.2937012-7.2762451,3.4770508-8.1627808,7.130127
		c-1.434082,0.8161621-2.8207397,1.7700195-4.1396484,2.6821289
		c-14.8360596,10.2612305-31.8508301,17.0742188-49.3087769,21.6152344
		c-17.4579468,4.5412598-35.4108276,6.8737793-53.3537598,8.7324219c-2.56073,0.2652588-5.8980713,1.3796387-5.7041016,3.9467773
		c0.1532593,2.027832,2.4968262,3.0192871,4.4603271,3.548584c31.7233887,8.5507812,64.8012085,11.7399902,97.6324463,10.4763184
		c9.1366577-0.3518066,18.5872803-1.1877441,27.2989502-3.7840576
		C155.1348877,462.6872559,166.4057007,456.4699707,171.8641357,446.3808594z M143.0859985,425.2877197
		c0.505127-1.9173584,2.7701416-2.7381592,4.742981-2.9366455c4.7844238-0.480957,9.8695068,1.0839844,13.1193848,4.6279297
		c3.2498779,3.5441895,4.3210449,9.1201172,2.0852051,13.3771973c-2.2359009,4.2570801-7.911499,6.5302734-12.8930054,3.9737549
		c-2.1398315-5.1630859-4.2797241-10.3261719-6.4195557-15.4893799
		C143.2515869,427.7080078,142.7736816,426.4732666,143.0859985,425.2877197z"/>
	<path d="M249.0455322,314.3251953c-1.6767578-3.0163574-3.62854-5.9957275-6.4493408-7.9841309
		c-2.8206787-1.9882812-6.6896973-2.8061523-9.7750244-1.2601318c-3.0853271,1.5461426-3.6854248,5.2504883-2.2618408,8.8289795
		c11.7070312,29.4279785,21.3062744,59.6933594,28.7182617,90.4851074
		c-10.8770752-19.7717285-23.2946777-38.694458-37.1015625-56.5438232c-0.0255127-0.107666-0.0510254-0.2154541-0.0766602-0.3231201
		c-0.7923584-3.3404541-1.6331787-6.7867432-3.6982422-9.529541c-2.0651855-2.7426758-5.7044678-4.6091309-8.9719849-3.5551758
		c-3.1353149,1.0112305-5.0006104,4.4042969-5.2596436,7.6884766s0.7572632,6.5183105,1.7160034,9.6700439
		c8.4925537,27.9188232,13.3615723,56.9343262,14.4746094,86.0948486c-1.1916504,3.6499023-2.78125,7.0842285-5.2796631,10.0500488
		c-0.9654541,1.1459961-2.0892334,2.2207031-3.4873047,2.7602539s-3.1199951,0.4439697-4.2349243-0.557373
		c-0.8701782-0.7814941-1.2443848-1.9602051-1.5822144-3.0800781c-1.0107422-3.3503418-2.0214844-6.7004395-3.0322266-10.0506592
		c-0.1004639-2.0900879-0.5217285-4.230835-0.9664307-6.2474365c-3.4423218-15.6083984-6.8846436-31.2167969-10.3269653-46.8251953
		c-0.7784424-3.5299072-1.6055908-7.1708984-3.7281494-10.0969238c-2.1224976-2.9260254-5.9082642-4.965332-9.3737793-3.9375
		c-3.9234009,1.1634521-5.9212646,5.7861328-5.5960693,9.8654785c0.3251343,4.0793457,2.3731079,7.784668,4.1448975,11.4733887
		c5.1655884,10.7545166,8.2344971,22.3575439,9.7782593,34.2102051
		c-1.1417847,17.1149902-6.7866211,33.8186035-13.8483887,49.5356445
		c-8.1430054,18.1235352-18.2067261,35.3444824-26.1115723,53.5732422
		c-2.0281372,4.677002-3.9165649,10.0526123-1.8780518,14.7249756c2.7477417,6.2979736,10.8609619,7.8106689,17.7196045,8.227417
		c8.6019287,0.5224609,17.2262573,0.6763916,25.8413696,0.4610596c4.0009766-0.0999756,8.072876-0.293335,11.8382568-1.6497803
		c3.7653198-1.3564453,7.2387085-4.0611572,8.5819702-7.8312988c1.1400146-3.1994629,0.6414185-6.7109375,0.4914551-10.104248
		c-0.796875-18.0267334,8.7706299-35.1057129,21.0670166-48.3115234
		c12.2966309-13.2058105,27.3562012-23.4766846,40.9138184-35.3840332c2.4260254-2.1306152,4.8601074-4.3939209,6.2629395-7.2990723
		c0.4056396-0.5004883,0.7536621-1.0487061,1.0222168-1.6242676c1.019165-2.1855469,1.1538086-4.6669922,1.2073975-7.0778809
		c0.7160645-32.2802734-10.0321045-63.5847168-20.6654053-94.0717773
		C256.2263184,330.3381348,253.3120117,322.0001221,249.0455322,314.3251953z M257.4202881,444.494751
		c-2.583252,3.62146-7.512085,5.9847412-11.59021,4.2078857c-2.4204102-1.0546875-4.1149902-3.3632812-5.0238037-5.8422852
		c-0.9088135-2.4787598-1.1329346-5.147583-1.348999-7.7790527c-0.2175293-2.6496582-0.4351807-5.2994385-0.652832-7.9492188
		c0.7110596-5.9735107-0.6931152-12.1035156-2.0948486-18.0129395c-1.3035889-5.4957275-2.6072998-10.9915771-3.9110107-16.4873047
		c5.2504883,8.1853027,10.5008545,16.3704834,15.7512207,24.5557861
		c3.9967041,6.2305908,7.9934082,12.4613037,11.9899902,18.6920166
		C260.208252,438.7911377,259.2822266,441.8845215,257.4202881,444.494751z"/>
	<path d="M343.0855713,328.1647949c-5.4481201-9.8566895-8.4365234-21.8828125-4.4713135-32.4239502
		c1.9718018-5.2420654,7.0799561-10.3693848,12.4552002-8.796875c3.2557373,0.9525146,5.3460693,4.0152588,7.3260498,6.7696533
		c1.9799805,2.7545166,4.5229492,5.626709,7.9082031,5.8432617c3.3852539,0.2167969,6.609375-4.2553711,4.1864014-6.6293945
		c1.8869629-9.1525879-4.2393799-18.6298828-13.307251-22.1234131c-9.0678711-3.4936523-20.5603027-0.1168213-25.5246582,8.2370605
		c-3.0771484,5.1783447-3.5343018,11.4468994-3.9152832,17.4584961c-0.779541,12.3013916-1.5471191,24.7828369,0.9916992,36.8446045
		c2.5390625,12.0617676,8.84375,23.8625488,19.3450928,30.3166504c15.4886475,9.519043,15.8708496,38.2889404,10.6409912,59.4154053
		c-1.2301025,4.9693604-3.2258301,10.1038818-7.3764648,13.1005859c-4.1507568,2.9967041-10.9489746,2.7282715-13.5212402-1.6981201
		c-1.7348633-2.9854736-1.0996094-6.7452393-0.1865234-10.0753174c0.9133301-3.3300781,2.0610352-6.8182373,1.1911621-10.1599121
		s-4.8051758-6.118042-7.7973633-4.3946533c-1.9482422,1.1220703-2.6451416,3.552002-3.0947266,5.7547607
		c-1.3447266,6.5875244-2.0163574,13.3121338-2.0014648,20.0355225c0.0058594,2.5493164,0.1582031,5.1986084,0.6950684,7.7045898
		c-0.7816162,0.607666-1.6669922,1.0632324-2.6359863,1.2583008c-2.4570312,0.4946289-5.0249023-0.769165-6.6455078-2.6809082
		c-0.9626465-1.135498-1.6367188-2.4680176-2.1401367-3.8745117c0.2976074-0.4942627,0.5837402-0.9912109,0.8444824-1.4886475
		c5.4772949-10.4504395,7.4581299-22.369751,8.4404297-34.1276855c3.4974365-41.862915-4.9633789-84.6582031-24.1279297-122.0406494
		c-5.8125-0.9890137-14.0959473,1.133667-19.1623535,6.1606445c-5.0666504,5.0270996-7.2966309,12.3432617-7.6655273,19.4710693
		s0.9277344,14.2205811,1.9621582,21.2825928c5.2387695,35.7655029,3.9511719,72.8956299,15.9315186,106.9997559
		c1.6566162,4.7160645,4.2327881,9.9091797,8.6612549,11.7214355c3.5458984,31.3510742-4.1193848,63.0786133-1.6833496,94.546875
		c0.1989746,2.5710449,0.6152344,5.4260254,2.6334229,7.0313721c1.6097412,1.2805176,3.8203125,1.4123535,5.8760986,1.4807129
		c20.9516602,0.6965332,41.934082,0.4700928,62.8659668-0.6783447c1.6599121-5.0554199,2.5161133-11.0750732-0.7050781-15.3103027
		c-1.9761963-2.5983887-5.1074219-3.9875488-7.7678223-5.8795166c-6.1419678-4.3677979-9.7611084-11.4473877-12.3157959-18.5379639
		c-4.5915527-12.7437744-6.3214111-27.4733887-0.0169678-39.4624023
		c4.8389893-9.2019043,13.8581543-15.7585449,18.251709-25.1812744c0.72229-1.5491943,1.2131348-3.5111084,0.6098633-4.9854736
		c7.064209-9.2944336,11.0668945-21.112793,11.4614258-32.8664551c0.6049805-18.0269775-6.3552246-35.6967773-16.6264648-50.5236816
		C356.2612305,346.4008789,348.5336914,338.0214844,343.0855713,328.1647949z M311.7126465,390.8358154
		c-0.0415039,2.3564453-0.1437988,4.7818604-1.1103516,6.9312744c-0.9664307,2.1495361-3.0046387,3.9816895-5.3613281,4.0058594
		c-4.0681152,0.041626-6.2316895-4.6818848-7.3654785-8.5891113c-5.6955566-19.6271973-11.4343262-40.2944336-6.8969727-60.2214355
		c0.4857178-2.1325684,1.2438965-4.4501953,3.1403809-5.5395508c2.0931396-1.2023926,4.8776855-0.3792725,6.6347656,1.2756348
		c1.7573242,1.6550293,2.6187744,3.987793,3.0791016,5.5074463
		C309.3806152,352.5200195,312.0498047,371.7028809,311.7126465,390.8358154z"/>
	<path d="M491.1049805,526.1555176c-2.4404297-0.9851074-5.1114502-1.3527832-7.4787598-2.5021973
		c-3.1970215-1.5522461-5.5583496-4.3825684-7.7568359-7.1749268c-16.0968018-20.444458-29.0202637-43.3825684-38.166748-67.7429199
		c-3.8291016-10.1984863-7.0090332-20.6624756-11.6174316-30.5333252
		c-4.239502-9.0805664-9.8236084-17.7524414-17.4748535-24.171875c0.1151123-4.4887695,0.0756836-8.9814453-0.140625-13.4665527
		c-0.1887207-3.9134521-0.4909668-7.9301758,0.6867676-11.6669922s4.2497559-7.1828613,8.1561279-7.4829102
		c2.9119873,6.8604736,6.2154541,13.5548096,9.8890381,20.0395508c1.0006104,1.7663574,2.1872559,3.651123,4.1118164,4.2973633
		c2.7661133,0.9290771,5.7912598-1.309082,6.7774658-4.0554199c0.9862061-2.7462158,0.4847412-5.7780762-0.0667725-8.6434326
		c-6.0853271-31.6135254-16.9494629-62.2491455-31.4702148-90.9822998
		c-2.0405273-4.0375977-4.2495117-8.1585693-7.7791748-10.9882812c-3.5296631-2.8295898-8.7393799-4.0534668-12.6329346-1.75
		c-3.1148682,1.8425293-4.7490234,5.5405273-5.0449219,9.1474609c-0.2957764,3.6069336,0.5432129,7.1986084,1.3338623,10.7302246
		c9.2816162,41.4602051,12.574585,84.2446289,9.8560791,126.642334c-1.2902832,7.5351562-3.447876,14.921875-6.4516602,21.9519043
		c-1.7746582,4.152832-3.8706055,8.3117676-4.1474609,12.8195801c-0.3408203,5.5489502,2.1121826,10.84375,4.5075684,15.8605957
		c3.4152832,7.152832,6.9177246,14.4343262,12.3718262,20.185791c4.7932129,5.0546875,10.8825684,8.6966553,15.951416,13.4750977
		c8.9606934,8.4475098,14.3669434,20.2019043,16.6174316,32.3094482c0.730957,3.9333496,1.4135742,8.3786621,4.6601562,10.7166748
		c2.5549316,1.8398438,5.9638672,1.7937012,9.1099854,1.6726074c18.6446533-0.7167969,37.2891846-1.4338379,55.9337158-2.1506348
		C501.6838379,535.866333,497.4829102,528.7299805,491.1049805,526.1555176z M402.4903564,344.3358154
		c-0.9085693-0.8277588-1.144165-2.1431885-1.3282471-3.3585205c-1.0838623-7.157959-2.1678467-14.315918-3.251709-21.473877
		c-0.567627-3.748291-1.130127-7.619873-0.1784668-11.2895508c0.3852539-1.4858398,1.4460449-3.1745605,2.9672852-2.96875
		c1.0458984,0.1416016,1.7329102,1.1335449,2.2735596,2.0400391c5.4572754,9.1499023,9.7244873,19.0085449,11.043335,32.578125
		c-2.2116699,0.2021484-3.817627,2.0852051-5.515625,3.5166016
		C406.8023682,344.8112793,404.1322021,345.831543,402.4903564,344.3358154z"/>
	<path d="M581.0200195,331.9162598c-3.4801025,0.0410156-7.4354248-0.0516357-9.7504883-2.6505127
		c-2.6068115-2.9263916-1.6523438-7.7896729,1.0076904-10.6678467s6.5218506-4.262207,10.2250977-5.545166
		c38.8209229-13.4494629,77.6417236-26.8988037,116.4627686-40.3482666
		c-13.6760254-6.276001-29.5975342-3.4606934-44.355835-0.5262451
		c-36.0206299,7.1618652-72.0411377,14.3237305-108.0617676,21.4855957
		c4.6674805,10.8984375,9.5426025,22.8100586,10.8731689,35.3259277s-1.1361084,25.7199707-8.4902344,35.9343262
		c-6.107666,8.4829102-15.1088867,14.4118652-22.0539551,22.223877c-2.1600342,2.4296875-4.1170654,5.2067871-5.6547852,8.1634521
		c-0.5102539-13.463501-0.171875-26.9578857,1.0422363-40.3758545c0.7000732,0.1086426,1.4089355,0.1899414,2.1340332,0.2177734
		c9.1896973,0.3544922,17.5227051-6.7930908,20.6612549-15.4375c3.1385498-8.6445312,1.8969727-18.3381348-1.104126-27.03125
		c-5.3955078-15.6286621-16.4941406-29.2032471-30.6862793-37.6713867c-0.0144043-0.1296387-0.027832-0.2600098-0.0424805-0.3894043
		c-1.1848145-10.480957-2.6448975-20.9287109-4.1047363-31.3747559
		c-1.7585449-12.5825195-3.5766602-25.3742676-8.8931885-36.9130859
		c-2.4949951-5.4150391-5.8272705-11.2578125-4.0870361-16.9602051c0.6456299-2.1159668,1.9730225-4.357666,1.0612793-6.3733521
		c-0.9034424-1.9978638-3.6843262-2.5105591-5.7012939-1.6505737c-2.0169678,0.8599243-3.4371338,2.6760254-4.7664795,4.4196777
		c-2.2241211,0.3679199-4.1296387-1.8377686-4.5803223-4.0465698s0.0368652-4.4972534-0.0977783-6.7474976
		c-0.1347656-2.2503052-1.211792-4.7564087-3.3900146-5.3370361c-3.1502686-0.8396606-5.5812988,2.6959839-6.921875,5.6677246
		c-3.1384277,0.9547119-5.6936035-2.5473022-7.078125-5.5212402c-1.3843994-2.973877-3.7946777-6.5254517-6.9786377-5.7360229
		c-2.8319092,0.7020874-3.6350098,4.2763062-3.8983154,7.1820679c-2.4707031,1.0356445-5.0056152,2.0863647-7.6817627,2.2070312
		s-5.5670166-0.8773804-6.9904785-3.1467896c-0.684082-1.0905151-1.0306396-2.4482422-2.0467529-3.2387695
		c-1.786377-1.3897705-4.595459-0.0513916-5.5725098,1.9901733s-0.7041016,4.4276123-0.5339355,6.6845093
		c0.2949219,3.9072876,0.1484375,8.0789795-1.96875,11.3761597c-2.1174316,3.2971191-6.7954102,5.2102051-10.1225586,3.1401367
		c-0.8962402-0.5576172-1.664917-1.3687744-2.6813965-1.6533203c-2.032959-0.5690918-4.0784912,1.352417-4.456543,3.4294434
		c-0.3781738,2.0769043,0.4082031,4.1696777,1.1802979,6.1345215c2.0510254,5.2191162,4.1021729,10.4382324,6.1531982,15.6572266
		c0.5847168,1.4880371,1.1790771,3.029541,1.1179199,4.6271973c-0.0610352,1.5975342-0.9577637,3.2783203-2.487793,3.7421875
		c-2.0568848,0.6237793-4.0966797-1.1005859-6.2443848-1.1809082c-3.2474365-0.1213379-5.4848633,3.7825928-4.7919922,6.9575195
		c0.6928711,3.1750488,3.3251953,5.5427246,6.0229492,7.3543701c2.6977539,1.8117676,5.6697998,3.3586426,7.7270508,5.8741455
		c2.057373,2.5153809,2.9135742,6.4171143,0.9039307,8.9707031c-2.1252441,2.7006836-6.6728516,3.0610352-7.9836426,6.237793
		c-1.0662842,2.5841064,0.9537354,5.6638184,3.6068115,6.5441895c2.6533203,0.880249,5.5864258,0.0722656,8.076416-1.1984863
		s4.7392578-2.994873,7.2978516-4.1210938c6.4794922-2.8515625,14.3959961-1.3764648,20.0473633,2.8867188
		c5.6516113,4.2631836,9.1479492,10.9763184,10.4393311,17.9367676c0.1854248,0.9995117,0.3721924,2.0615234,0.6116943,3.1074219
		c-0.3723145,2.0822754-0.3118896,4.2666016-0.2318115,6.3972168c0.7745361,20.6072998,1.5489502,41.2145996,2.3233643,61.8217773
		c0.0718994,1.9118652,0.1252441,3.9155273-0.7216797,5.6308594c-0.847168,1.7154541-2.9133301,2.9919434-4.6923828,2.2885742
		c-2.0422363-0.8074951-2.4726562-3.453125-2.6209717-5.644165c-1.4874268-21.9830322-5.7332764-43.7780762-12.6060791-64.7120361
		c-1.0257568-3.1245117-2.1535645-6.3085938-4.2783203-8.8188477c-2.1247559-2.5100098-5.4807129-4.2375488-10.635498-5.2403564
		c6.0606689,31.5435791,12.1212158,63.0870361,18.1818848,94.6306152c0.7302246,3.8011475,1.4855957,7.6733398,3.348877,11.065918
		c1.8635254,3.3925781,5.0512695,6.2889404,8.8886719,6.7952881c4.5286865,0.5975342,8.9616699-2.2935791,11.4587402-6.1186523
		c2.4969482-3.8251953,3.4208984-8.4423828,4.1363525-12.9541016c4.2315674-26.6806641,2.9210205-53.8918457,1.5992432-80.8737793
		c-0.0874023-1.7839355-0.3320312-3.7506104-0.8483887-5.5528564c0.3132324-1.7498779,0.4316406-3.5594482,0.6293945-5.3284912
		c0.3505859-3.1359863,1.1306152-6.4714355,3.4952393-8.5606689c2.9449463-2.6019287,7.7059326-2.3839111,10.9373779-0.1479492
		c3.2316895,2.2359619,5.0656738,6.0738525,5.7233887,9.9481201c0.2971191,1.7502441,0.3758545,3.5195312,0.3444824,5.2937012
		c-3.1850586,37.145752-9.7819824,73.9981689-19.6894531,109.9396973c5.8565674,6.1297607,8.6645508,4.1450195,10.315918,1.6196289
		s2.361084-5.5341797,3.0244141-8.4776611c3.4360352-15.2475586,6.4001465-30.6014404,8.8867188-46.0323486
		c3.0195312,3.7025146,6.3280029,7.5441895,10.041748,10.6086426c-1.003418,3.855957-1.519165,7.8781738-1.9560547,11.8479004
		c-2.854126,25.9377441-3.6732178,52.4494629,2.1865234,77.8771973c0.986084,4.2789307,2.1877441,8.5826416,4.4990234,12.31604
		c2.3115234,3.7333984,5.8858643,6.8760986,10.1828613,7.7794189c1.1026611,0.2318115,2.3823242,0.2680664,3.2128906-0.4931641
		c1.0842285-0.9936523,0.829834-2.7341309,0.4987793-4.1669922c-2.9853516-12.9191895-5.1269531-26.029541-6.4570312-39.2219238
		c1.0268555,0.2475586,2.0202637,0.8693848,2.6499023,1.7165527c1.3056641,1.7568359,1.5495605,4.0512695,1.9785156,6.1977539
		c1.3613281,6.8120117,5.078125,13.130127,10.3710938,17.6291504c1.4337158,1.21875,3.1158447,2.354248,4.9975586,2.3574219
		c4.5593262,0.0075684,6.3630371-6.3518066,4.6933594-10.5944824c-1.6697998-4.2424316-5.2518311-7.592041-6.5288086-11.9689941
		c15.4716797,2.8117676,27.8526611,17.6369629,27.8616943,33.3620605
		c25.0863037-19.6335449,40.0843506-49.1176758,54.3018799-77.6248779c0.550293-1.1031494,1.1136475-2.3549805,0.7235107-3.524292
		c-0.8878174-2.6608887-4.8048096-1.7463379-7.4088135-0.7030029c-10.4536133,4.1883545-23.4216309,0.9547119-30.6848145-7.6516113
		c-1.4066162-1.6668701-2.6483154-4.0236816-1.5841064-5.9274902c0.78479-1.4038086,2.5050049-1.9362793,4.0649414-2.3277588
		c19.5964355-4.9174805,39.9273682-6.8967285,60.1043701-5.8510742c8.4593506,0.4384766,18.119751,0.9853516,24.0898438-5.0239258
		C642.7529297,336.0284424,611.8602295,331.5511475,581.0200195,331.9162598z M514.8000488,336.402832
		c-5.0498047-1.2875977-9.2490234-6.5534668-7.5379639-11.6540527c1.9968262-5.9523926,3.9936523-11.9049072,5.9904785-17.8574219
		c0.4671631-1.3925781,1.0338135-2.9090576,2.3182373-3.621582c1.6851807-0.9350586,3.784668-0.0610352,5.4078369,0.9780273
		c4.3892822,2.8093262,8.0119629,6.9770508,9.6134033,11.9362793c1.6013184,4.9593506,1.0101318,10.7070312-2.0529785,14.9232178
		S519.8499756,337.6904297,514.8000488,336.402832z"/>
</g>
</svg>
